<svg width="34" height="34" viewBox="0 0 34 34" fill="none" xmlns="http://www.w3.org/2000/svg">
<path d="M13.6217 8.4605C14.5723 7.82534 15.6899 7.48633 16.8331 7.48633C18.3662 7.48633 19.8364 8.09533 20.9205 9.17936C22.0045 10.2634 22.6135 11.7337 22.6135 13.2667C22.6135 14.41 22.2745 15.5275 21.6393 16.4781C21.0042 17.4287 20.1014 18.1696 19.0452 18.6071C17.9889 19.0446 16.8267 19.1591 15.7054 18.936C14.5841 18.713 13.5542 18.1625 12.7458 17.3541C11.9374 16.5457 11.3868 15.5157 11.1638 14.3944C10.9408 13.2731 11.0552 12.1109 11.4927 11.0547C11.9302 9.99843 12.6711 9.09565 13.6217 8.4605Z" fill="white" stroke="#6A75E0" stroke-width="0.5"/>
<path d="M26.2741 27.6543L26.2778 27.9005H26.524H26.5252H26.6206L26.6917 27.837C28.9167 25.8503 30.4857 23.2347 31.191 20.3365C31.8964 17.4383 31.7048 14.3942 30.6416 11.6072C29.5785 8.82034 27.6939 6.42209 25.2374 4.73006C22.7809 3.03803 19.8685 2.13203 16.8857 2.13203C13.9029 2.13203 10.9904 3.03803 8.53395 4.73006C6.07749 6.42209 4.1929 8.82034 3.12974 11.6072C2.06657 14.3942 1.87498 17.4383 2.58032 20.3365C3.28567 23.2347 4.85468 25.8503 7.0796 27.837L7.48777 28.2014L7.49608 27.6543C7.51912 26.1379 8.13696 24.6912 9.21646 23.626C10.296 22.5608 11.7507 21.9622 13.2673 21.9594H20.5028C22.0194 21.9622 23.4742 22.5608 24.5537 23.626C25.6332 24.6912 26.251 26.1379 26.2741 27.6543ZM7.64313 3.05351C10.3787 1.22566 13.5949 0.250028 16.8849 0.25C21.2953 0.25507 25.5236 2.00933 28.6422 5.12794C31.7608 8.24658 33.5151 12.4749 33.5201 16.8854C33.5201 20.1754 32.5445 23.3915 30.7166 26.127C28.8887 28.8626 26.2907 30.9948 23.251 32.2539C20.2114 33.5129 16.8666 33.8424 13.6397 33.2005C10.4128 32.5586 7.44876 30.9743 5.12231 28.6478C2.79585 26.3214 1.21151 23.3573 0.569646 20.1304C-0.072222 16.9035 0.257208 13.5588 1.51628 10.5191C2.77535 7.47944 4.9075 4.8814 7.64313 3.05351Z" fill="white" stroke="#6A75E0" stroke-width="0.5"/>
</svg>
