<svg width="19" height="20" viewBox="0 0 19 20" fill="none" xmlns="http://www.w3.org/2000/svg">
<path d="M9.85726 12.9362L9.50122 12.575L9.14517 12.9361L2.99511 19.1734C2.99506 19.1735 2.99501 19.1735 2.99496 19.1736C2.69875 19.4737 2.56819 19.4999 2.52639 19.5C2.48665 19.5001 2.35703 19.4768 2.062 19.1751L2.06066 19.1737L0.827419 17.922L0.825353 17.9199C0.533263 17.6269 0.500855 17.4956 0.500019 17.4453C0.499256 17.3994 0.523263 17.2624 0.827304 16.954L7.33789 10.3513L7.68407 10.0002L7.33788 9.64918L0.827534 3.04733C0.827449 3.04724 0.827363 3.04715 0.827277 3.04706C0.541575 2.75682 0.509065 2.61961 0.508765 2.56412C0.508475 2.51049 0.537774 2.37229 0.827246 2.07867C0.827261 2.07865 0.827277 2.07864 0.827293 2.07862L2.06109 0.827532L2.06118 0.827439C2.36436 0.519852 2.49484 0.500056 2.5319 0.500601C2.5741 0.501221 2.70175 0.529672 2.99556 0.827502C2.99558 0.827527 2.9956 0.827552 2.99563 0.827577L9.14517 7.06436L9.50121 7.42544L9.85724 7.06436L16.0074 0.826989C16.3012 0.529089 16.4289 0.500633 16.4711 0.500013C16.5082 0.499468 16.6387 0.519264 16.9418 0.82685L16.9419 0.826944L18.1755 2.07786C18.4646 2.37134 18.4939 2.50957 18.4936 2.56339C18.4933 2.61925 18.4605 2.75658 18.1754 3.04681C18.1753 3.0469 18.1752 3.04699 18.1751 3.04708L11.6645 9.64917L11.3183 10.0002L11.6645 10.3513L18.1751 16.954C18.478 17.2612 18.5009 17.3978 18.5 17.4437C18.4989 17.4961 18.4647 17.6282 18.1752 17.9218L18.1751 17.9219L16.9413 19.1736C16.6432 19.4759 16.5121 19.5001 16.4714 19.5C16.4305 19.4999 16.3014 19.4747 16.0082 19.175L16.0069 19.1736L9.85726 12.9362Z" fill="#6A75E0" stroke="#D7EDFD"/>
</svg>
