<svg width="402" height="307" viewBox="0 0 402 307" fill="none" xmlns="http://www.w3.org/2000/svg">
<path d="M41.7767 14.5149L17.9411 76.1228L16.8409 74.9699L40.7373 13.2035L41.7767 14.5149Z" fill="#3A7128"/>
<path d="M68.3562 47.7106L45.4516 108.63L17.5468 75.4026L40.4514 14.4834L68.3562 47.7106Z" fill="#3A7128"/>
<path d="M68.2315 47.4406L44.3405 109.071C44.3405 109.071 44.2335 108.848 44.0655 108.783L67.9565 47.1526C68.1245 47.2173 68.2925 47.282 68.2315 47.4406Z" fill="#386E26"/>
<path d="M70.1605 48.5554C70.0996 48.714 69.9277 48.6477 69.6949 48.74L45.8211 110.361L46.054 110.269C46.054 110.269 46.054 110.269 46.2868 110.176C46.2868 110.176 46.2868 110.176 46.3477 110.018C46.3477 110.018 46.3477 110.018 46.4087 109.859C46.4087 109.859 46.4087 109.859 46.4696 109.7L70.3433 48.0797C70.3934 48.4631 70.3324 48.6217 70.1605 48.5554Z" fill="#7AFFB8"/>
<path d="M62.2836 48.8364L39.3806 109.754L11.3706 76.3051L34.2736 15.3877L62.2836 48.8364Z" fill="#7AFFB8"/>
<path d="M68.5318 47.0854C68.6357 47.3028 68.7966 47.3669 68.7966 47.3669L62.7834 48.1384C62.6226 48.0743 62.5187 47.857 62.5187 47.857L35.0987 15.2862L41.2728 14.5787L68.5318 47.0854Z" fill="#F0F1F2"/>
<path d="M62.2164 48.399L38.3161 110.033C38.3161 110.033 38.3161 110.033 38.1481 109.969L62.2164 48.399Z" fill="#7AFFB8"/>
<path d="M62.2774 48.2453L38.3864 109.876C38.2184 109.811 38.2184 109.811 38.1114 109.588L62.0024 47.9573C61.9415 48.1159 62.1094 48.1806 62.2774 48.2453Z" fill="#7AFFB8"/>
<path d="M68.2311 47.5587L44.5884 109.075L38.3073 109.905L61.95 48.3892L68.2311 47.5587Z" fill="#7AFFB8"/>
<path d="M60.4079 49.036L37.5184 109.936L8.59948 75.4094L31.4889 14.5088L60.4079 49.036Z" fill="#F1FFF8"/>
<path d="M69.7308 48.8781L46.1107 110.382L39.2093 111.332L62.8294 49.8283L69.7308 48.8781Z" fill="#65FFAD"/>
<path d="M70.4287 46.9634C71.327 48.0252 71.2029 48.8556 70.4454 48.9057L63.8357 49.7914C62.8604 49.9307 61.6303 49.2646 60.7321 48.2028L32.3106 14.3539L34.0435 14.1645L35.1026 15.2904L62.5219 47.8602C62.6258 48.0776 62.7867 48.1417 62.7867 48.1417L68.7998 47.3701C68.7998 47.3701 68.6959 47.1528 68.535 47.0887L41.2766 14.583L40.2175 13.4571L41.9503 13.2677L70.4287 46.9634Z" fill="#65FFAD"/>
<path d="M62.378 49.8346C62.0371 49.7022 61.8666 49.636 61.5257 49.5036C61.1848 49.3713 61.0748 49.1467 60.7339 49.0144C60.7339 49.0144 60.7339 49.0144 60.5635 48.9482C60.283 48.6575 60.1125 48.5913 59.8321 48.3006L36.159 109.833C36.2691 110.058 36.4395 110.124 36.72 110.415L36.8904 110.481C36.8904 110.481 36.8904 110.481 37.0609 110.547C37.0609 110.547 37.0609 110.547 37.2313 110.613C37.4018 110.679 37.4018 110.679 37.5722 110.745C37.7427 110.812 37.7427 110.812 37.9131 110.878C37.9131 110.878 37.9131 110.878 38.0836 110.944L38.254 111.01L38.4244 111.076L38.5949 111.143L38.7653 111.209C38.9358 111.275 38.9358 111.275 39.1062 111.341C39.2767 111.407 39.3371 111.249 39.5075 111.315L63.1806 49.7826C62.8893 50.0331 62.5484 49.9007 62.378 49.8346Z" fill="white"/>
<path d="M38.8418 60.1647L37.5824 63.5581L24.1112 47.3778L25.3706 43.9844L38.8418 60.1647Z" fill="#8AFCBF"/>
<path d="M49.437 66.1979L48.124 69.7361L25.709 42.7711L26.9648 39.3867L49.437 66.1979Z" fill="#8AFCBF"/>
<path d="M55.7872 50.3028L50.2238 64.8131L27.5835 37.7803L32.9844 23.2051L55.7872 50.3028Z" fill="#8AFCBF"/>
<path d="M147.285 109.393L189.287 191.5L186.722 191.386L144.818 109.468L147.285 109.393Z" fill="#B5BCFF"/>
<path d="M217.347 112.325L258.141 193.688L188.186 191.88L147.197 110.619L217.347 112.325Z" fill="#D9DDFF"/>
<path d="M216.737 113.13L258.717 195.088C258.619 194.899 258.522 194.709 258.323 194.812L216.344 112.853C216.542 112.751 216.639 112.94 216.737 113.13Z" fill="#393F62"/>
<path d="M216.728 113.132L258.716 195.095L216.728 113.132Z" fill="white"/>
<path d="M216.728 113.132L258.716 195.095L216.728 113.132Z" fill="#84878C"/>
<path d="M216.728 113.132L258.716 195.095L216.728 113.132Z" fill="#888C91"/>
<path d="M216.728 113.132L258.716 195.095L216.728 113.132C216.826 113.322 216.826 113.322 216.728 113.132Z" fill="#8D9096"/>
<path d="M216.826 113.324L258.814 195.287C258.814 195.287 258.814 195.287 258.912 195.476L216.826 113.324C216.627 113.426 216.826 113.324 216.826 113.324Z" fill="#91959A"/>
<path d="M216.743 113.61L258.722 195.569C258.722 195.569 258.722 195.569 258.622 195.86L216.743 113.61Z" fill="#96999F"/>
<path d="M216.743 113.61L258.722 195.569L258.622 195.86L216.642 113.902C216.642 113.902 216.642 113.902 216.743 113.61Z" fill="#9A9EA4"/>
<path d="M216.453 113.994L258.441 195.957L216.453 113.994Z" fill="#9EA2A8"/>
<path d="M219.461 112.241C219.558 112.431 219.456 112.723 219.456 112.723C219.354 113.016 219.354 113.016 219.251 113.308C219.051 113.412 219.149 113.601 218.949 113.704L218.847 113.997L260.658 196.215C260.658 196.215 260.858 196.111 260.76 195.922C260.96 195.819 260.862 195.629 261.062 195.526C261.165 195.234 261.165 195.234 261.067 195.044C261.067 195.044 261.067 195.044 260.97 194.855C260.97 194.855 260.872 194.665 261.072 194.562L260.975 194.373L260.877 194.184C246.839 166.909 233.002 139.532 218.964 112.258C219.266 111.863 219.364 112.052 219.461 112.241Z" fill="#969FF0"/>
<path d="M217.221 113.993L258.642 195.696L243 219.11L201.872 137.492L217.221 113.993Z" fill="#969FF0"/>
<path d="M201.082 137.977L241.975 219.049L171.827 217.344L131.129 136.169L201.082 137.977Z" fill="#B5BCFF"/>
<path d="M201.995 137.048L243.758 219.1C243.56 219.202 243.459 219.494 243.459 219.494L201.498 137.544C201.598 137.253 201.796 137.15 201.995 137.048Z" fill="#9EA2A8"/>
<path d="M201.515 137.531L243.485 219.485C243.287 219.587 243.287 219.587 243.089 219.69L201.118 137.736C201.317 137.633 201.515 137.531 201.515 137.531Z" fill="#9A9EA4"/>
<path d="M201.128 137.727L243.107 219.686L242.909 219.788L200.929 137.829C201.128 137.727 201.128 137.727 201.128 137.727Z" fill="#96999F"/>
<path d="M200.939 137.825L243.016 219.973L242.818 220.075L200.939 137.825Z" fill="#91959A"/>
<path d="M200.749 137.922L242.826 220.071C242.826 220.071 242.826 220.071 242.627 220.173L200.749 137.922Z" fill="#8D9096"/>
<path d="M200.758 137.922L242.628 220.167C242.628 220.167 242.628 220.167 242.429 220.27L200.758 137.922C200.56 138.024 200.56 138.024 200.758 137.922Z" fill="#888C91"/>
<path d="M200.56 138.02L242.637 220.168C242.637 220.168 242.637 220.168 242.438 220.27L200.56 138.02Z" fill="#84878C"/>
<path d="M200.37 138.118L242.447 220.266C242.447 220.266 242.447 220.266 242.248 220.368L200.37 138.118Z" fill="white"/>
<path d="M200.37 138.118L242.447 220.266C242.447 220.266 242.447 220.266 242.248 220.368L200.37 138.118Z" fill="#7B7E83"/>
<path d="M200.181 138.215L242.161 220.174C242.161 220.174 242.161 220.174 241.962 220.276L200.181 138.215Z" fill="#777A7E"/>
<path d="M200.181 138.215L242.161 220.174C242.161 220.174 242.161 220.174 241.962 220.276L200.181 138.215C199.983 138.318 200.181 138.215 200.181 138.215Z" fill="#72757A"/>
<path d="M217.789 110.023C219.697 109.958 220.254 111.535 218.996 113.362L203.7 136.328C202.83 137.484 201.483 138.657 200.239 139.075C199.664 139.377 198.995 139.494 198.233 139.426L126.897 137.554L128.155 135.726L130.634 135.829L199.682 137.498C200.159 137.482 201.118 136.979 201.506 136.309L216.803 113.343C217.191 112.673 217.102 112.018 216.625 112.035L147.483 110.181L145.003 110.078L146.261 108.251L217.789 110.023Z" fill="#D9DDFF"/>
<path d="M216.527 111.869C217.004 111.852 217.285 112.406 216.705 113.177L201.41 136.141C201.022 136.811 200.063 137.314 199.586 137.33L130.827 135.745L147.576 110.384L216.527 111.869Z" fill="#F0F1F2"/>
<path d="M219.506 114.251L260.834 195.769L245.388 219.081L204.06 137.563L219.506 114.251Z" fill="#969FF0"/>
<path d="M199.881 139.784L240.758 220.838L168.21 219.217L127.237 137.976L199.881 139.784Z" fill="#B5BCFF"/>
<path d="M203.63 137.999C203.232 138.205 203.13 138.497 202.732 138.703C202.334 138.909 202.135 139.012 201.737 139.218C201.339 139.424 201.14 139.527 200.742 139.733C200.344 139.939 200.047 139.853 199.848 139.956C199.649 140.059 199.154 140.076 198.858 139.99L240.596 221.813C240.795 221.71 241.091 221.797 241.29 221.693L241.489 221.59C241.688 221.487 241.688 221.487 241.887 221.384C242.086 221.281 242.086 221.281 242.285 221.178C242.484 221.075 242.484 221.075 242.683 220.972C242.883 220.869 242.883 220.869 243.082 220.766L243.281 220.663C243.48 220.56 243.679 220.457 243.679 220.457C243.878 220.354 244.077 220.251 244.077 220.251C244.276 220.148 244.577 219.753 244.776 219.65C245.077 219.254 245.276 219.151 245.577 218.756L203.839 136.933C204.13 137.5 204.028 137.792 203.63 137.999Z" fill="#969FF0"/>
<path d="M257.816 193.296L258.941 195.517L246.039 214.693L245.008 212.658L257.816 193.296Z" fill="#D7EDFD"/>
<path d="M256.253 190.265L257.378 192.485L244.477 211.662L243.446 209.626L256.253 190.265Z" fill="#D7EDFD"/>
<path d="M221.19 122.236L222.315 124.456L209.505 143.822L208.38 141.601L221.19 122.236Z" fill="#D7EDFD"/>
<path d="M219.624 119.202L220.749 121.423L207.848 140.599L206.817 138.564L219.624 119.202Z" fill="#D7EDFD"/>
<path d="M225.816 153.454C228.163 149.861 231.243 150.135 233.229 154.054C235.12 157.787 234.971 163.298 232.529 166.704C230.182 170.297 227.101 170.023 225.116 166.104C223.031 162.473 223.469 157.046 225.816 153.454ZM230.922 163.532C232.291 161.396 232.512 158.446 231.567 156.58C230.621 154.713 228.887 154.678 227.423 156.626C226.054 158.762 225.832 161.712 226.778 163.579C227.818 165.632 229.458 165.481 230.922 163.532Z" fill="#D7EDFD"/>
<path d="M215.62 147.603L223.546 135.647L226.479 141.437C227.899 144.238 228.065 146.987 226.794 148.836C225.915 150.006 224.851 150.327 223.896 149.41C224.554 151.192 224.242 153.483 223.264 154.941C221.893 157.078 220.068 156.38 218.648 153.579L215.62 147.603ZM221.786 148.152L220.556 145.724L218.699 148.352L219.929 150.78C220.497 151.901 221.168 152.258 221.854 151.189C222.34 150.698 222.354 149.272 221.786 148.152ZM224.82 143.488L223.59 141.06L221.927 143.587L223.157 146.015C223.63 146.949 224.207 147.119 224.793 146.339C225.379 145.559 225.294 144.422 224.82 143.488Z" fill="#D7EDFD"/>
<path d="M244.948 176.671L246.465 179.664L243.033 185.013L248.835 184.34L250.732 188.08L245.029 188.465L242.888 200.239L240.992 196.498L242.419 188.649L240.486 188.715L238.527 191.635L237.009 188.643L244.948 176.671Z" fill="#D7EDFD"/>
<path d="M233.043 167.477C235.39 163.884 238.471 164.158 240.456 168.078C242.347 171.81 242.198 177.321 239.756 180.728C237.409 184.321 234.329 184.046 232.343 180.127C230.452 176.394 230.696 171.07 233.043 167.477ZM238.149 177.555C239.518 175.42 239.74 172.469 238.794 170.603C237.848 168.736 236.114 168.701 234.65 170.649C233.281 172.785 233.06 175.735 234.005 177.602C235.046 179.655 236.779 179.69 238.149 177.555Z" fill="#D7EDFD"/>
<path d="M202.869 160.314L206.25 166.984L149.655 165.692L146.18 158.836L202.869 160.314Z" fill="#969FF0"/>
<path d="M208.342 170.929L211.817 177.785L155.129 176.307L151.748 169.637L208.342 170.929Z" fill="#969FF0"/>
<path d="M213.906 181.726L217.287 188.396L160.692 187.104L157.217 180.248L213.906 181.726Z" fill="#969FF0"/>
<path d="M186.002 151.259L187.598 154.409L159.303 153.763L157.612 150.428L186.002 151.259Z" fill="#969FF0"/>
<path d="M209.83 212.373L211.426 215.522L183.13 214.876L181.44 211.541L209.83 212.373Z" fill="#969FF0"/>
</svg>
