<svg width="370" height="375" viewBox="0 0 370 375" fill="none" xmlns="http://www.w3.org/2000/svg">
<g clip-path="url(#clip0)" filter="url(#filter0_d)">
<path d="M290.11 271.239C285.923 269.48 309.169 261.248 309.169 261.248L334.136 154.241L339.485 152.676L314.388 260.251C314.388 260.251 314.301 260.63 313.937 261.345L313.893 261.535C312.905 264.101 309.952 270.008 303.524 271.924C303.058 272.216 302.635 272.319 302.213 272.421L196.763 304.88L198.025 299.383L290.11 271.239Z" fill="#F1F9FF"/>
<path d="M330.462 142.42L335.812 140.855C335.812 140.855 214.62 28.0268 212.124 25.8575C209.439 23.6446 203.347 25.8377 203.347 25.8377L330.462 142.42Z" fill="#A3D8FF"/>
<path d="M334.485 152.722C334.572 152.343 334.513 151.731 334.41 151.308C334.41 151.308 334.41 151.308 334.454 151.119C334.395 150.506 334.292 150.084 334.233 149.472C334.174 148.86 334.071 148.437 333.823 147.781C333.72 147.359 333.472 146.703 333.369 146.28C333.369 146.28 333.369 146.28 333.413 146.091C333.31 145.668 333.018 145.202 332.726 144.736L332.58 144.503C332.434 144.27 332.141 143.803 331.995 143.57C331.849 143.337 331.849 143.337 331.703 143.104C331.411 142.638 331.075 142.361 330.74 142.085L336.089 140.519C336.425 140.796 336.717 141.262 337.052 141.539C337.242 141.582 337.198 141.772 337.344 142.005C337.491 142.238 337.637 142.471 337.826 142.515L337.972 142.748L338.118 142.981L338.264 143.214C338.411 143.447 338.557 143.68 338.703 143.913L338.849 144.146C338.849 144.146 338.849 144.146 338.805 144.336L338.951 144.569C339.097 144.802 339.054 144.991 339.2 145.225C338.88 145.75 339.026 145.983 339.172 146.216C339.128 146.405 339.318 146.449 339.274 146.638C339.231 146.828 339.377 147.061 339.334 147.251C339.29 147.44 339.436 147.673 339.393 147.863C339.349 148.052 339.495 148.285 339.452 148.475C339.408 148.664 339.554 148.898 339.511 149.087C339.467 149.277 339.467 149.277 339.424 149.466C339.424 149.466 339.424 149.466 339.38 149.656L339.337 149.845C339.293 150.035 339.439 150.268 339.352 150.647C339.309 150.837 339.309 150.837 339.265 151.026L339.222 151.216L339.178 151.405C339.091 151.784 339.004 152.163 338.917 152.542L333.568 154.108C333.655 153.729 333.785 153.16 333.683 152.738C334.485 152.722 334.485 152.722 334.485 152.722Z" fill="#8CCFFF"/>
<path d="M206.819 27.2358C203.841 24.5568 200.839 25.4638 199.969 29.2547L174.871 136.83C174 140.621 175.567 145.969 178.544 148.648L302.378 263.879C305.355 266.558 308.358 265.651 309.228 261.86L334.136 154.241C335.007 150.45 333.441 145.102 330.463 142.423L206.819 27.2358Z" fill="#D6EEFF"/>
<path d="M207.893 48.6333C205.252 46.2309 202.672 47.0353 201.888 50.4472L184.204 126.601C183.421 130.013 184.739 134.706 187.381 137.108L300.69 242.539C303.332 244.942 305.912 244.137 306.695 240.726L324.423 164.382C325.206 160.97 323.699 156.234 321.247 153.875L207.893 48.6333Z" fill="white"/>
<path d="M201.423 50.7393C202.075 47.8961 204.086 46.961 206.041 48.0085C205.998 48.198 205.911 48.5771 205.867 48.7667L188.183 124.921C187.4 128.333 188.717 133.025 191.359 135.428L304.669 240.859C305.151 241.369 305.487 241.645 306.055 241.776C305.023 244.532 302.531 244.957 300.224 242.832L187.104 137.444C184.462 135.041 183.145 130.349 183.928 126.937L201.423 50.7393Z" fill="#8CCFFF"/>
<path d="M61.2094 178.974C61.3119 179.396 61.2684 179.586 61.371 180.008C61.371 180.008 61.3274 180.198 61.517 180.241C61.6631 180.475 61.7657 180.897 62.1013 181.174C62.2474 181.407 62.3935 181.64 62.5831 181.683C62.7292 181.916 62.9187 181.96 63.0648 182.193L61.8028 187.69C61.8028 187.69 61.8028 187.69 61.6132 187.646C61.4671 187.413 61.2775 187.37 61.3211 187.18C61.175 186.947 61.0289 186.714 60.8393 186.671C60.6932 186.438 60.5472 186.204 60.4011 185.971L60.4446 185.782C60.4446 185.782 60.4446 185.782 60.4881 185.592L60.342 185.359C60.196 185.126 60.2395 184.937 60.283 184.747C60.283 184.747 60.283 184.747 60.3265 184.557C60.37 184.368 60.37 184.368 60.4136 184.178C60.4571 183.989 60.5006 183.799 60.5441 183.61L61.7626 178.302C61.3399 178.405 61.2964 178.594 61.2094 178.974Z" fill="#8CCFFF"/>
<path d="M63.0648 182.196L61.8463 187.503L184.25 302.006L185.469 296.699L63.0648 182.196Z" fill="#D6EEFF"/>
<path d="M185.468 296.697C185.95 297.207 186.475 297.527 187.001 297.847C187.19 297.891 187.336 298.124 187.715 298.211C188.095 298.298 188.241 298.531 188.62 298.618C188.999 298.705 189.335 298.982 189.714 299.069L189.903 299.112C190.472 299.243 190.851 299.33 191.42 299.461L191.61 299.504C192.179 299.635 192.558 299.722 193.127 299.852L193.316 299.896C193.885 300.027 194.308 299.924 194.876 300.055L195.066 300.098C195.489 299.996 195.868 300.083 196.291 299.98L196.48 300.024C196.903 299.921 197.515 299.862 197.938 299.76L196.676 305.257C196.253 305.359 195.83 305.462 195.218 305.521L195.029 305.477C194.795 305.623 194.416 305.536 194.227 305.493C194.037 305.449 193.847 305.406 193.804 305.595L193.614 305.552L193.425 305.508C193.046 305.421 192.812 305.567 192.433 305.48C192.244 305.436 192.244 305.436 192.054 305.393L191.865 305.349C191.675 305.306 191.675 305.306 191.485 305.262C191.106 305.175 190.917 305.132 190.537 305.045L190.348 305.001L190.158 304.958C189.969 304.914 189.969 304.914 189.779 304.87C189.4 304.783 189.21 304.74 188.831 304.653C188.831 304.653 188.831 304.653 188.641 304.609L188.452 304.566C188.262 304.522 187.883 304.435 187.737 304.202C187.547 304.159 187.547 304.159 187.358 304.115C186.979 304.028 186.833 303.795 186.453 303.708C186.264 303.664 186.074 303.621 186.118 303.431L185.928 303.388C185.403 303.068 184.878 302.747 184.396 302.238L185.468 296.697Z" fill="#8CCFFF"/>
<path d="M64.7179 174.991C60.8265 176.292 60.0866 179.515 63.0642 182.194L185.468 296.697C188.402 299.565 194.09 300.871 197.981 299.57L303.621 267.155C307.512 265.854 308.252 262.631 305.275 259.952L182.871 145.449C179.937 142.58 174.249 141.275 170.357 142.576L64.7179 174.991Z" fill="#A3D8FF"/>
<path d="M105.095 166.902C101.437 168.057 100.741 171.09 103.529 173.726L219.058 281.662C221.846 284.297 227.154 285.516 230.813 284.361L284.987 267.467C288.646 266.311 289.342 263.279 286.554 260.643L171.025 152.707C168.237 150.071 162.929 148.853 159.27 150.008L105.095 166.902Z" fill="#F1F9FF"/>
<g opacity="0.2">
<path opacity="0.2" d="M125.683 216.327C120.756 217.79 119.842 221.77 123.637 225.235L138.584 239.242C142.189 242.664 149.204 244.275 153.941 242.768L158.255 241.364C163.181 239.901 164.095 235.921 160.3 232.456L145.354 218.449C141.749 215.027 134.734 213.416 129.997 214.923L125.683 216.327Z" fill="#8DD0FF"/>
</g>
<path d="M126.733 216.967C122.462 218.182 121.636 221.783 124.949 224.739L139.852 238.935C142.975 241.847 149.042 243.24 153.313 242.026L157.161 240.914C161.431 239.699 162.258 236.098 158.945 233.142L144.042 218.946C140.729 215.99 134.851 214.641 130.581 215.855L126.733 216.967Z" fill="#D6EEFF"/>
<path d="M157.073 153.496C155.805 153.804 155.544 154.941 156.551 155.771L160.346 159.236C161.353 160.066 163.249 160.501 164.517 160.194L169.444 158.731C170.712 158.424 170.973 157.286 169.966 156.456L166.171 152.991C165.164 152.161 163.268 151.726 162 152.033L157.073 153.496Z" fill="white"/>
<path d="M157.161 153.119C155.893 153.427 155.632 154.564 156.639 155.394L160.2 159.005C161.207 159.835 163.06 160.46 164.371 159.963L169.298 158.5C170.566 158.192 170.827 157.055 169.82 156.225L166.025 152.76C165.018 151.93 163.166 151.305 161.854 151.802L157.161 153.119Z" fill="#8CCFFF"/>
<path d="M164.474 160.383C163.205 160.69 162.944 161.827 163.951 162.657L167.746 166.122C168.753 166.952 170.606 167.577 171.917 167.08L176.844 165.617C178.112 165.31 178.373 164.172 177.366 163.343L173.571 159.877C172.564 159.047 170.712 158.423 169.59 158.963L164.474 160.383Z" fill="white"/>
<path d="M164.56 160.004C163.292 160.312 163.031 161.449 164.038 162.279L167.833 165.744C168.84 166.574 170.693 167.199 172.004 166.702L176.931 165.239C178.199 164.931 178.46 163.794 177.453 162.964L173.658 159.499C172.651 158.669 170.755 158.234 169.487 158.541L164.56 160.004Z" fill="#8CCFFF"/>
<path d="M171.83 167.459C170.562 167.766 170.301 168.903 171.308 169.733L175.059 173.388C176.066 174.218 177.919 174.843 179.231 174.346L184.157 172.883C185.425 172.575 185.686 171.438 184.679 170.608L180.884 167.143C179.877 166.313 178.025 165.688 176.713 166.185L171.83 167.459Z" fill="white"/>
<path d="M171.917 167.08C170.649 167.387 170.388 168.524 171.395 169.354L175.147 173.009C176.154 173.839 178.006 174.464 179.318 173.967L184.244 172.504C185.512 172.196 185.773 171.059 184.766 170.229L180.971 166.764C179.964 165.934 178.112 165.309 176.8 165.806L171.917 167.08Z" fill="#8CCFFF"/>
<path d="M179.377 174.578C178.109 174.886 177.848 176.023 178.855 176.853L182.65 180.318C183.657 181.148 185.51 181.773 186.821 181.276L191.748 179.813C193.016 179.506 193.277 178.368 192.27 177.538L188.475 174.073C187.468 173.243 185.572 172.808 184.304 173.116L179.377 174.578Z" fill="white"/>
<path d="M179.508 174.011C178.24 174.319 177.979 175.456 178.986 176.286L182.781 179.751C183.788 180.581 185.64 181.206 186.952 180.709L191.878 179.246C193.146 178.939 193.407 177.801 192.4 176.971L188.605 173.506C187.598 172.676 185.746 172.051 184.434 172.548L179.508 174.011Z" fill="#8CCFFF"/>
<path d="M187.156 181.554C185.888 181.862 185.626 182.999 186.633 183.829L190.428 187.294C191.435 188.124 193.288 188.749 194.599 188.252L199.526 186.789C200.794 186.481 201.055 185.344 200.048 184.514L196.253 181.049C195.246 180.219 193.394 179.594 192.082 180.091L187.156 181.554Z" fill="white"/>
<path d="M187.243 181.175C185.975 181.483 185.714 182.62 186.721 183.45L190.516 186.915C191.523 187.745 193.375 188.37 194.687 187.873L199.613 186.41C200.881 186.103 201.142 184.965 200.135 184.135L196.34 180.67C195.333 179.84 193.481 179.216 192.169 179.713L187.243 181.175Z" fill="#8CCFFF"/>
<path d="M194.703 188.675C193.435 188.983 193.174 190.12 194.181 190.95L197.975 194.415C198.982 195.245 200.878 195.68 202.147 195.373L207.073 193.91C208.341 193.603 208.602 192.465 207.595 191.635L203.8 188.17C202.793 187.34 200.941 186.716 199.629 187.213L194.703 188.675Z" fill="white"/>
<path d="M194.833 188.105C193.565 188.413 193.304 189.55 194.311 190.38L198.106 193.845C199.113 194.675 200.966 195.3 202.277 194.803L207.204 193.34C208.472 193.032 208.733 191.895 207.726 191.065L203.931 187.6C202.924 186.77 201.071 186.145 199.76 186.642L194.833 188.105Z" fill="#8CCFFF"/>
<path d="M202.292 195.605C201.024 195.913 200.763 197.05 201.77 197.88L205.565 201.345C206.572 202.175 208.425 202.8 209.736 202.303L214.663 200.84C215.931 200.532 216.192 199.395 215.185 198.565L211.39 195.1C210.383 194.27 208.53 193.645 207.219 194.142L202.292 195.605Z" fill="white"/>
<path d="M202.379 195.226C201.111 195.534 200.85 196.671 201.857 197.501L205.652 200.966C206.659 201.796 208.511 202.421 209.823 201.924L214.749 200.461C216.018 200.153 216.279 199.016 215.272 198.186L211.477 194.721C210.47 193.891 208.617 193.266 207.306 193.763L202.379 195.226Z" fill="#8CCFFF"/>
<path d="M210.028 202.769C208.76 203.077 208.499 204.214 209.506 205.044L213.301 208.509C214.308 209.339 216.204 209.774 217.472 209.467L222.398 208.004C223.667 207.696 223.928 206.559 222.921 205.729L219.126 202.264C218.119 201.434 216.266 200.809 214.955 201.306L210.028 202.769Z" fill="white"/>
<path d="M210.159 202.199C208.891 202.506 208.63 203.644 209.637 204.473L213.432 207.939C214.439 208.769 216.334 209.204 217.603 208.896L222.529 207.433C223.797 207.126 224.058 205.989 223.051 205.159L219.256 201.694C218.249 200.864 216.397 200.239 215.085 200.736L210.159 202.199Z" fill="#8CCFFF"/>
<path d="M217.618 209.699C216.349 210.006 216.088 211.144 217.095 211.973L220.89 215.439C221.897 216.269 223.75 216.893 225.061 216.396L229.988 214.933C231.256 214.626 231.517 213.489 230.51 212.659L226.715 209.194C225.708 208.364 223.856 207.739 222.544 208.236L217.618 209.699Z" fill="white"/>
<path d="M217.705 209.32C216.437 209.627 216.176 210.765 217.183 211.595L220.977 215.06C221.984 215.89 223.88 216.325 225.149 216.018L230.075 214.555C231.343 214.247 231.604 213.11 230.597 212.28L226.802 208.815C225.795 207.985 223.943 207.36 222.631 207.857L217.705 209.32Z" fill="#8CCFFF"/>
<path d="M225.164 216.82C223.896 217.127 223.635 218.265 224.642 219.095L228.437 222.56C229.444 223.39 231.297 224.015 232.608 223.518L237.535 222.055C238.803 221.747 239.064 220.61 238.057 219.78L234.262 216.315C233.255 215.485 231.403 214.86 230.091 215.357L225.164 216.82Z" fill="white"/>
<path d="M225.295 216.25C224.027 216.557 223.766 217.694 224.773 218.524L228.568 221.99C229.575 222.819 231.427 223.444 232.739 222.947L237.665 221.484C238.933 221.177 239.194 220.04 238.187 219.21L234.393 215.744C233.386 214.915 231.533 214.29 230.221 214.787L225.295 216.25Z" fill="#8CCFFF"/>
<path d="M232.754 223.752C231.486 224.059 231.225 225.196 232.232 226.026L235.983 229.681C236.99 230.511 238.843 231.136 240.154 230.639L245.081 229.176C246.349 228.868 246.61 227.731 245.603 226.901L241.808 223.436C240.801 222.606 238.949 221.981 237.637 222.478L232.754 223.752Z" fill="white"/>
<path d="M232.841 223.373C231.573 223.68 231.312 224.817 232.319 225.647L236.07 229.302C237.077 230.132 238.93 230.757 240.241 230.26L245.168 228.797C246.436 228.489 246.697 227.352 245.69 226.522L241.895 223.057C240.888 222.227 239.036 221.602 237.724 222.099L232.841 223.373Z" fill="#8CCFFF"/>
<path d="M240.49 230.914C239.222 231.221 238.961 232.359 239.968 233.188L243.763 236.654C244.77 237.483 246.666 237.919 247.934 237.611L252.86 236.148C254.128 235.841 254.39 234.704 253.383 233.874L249.588 230.408C248.581 229.579 246.728 228.954 245.417 229.451L240.49 230.914Z" fill="white"/>
<path d="M240.621 230.343C239.353 230.651 239.092 231.788 240.099 232.618L243.893 236.083C244.9 236.913 246.796 237.348 248.065 237.041L252.991 235.578C254.259 235.271 254.52 234.133 253.513 233.303L249.718 229.838C248.711 229.008 246.859 228.384 245.547 228.881L240.621 230.343Z" fill="#8CCFFF"/>
<path d="M248.08 237.844C246.811 238.152 246.55 239.289 247.557 240.119L251.352 243.584C252.359 244.414 254.212 245.039 255.523 244.542L260.45 243.079C261.718 242.771 261.979 241.634 260.972 240.804L257.177 237.339C256.17 236.509 254.274 236.074 253.006 236.381L248.08 237.844Z" fill="white"/>
<path d="M248.167 237.465C246.899 237.773 246.637 238.91 247.644 239.74L251.439 243.205C252.446 244.035 254.299 244.66 255.61 244.163L260.537 242.7C261.805 242.392 262.066 241.255 261.059 240.425L257.264 236.96C256.257 236.13 254.361 235.695 253.093 236.002L248.167 237.465Z" fill="#8CCFFF"/>
<path d="M255.626 244.965C254.358 245.273 254.097 246.41 255.104 247.24L258.899 250.705C259.906 251.535 261.759 252.16 263.07 251.663L267.997 250.2C269.265 249.892 269.526 248.755 268.519 247.925L264.724 244.46C263.717 243.63 261.821 243.195 260.553 243.502L255.626 244.965Z" fill="white"/>
<path d="M255.757 244.395C254.489 244.702 254.228 245.84 255.235 246.669L259.03 250.135C260.037 250.965 261.889 251.589 263.201 251.092L268.127 249.629C269.395 249.322 269.656 248.185 268.649 247.355L264.855 243.89C263.848 243.06 261.952 242.624 260.683 242.932L255.757 244.395Z" fill="#8CCFFF"/>
<path d="M263.216 251.897C261.948 252.204 261.687 253.341 262.694 254.171L266.489 257.637C267.496 258.466 269.391 258.902 270.66 258.594L275.542 257.321C276.811 257.013 277.072 255.876 276.065 255.046L272.27 251.581C271.263 250.751 269.367 250.316 268.099 250.623L263.216 251.897Z" fill="white"/>
<path d="M263.303 251.516C262.035 251.823 261.774 252.961 262.781 253.791L266.576 257.256C267.583 258.086 269.435 258.71 270.747 258.213L275.673 256.751C276.941 256.443 277.202 255.306 276.195 254.476L272.4 251.011C271.393 250.181 269.497 249.746 268.229 250.053L263.303 251.516Z" fill="#8CCFFF"/>
<path d="M270.952 259.059C269.684 259.366 269.423 260.504 270.43 261.334L274.225 264.799C275.232 265.629 277.128 266.064 278.396 265.756L283.322 264.294C284.59 263.986 284.852 262.849 283.844 262.019L280.05 258.554C279.043 257.724 277.147 257.289 275.879 257.596L270.952 259.059Z" fill="white"/>
<path d="M271.083 258.489C269.815 258.796 269.553 259.933 270.56 260.763L274.355 264.228C275.362 265.058 277.258 265.494 278.526 265.186L283.453 263.723C284.721 263.416 284.982 262.278 283.975 261.449L280.18 257.983C279.173 257.154 277.277 256.718 276.009 257.026L271.083 258.489Z" fill="#8CCFFF"/>
<path d="M146.9 156.946C145.632 157.253 145.371 158.39 146.378 159.22L150.173 162.685C151.18 163.515 153.032 164.14 154.344 163.643L159.27 162.18C160.538 161.873 160.8 160.735 159.792 159.906L155.998 156.44C154.991 155.611 153.095 155.175 151.827 155.483L146.9 156.946Z" fill="white"/>
<path d="M147.031 156.379C145.763 156.686 145.501 157.823 146.508 158.653L150.303 162.118C151.31 162.948 153.163 163.573 154.474 163.076L159.401 161.613C160.669 161.306 160.93 160.168 159.923 159.339L156.128 155.873C155.121 155.044 153.269 154.419 151.957 154.916L147.031 156.379Z" fill="#8CCFFF"/>
<path d="M154.491 163.875C153.223 164.183 152.961 165.32 153.968 166.15L157.763 169.615C158.77 170.445 160.666 170.88 161.934 170.573L166.861 169.11C168.129 168.802 168.39 167.665 167.383 166.835L163.588 163.37C162.581 162.54 160.685 162.105 159.417 162.412L154.491 163.875Z" fill="white"/>
<path d="M154.621 163.308C153.353 163.616 153.092 164.753 154.099 165.583L157.894 169.048C158.901 169.878 160.797 170.313 162.065 170.006L166.991 168.543C168.26 168.235 168.521 167.098 167.514 166.268L163.719 162.803C162.712 161.973 160.859 161.348 159.548 161.845L154.621 163.308Z" fill="#8CCFFF"/>
<path d="M161.848 170.95C160.58 171.258 160.318 172.395 161.326 173.225L165.12 176.69C166.127 177.52 167.98 178.145 169.291 177.648L174.028 176.141C175.296 175.834 175.558 174.696 174.551 173.867L170.756 170.401C169.749 169.571 167.853 169.136 166.585 169.444L161.848 170.95Z" fill="white"/>
<path d="M161.978 170.383C160.71 170.69 160.449 171.827 161.456 172.657L165.251 176.122C166.258 176.952 168.11 177.577 169.422 177.08L174.348 175.617C175.616 175.31 175.877 174.172 174.87 173.343L171.075 169.877C170.068 169.047 168.216 168.423 166.904 168.92L161.978 170.383Z" fill="#8CCFFF"/>
<path d="M169.437 177.885C168.168 178.192 167.907 179.33 168.914 180.16L172.666 183.814C173.673 184.644 175.525 185.269 176.837 184.772L181.763 183.309C183.031 183.002 183.292 181.864 182.285 181.035L178.49 177.569C177.483 176.739 175.588 176.304 174.319 176.612L169.437 177.885Z" fill="white"/>
<path d="M169.524 177.505C168.256 177.813 167.994 178.95 169.001 179.78L172.753 183.435C173.76 184.265 175.612 184.89 176.924 184.393L181.85 182.93C183.118 182.622 183.38 181.485 182.373 180.655L178.578 177.19C177.571 176.36 175.718 175.735 174.407 176.232L169.524 177.505Z" fill="#8CCFFF"/>
<path d="M176.983 185.004C175.715 185.311 175.454 186.448 176.461 187.278L180.256 190.743C181.263 191.573 183.115 192.198 184.427 191.701L189.353 190.238C190.621 189.931 190.882 188.793 189.875 187.964L186.08 184.498C185.073 183.669 183.221 183.044 181.909 183.541L176.983 185.004Z" fill="white"/>
<path d="M177.113 184.434C175.845 184.741 175.584 185.879 176.591 186.708L180.386 190.174C181.393 191.004 183.245 191.628 184.557 191.131L189.483 189.668C190.752 189.361 191.013 188.224 190.006 187.394L186.211 183.929C185.204 183.099 183.308 182.664 182.04 182.971L177.113 184.434Z" fill="#8CCFFF"/>
<path d="M184.763 191.975C183.494 192.282 183.233 193.42 184.24 194.249L188.035 197.715C189.042 198.544 190.938 198.98 192.206 198.672L196.9 197.355C198.168 197.048 198.429 195.911 197.422 195.081L193.627 191.616C192.62 190.786 190.767 190.161 189.456 190.658L184.763 191.975Z" fill="white"/>
<path d="M184.849 191.597C183.581 191.905 183.32 193.042 184.327 193.872L188.122 197.337C189.129 198.167 190.981 198.792 192.293 198.295L197.219 196.832C198.488 196.524 198.749 195.387 197.742 194.557L193.947 191.092C192.94 190.262 191.087 189.637 189.776 190.134L184.849 191.597Z" fill="#8CCFFF"/>
<path d="M192.309 199.095C191.041 199.403 190.78 200.54 191.787 201.37L195.538 205.025C196.545 205.855 198.441 206.29 199.709 205.982L204.636 204.519C205.904 204.212 206.165 203.075 205.158 202.245L201.363 198.78C200.356 197.95 198.504 197.325 197.192 197.822L192.309 199.095Z" fill="white"/>
<path d="M192.44 198.528C191.172 198.835 190.91 199.972 191.917 200.802L195.712 204.268C196.719 205.097 198.572 205.722 199.883 205.225L204.81 203.762C206.078 203.455 206.339 202.317 205.332 201.488L201.537 198.022C200.53 197.193 198.634 196.757 197.366 197.065L192.44 198.528Z" fill="#8CCFFF"/>
<path d="M199.899 206.027C198.63 206.335 198.369 207.472 199.376 208.302L203.171 211.767C204.178 212.597 206.031 213.222 207.342 212.725L212.269 211.262C213.537 210.954 213.798 209.817 212.791 208.987L208.996 205.522C207.989 204.692 206.137 204.067 204.825 204.564L199.899 206.027Z" fill="white"/>
<path d="M199.986 205.648C198.718 205.956 198.457 207.093 199.464 207.923L203.258 211.388C204.265 212.218 206.118 212.843 207.43 212.346L212.356 210.883C213.624 210.575 213.885 209.438 212.878 208.608L209.083 205.143C208.076 204.313 206.224 203.688 204.912 204.185L199.986 205.648Z" fill="#8CCFFF"/>
<path d="M207.634 213.19C206.366 213.498 206.105 214.635 207.112 215.465L210.907 218.93C211.914 219.76 213.766 220.385 215.078 219.888L219.771 218.571C221.039 218.263 221.3 217.126 220.293 216.296L216.499 212.831C215.492 212.001 213.596 211.566 212.327 211.873L207.634 213.19Z" fill="white"/>
<path d="M207.765 212.623C206.497 212.931 206.236 214.068 207.243 214.898L210.804 218.509C211.811 219.339 213.707 219.774 214.975 219.467L219.902 218.004C221.17 217.696 221.431 216.559 220.424 215.729L216.629 212.264C215.622 211.434 213.77 210.809 212.458 211.306L207.765 212.623Z" fill="#8CCFFF"/>
<path d="M215.224 220.121C213.956 220.428 213.695 221.566 214.702 222.395L218.497 225.861C219.504 226.69 221.356 227.315 222.668 226.818L227.594 225.355C228.863 225.048 229.124 223.911 228.117 223.081L224.322 219.616C223.315 218.786 221.462 218.161 220.151 218.658L215.224 220.121Z" fill="white"/>
<path d="M215.311 219.742C214.043 220.049 213.782 221.187 214.789 222.016L218.584 225.482C219.591 226.312 221.443 226.936 222.755 226.439L227.681 224.976C228.949 224.669 229.211 223.532 228.204 222.702L224.409 219.237C223.402 218.407 221.549 217.782 220.238 218.279L215.311 219.742Z" fill="#8CCFFF"/>
<path d="M222.771 227.243C221.503 227.55 221.242 228.687 222.249 229.517L226.044 232.982C227.051 233.812 228.903 234.437 230.215 233.94L235.141 232.477C236.409 232.17 236.671 231.032 235.664 230.203L231.869 226.737C230.862 225.907 228.966 225.472 227.887 225.823L222.771 227.243Z" fill="white"/>
<path d="M222.902 226.675C221.634 226.983 221.373 228.12 222.38 228.95L226.174 232.415C227.181 233.245 229.077 233.68 230.346 233.373L235.272 231.91C236.54 231.603 236.801 230.465 235.794 229.635L231.999 226.17C230.992 225.34 229.14 224.716 227.828 225.213L222.902 226.675Z" fill="#8CCFFF"/>
<path d="M230.361 234.172C229.092 234.48 228.831 235.617 229.838 236.447L233.633 239.912C234.64 240.742 236.493 241.367 237.804 240.87L242.731 239.407C243.999 239.099 244.26 237.962 243.253 237.132L239.458 233.667C238.451 232.837 236.555 232.402 235.287 232.709L230.361 234.172Z" fill="white"/>
<path d="M230.447 233.795C229.179 234.102 228.918 235.239 229.925 236.069L233.677 239.724C234.684 240.554 236.536 241.179 237.848 240.682L242.774 239.219C244.042 238.911 244.303 237.774 243.296 236.944L239.501 233.479C238.494 232.649 236.642 232.024 235.33 232.521L230.447 233.795Z" fill="#8CCFFF"/>
<path d="M238.097 241.34C236.829 241.647 236.568 242.784 237.575 243.614L241.37 247.079C242.377 247.909 244.229 248.534 245.541 248.037L250.467 246.574C251.735 246.267 251.996 245.129 250.989 244.3L247.194 240.834C246.187 240.004 244.335 239.38 243.023 239.877L238.097 241.34Z" fill="white"/>
<path d="M238.227 240.77C236.959 241.077 236.698 242.215 237.705 243.044L241.5 246.51C242.507 247.34 244.359 247.964 245.671 247.467L250.597 246.004C251.866 245.697 252.127 244.56 251.12 243.73L247.325 240.265C246.318 239.435 244.422 238.999 243.154 239.307L238.227 240.77Z" fill="#8CCFFF"/>
<path d="M245.686 248.27C244.418 248.577 244.157 249.715 245.164 250.544L248.959 254.01C249.966 254.84 251.862 255.275 253.13 254.967L258.056 253.504C259.324 253.197 259.585 252.06 258.578 251.23L254.783 247.765C253.776 246.935 251.881 246.499 250.612 246.807L245.686 248.27Z" fill="white"/>
<path d="M245.773 247.89C244.505 248.198 244.244 249.335 245.251 250.165L249.046 253.63C250.053 254.46 251.949 254.895 253.217 254.588L258.143 253.125C259.411 252.817 259.673 251.68 258.665 250.85L254.871 247.385C253.864 246.555 252.011 245.93 250.7 246.427L245.773 247.89Z" fill="#8CCFFF"/>
<path d="M253.233 255.39C251.965 255.698 251.704 256.835 252.711 257.665L256.506 261.13C257.513 261.96 259.365 262.585 260.677 262.088L265.603 260.625C266.871 260.317 267.132 259.18 266.125 258.35L262.331 254.885C261.324 254.055 259.471 253.43 258.159 253.927L253.233 255.39Z" fill="white"/>
<path d="M253.364 254.82C252.096 255.127 251.834 256.265 252.841 257.095L256.636 260.56C257.643 261.39 259.539 261.825 260.807 261.518L265.734 260.055C267.002 259.747 267.263 258.61 266.256 257.78L262.461 254.315C261.454 253.485 259.602 252.86 258.29 253.357L253.364 254.82Z" fill="#8CCFFF"/>
<path d="M260.823 262.316C259.555 262.624 259.293 263.761 260.3 264.591L264.095 268.056C265.102 268.886 266.998 269.321 268.266 269.014L273.193 267.551C274.461 267.243 274.722 266.106 273.715 265.276L269.92 261.811C268.913 260.981 267.061 260.356 265.749 260.853L260.823 262.316Z" fill="white"/>
<path d="M260.91 261.938C259.642 262.245 259.38 263.383 260.387 264.212L264.182 267.678C265.189 268.508 267.085 268.943 268.353 268.635L273.28 267.172C274.548 266.865 274.809 265.728 273.802 264.898L270.007 261.433C269 260.603 267.104 260.167 265.836 260.475L260.91 261.938Z" fill="#8CCFFF"/>
<path d="M137.003 160.063C135.735 160.37 135.474 161.508 136.481 162.337L140.276 165.803C141.283 166.633 143.179 167.068 144.447 166.76L149.373 165.297C150.641 164.99 150.903 163.853 149.896 163.023L146.101 159.558C145.094 158.728 143.198 158.292 141.93 158.6L137.003 160.063Z" fill="white"/>
<path d="M137.134 159.496C135.866 159.803 135.604 160.941 136.611 161.77L140.406 165.236C141.413 166.065 143.266 166.69 144.577 166.193L149.504 164.73C150.772 164.423 151.033 163.286 150.026 162.456L146.231 158.991C145.224 158.161 143.372 157.536 142.06 158.033L137.134 159.496Z" fill="#8CCFFF"/>
<path d="M144.403 166.95C143.135 167.257 142.874 168.394 143.881 169.224L147.676 172.689C148.683 173.519 150.535 174.144 151.847 173.647L156.773 172.184C158.042 171.877 158.303 170.739 157.296 169.91L153.501 166.444C152.494 165.614 150.598 165.179 149.33 165.487L144.403 166.95Z" fill="white"/>
<path d="M144.534 166.383C143.266 166.69 143.005 167.827 144.012 168.657L147.807 172.122C148.814 172.952 150.666 173.577 151.978 173.08L156.904 171.617C158.172 171.31 158.433 170.172 157.426 169.343L153.631 165.877C152.624 165.047 150.772 164.423 149.46 164.92L144.534 166.383Z" fill="#8CCFFF"/>
<path d="M151.994 173.877C150.726 174.185 150.465 175.322 151.472 176.152L155.034 179.763C156.041 180.593 157.937 181.028 159.205 180.721L164.131 179.258C165.399 178.95 165.661 177.813 164.654 176.983L160.859 173.518C159.852 172.688 157.999 172.063 156.688 172.56L151.994 173.877Z" fill="white"/>
<path d="M152.081 173.5C150.813 173.807 150.552 174.944 151.559 175.774L155.354 179.24C156.361 180.069 158.213 180.694 159.525 180.197L164.451 178.734C165.719 178.427 165.98 177.29 164.973 176.46L161.178 172.994C160.171 172.165 158.319 171.54 157.007 172.037L152.081 173.5Z" fill="#8CCFFF"/>
<path d="M159.54 181C158.272 181.307 158.01 182.444 159.017 183.274L162.812 186.74C163.819 187.569 165.672 188.194 166.983 187.697L171.91 186.234C173.178 185.927 173.439 184.79 172.432 183.96L168.637 180.494C167.63 179.665 165.778 179.04 164.466 179.537L159.54 181Z" fill="white"/>
<path d="M159.627 180.621C158.359 180.929 158.097 182.066 159.104 182.896L162.899 186.361C163.906 187.191 165.759 187.816 167.07 187.319L171.997 185.856C173.265 185.549 173.526 184.411 172.519 183.581L168.724 180.116C167.717 179.286 165.821 178.851 164.553 179.158L159.627 180.621Z" fill="#8CCFFF"/>
<path d="M167.086 188.121C165.818 188.429 165.557 189.566 166.564 190.396L170.359 193.861C171.366 194.691 173.218 195.316 174.53 194.819L179.267 193.312C180.535 193.005 180.796 191.868 179.789 191.038L175.994 187.573C174.987 186.743 173.135 186.118 171.823 186.615L167.086 188.121Z" fill="white"/>
<path d="M167.216 187.553C165.948 187.86 165.687 188.998 166.694 189.828L170.446 193.482C171.453 194.312 173.305 194.937 174.617 194.44L179.543 192.977C180.811 192.67 181.072 191.532 180.065 190.703L176.27 187.237C175.263 186.407 173.367 185.972 172.099 186.28L167.216 187.553Z" fill="#8CCFFF"/>
<path d="M174.676 195.049C173.408 195.357 173.147 196.494 174.154 197.324L177.905 200.978C178.912 201.808 180.765 202.433 182.076 201.936L187.003 200.473C188.271 200.166 188.532 199.028 187.525 198.199L183.73 194.733C182.723 193.904 180.827 193.468 179.559 193.776L174.676 195.049Z" fill="white"/>
<path d="M174.763 194.672C173.495 194.979 173.234 196.116 174.241 196.946L178.036 200.411C179.043 201.241 180.895 201.866 182.207 201.369L187.133 199.906C188.401 199.599 188.662 198.461 187.655 197.632L183.861 194.166C182.854 193.336 181.001 192.712 179.689 193.209L174.763 194.672Z" fill="#8CCFFF"/>
<path d="M182.412 202.218C181.144 202.526 180.883 203.663 181.89 204.493L185.685 207.958C186.692 208.788 188.544 209.413 189.856 208.916L194.782 207.453C196.051 207.146 196.312 206.008 195.305 205.178L191.51 201.713C190.503 200.883 188.65 200.259 187.339 200.756L182.412 202.218Z" fill="white"/>
<path d="M182.543 201.648C181.275 201.956 181.014 203.093 182.021 203.923L185.816 207.388C186.823 208.218 188.675 208.843 189.987 208.346L194.913 206.883C196.181 206.575 196.442 205.438 195.435 204.608L191.64 201.143C190.633 200.313 188.781 199.688 187.469 200.185L182.543 201.648Z" fill="#8CCFFF"/>
<path d="M190.002 209.143C188.734 209.45 188.473 210.588 189.48 211.417L193.275 214.883C194.282 215.712 196.178 216.148 197.446 215.84L202.139 214.523C203.407 214.216 203.668 213.079 202.661 212.249L198.866 208.783C197.859 207.954 196.007 207.329 194.695 207.826L190.002 209.143Z" fill="white"/>
<path d="M190.089 208.765C188.821 209.073 188.56 210.21 189.567 211.04L193.361 214.505C194.368 215.335 196.221 215.96 197.533 215.463L202.459 214C203.727 213.692 203.988 212.555 202.981 211.725L199.186 208.26C198.179 207.43 196.327 206.805 195.015 207.302L190.089 208.765Z" fill="#8CCFFF"/>
<path d="M197.548 216.269C196.279 216.577 196.018 217.714 197.025 218.544L200.82 222.009C201.827 222.839 203.68 223.464 204.991 222.967L209.918 221.504C211.186 221.196 211.447 220.059 210.44 219.229L206.645 215.764C205.638 214.934 203.786 214.309 202.474 214.806L197.548 216.269Z" fill="white"/>
<path d="M197.678 215.699C196.41 216.006 196.149 217.144 197.156 217.973L200.951 221.439C201.958 222.269 203.81 222.893 205.122 222.396L210.048 220.933C211.316 220.626 211.578 219.489 210.571 218.659L206.776 215.194C205.769 214.364 203.916 213.739 202.605 214.236L197.678 215.699Z" fill="#8CCFFF"/>
<path d="M205.327 223.238C204.059 223.545 203.798 224.683 204.805 225.513L208.6 228.978C209.607 229.808 211.459 230.433 212.771 229.935L217.697 228.473C218.966 228.165 219.227 227.028 218.22 226.198L214.425 222.733C213.418 221.903 211.565 221.278 210.254 221.775L205.327 223.238Z" fill="white"/>
<path d="M205.414 222.86C204.146 223.167 203.885 224.304 204.892 225.134L208.687 228.6C209.694 229.429 211.546 230.054 212.858 229.557L217.784 228.094C219.053 227.787 219.314 226.65 218.307 225.82L214.512 222.354C213.505 221.525 211.609 221.089 210.341 221.397L205.414 222.86Z" fill="#8CCFFF"/>
<path d="M212.874 230.36C211.606 230.667 211.345 231.804 212.352 232.634L216.147 236.1C217.154 236.929 219.006 237.554 220.318 237.057L225.244 235.594C226.513 235.287 226.774 234.15 225.767 233.32L221.972 229.854C220.965 229.025 219.069 228.589 217.801 228.897L212.874 230.36Z" fill="white"/>
<path d="M213.005 229.793C211.737 230.1 211.476 231.237 212.483 232.067L216.277 235.533C217.284 236.362 219.18 236.798 220.449 236.49L225.375 235.027C226.643 234.72 226.904 233.582 225.897 232.753L222.102 229.287C221.095 228.458 219.243 227.833 217.931 228.33L213.005 229.793Z" fill="#8CCFFF"/>
<path d="M220.463 237.289C219.195 237.597 218.934 238.734 219.941 239.564L223.736 243.029C224.743 243.859 226.639 244.294 227.907 243.987L232.834 242.524C234.102 242.216 234.363 241.079 233.356 240.249L229.561 236.784C228.554 235.954 226.658 235.519 225.39 235.826L220.463 237.289Z" fill="white"/>
<path d="M220.55 236.91C219.282 237.217 219.021 238.355 220.028 239.184L223.823 242.65C224.83 243.48 226.683 244.104 227.994 243.607L232.921 242.144C234.189 241.837 234.45 240.7 233.443 239.87L229.648 236.405C228.641 235.575 226.788 234.95 225.666 235.49L220.55 236.91Z" fill="#8CCFFF"/>
<path d="M228.01 244.41C226.742 244.717 226.48 245.855 227.487 246.684L231.282 250.15C232.289 250.98 234.142 251.604 235.453 251.107L240.38 249.644C241.648 249.337 241.909 248.2 240.902 247.37L237.107 243.905C236.1 243.075 234.248 242.45 232.936 242.947L228.01 244.41Z" fill="white"/>
<path d="M228.14 243.84C226.872 244.148 226.611 245.285 227.618 246.115L231.413 249.58C232.42 250.41 234.272 251.035 235.584 250.538L240.51 249.075C241.778 248.767 242.039 247.63 241.032 246.8L237.238 243.335C236.231 242.505 234.335 242.07 233.067 242.377L228.14 243.84Z" fill="#8CCFFF"/>
<path d="M235.789 251.383C234.521 251.69 234.26 252.827 235.267 253.657L239.062 257.122C240.069 257.952 241.921 258.577 243.233 258.08L248.159 256.617C249.427 256.31 249.689 255.172 248.682 254.343L244.887 250.877C243.88 250.047 242.027 249.423 240.716 249.92L235.789 251.383Z" fill="white"/>
<path d="M235.876 251.004C234.608 251.312 234.347 252.449 235.354 253.279L239.149 256.744C240.156 257.574 242.008 258.199 243.32 257.702L248.246 256.239C249.514 255.931 249.776 254.794 248.769 253.964L244.974 250.499C243.967 249.669 242.071 249.234 240.803 249.541L235.876 251.004Z" fill="#8CCFFF"/>
<path d="M243.336 258.504C242.068 258.812 241.807 259.949 242.814 260.779L246.609 264.244C247.616 265.074 249.469 265.699 250.591 265.158L255.517 263.695C256.785 263.388 257.046 262.25 256.039 261.421L252.244 257.955C251.237 257.126 249.385 256.501 248.073 256.998L243.336 258.504Z" fill="white"/>
<path d="M243.467 257.937C242.199 258.245 241.937 259.382 242.944 260.212L246.739 263.677C247.746 264.507 249.599 265.132 250.91 264.635L255.837 263.172C257.105 262.864 257.366 261.727 256.359 260.897L252.564 257.432C251.557 256.602 249.705 255.977 248.393 256.474L243.467 257.937Z" fill="#8CCFFF"/>
<path d="M250.926 265.433C249.658 265.741 249.396 266.878 250.403 267.708L254.198 271.173C255.205 272.003 257.101 272.438 258.369 272.131L263.296 270.668C264.564 270.36 264.825 269.223 263.818 268.393L260.023 264.928C259.016 264.098 257.164 263.473 255.852 263.97L250.926 265.433Z" fill="white"/>
<path d="M251.013 265.055C249.745 265.362 249.483 266.5 250.49 267.33L254.285 270.795C255.292 271.625 257.145 272.25 258.456 271.753L263.383 270.29C264.651 269.982 264.912 268.845 263.905 268.015L260.11 264.55C259.103 263.72 257.207 263.285 255.939 263.592L251.013 265.055Z" fill="#8CCFFF"/>
<path d="M127.107 163.179C125.839 163.487 125.578 164.624 126.585 165.454L130.38 168.919C131.387 169.749 133.239 170.374 134.551 169.877L139.477 168.414C140.745 168.106 141.006 166.969 139.999 166.139L136.205 162.674C135.198 161.844 133.345 161.219 132.033 161.716L127.107 163.179Z" fill="white"/>
<path d="M127.195 162.8C125.927 163.107 125.666 164.244 126.673 165.074L130.467 168.539C131.474 169.369 133.37 169.805 134.639 169.497L139.332 168.18C140.6 167.873 140.861 166.735 139.854 165.906L136.059 162.44C135.052 161.611 133.156 161.175 131.888 161.483L127.195 162.8Z" fill="#8CCFFF"/>
<path d="M134.508 170.065C133.24 170.372 132.979 171.509 133.986 172.339L137.781 175.804C138.788 176.634 140.64 177.259 141.952 176.762L146.645 175.445C147.913 175.138 148.174 174 147.167 173.171L143.373 169.705C142.366 168.876 140.513 168.251 139.201 168.748L134.508 170.065Z" fill="white"/>
<path d="M134.595 169.686C133.327 169.993 133.066 171.13 134.073 171.96L137.868 175.426C138.875 176.255 140.727 176.88 142.039 176.383L146.732 175.066C148 174.759 148.261 173.622 147.254 172.792L143.459 169.326C142.452 168.497 140.6 167.872 139.288 168.369L134.595 169.686Z" fill="#8CCFFF"/>
<path d="M141.864 177.14C140.596 177.448 140.335 178.585 141.342 179.415L145.137 182.88C146.144 183.71 147.996 184.335 149.308 183.838L154.234 182.375C155.502 182.067 155.764 180.93 154.757 180.1L150.962 176.635C149.955 175.805 148.102 175.18 146.791 175.677L141.864 177.14Z" fill="white"/>
<path d="M141.951 176.761C140.683 177.069 140.422 178.206 141.429 179.036L145.224 182.501C146.231 183.331 148.083 183.956 149.395 183.459L154.321 181.996C155.59 181.689 155.851 180.551 154.844 179.721L151.049 176.256C150.042 175.426 148.189 174.801 146.878 175.298L141.951 176.761Z" fill="#8CCFFF"/>
<path d="M149.601 184.304C148.333 184.612 148.071 185.749 149.079 186.579L152.873 190.044C153.88 190.874 155.733 191.499 157.044 191.002L161.971 189.539C163.239 189.231 163.5 188.094 162.493 187.264L158.698 183.799C157.691 182.969 155.839 182.344 154.527 182.841L149.601 184.304Z" fill="white"/>
<path d="M149.731 183.735C148.463 184.042 148.202 185.179 149.209 186.009L153.004 189.475C154.011 190.304 155.907 190.74 157.175 190.432L162.101 188.969C163.369 188.662 163.631 187.525 162.624 186.695L158.829 183.229C157.822 182.4 155.926 181.964 154.658 182.272L149.731 183.735Z" fill="#8CCFFF"/>
<path d="M157.19 191.234C155.922 191.542 155.661 192.679 156.668 193.509L160.463 196.974C161.47 197.804 163.322 198.429 164.634 197.932L169.56 196.469C170.828 196.161 171.089 195.024 170.082 194.194L166.287 190.729C165.28 189.899 163.428 189.274 162.116 189.771L157.19 191.234Z" fill="white"/>
<path d="M157.277 190.855C156.009 191.163 155.748 192.3 156.755 193.13L160.55 196.595C161.557 197.425 163.409 198.05 164.721 197.553L169.647 196.09C170.915 195.782 171.176 194.645 170.169 193.815L166.374 190.35C165.367 189.52 163.515 188.895 162.203 189.392L157.277 190.855Z" fill="#8CCFFF"/>
<path d="M164.737 198.357C163.469 198.664 163.208 199.802 164.215 200.632L167.966 204.286C168.973 205.116 170.869 205.552 172.137 205.244L177.063 203.781C178.332 203.474 178.593 202.336 177.586 201.507L173.791 198.041C172.784 197.211 170.931 196.587 169.62 197.084L164.737 198.357Z" fill="white"/>
<path d="M164.867 197.787C163.599 198.095 163.338 199.232 164.345 200.062L168.096 203.717C169.103 204.547 170.999 204.982 172.267 204.674L177.194 203.211C178.462 202.904 178.723 201.767 177.716 200.937L173.921 197.472C172.914 196.642 171.018 196.206 169.75 196.514L164.867 197.787Z" fill="#8CCFFF"/>
<path d="M172.326 205.285C171.058 205.593 170.797 206.73 171.804 207.56L175.599 211.025C176.606 211.855 178.458 212.48 179.77 211.983L184.696 210.52C185.964 210.213 186.226 209.075 185.219 208.245L181.424 204.78C180.417 203.95 178.521 203.515 177.253 203.823L172.326 205.285Z" fill="white"/>
<path d="M172.413 204.907C171.145 205.214 170.884 206.351 171.891 207.181L175.686 210.646C176.693 211.476 178.545 212.101 179.857 211.604L184.783 210.141C186.052 209.834 186.313 208.696 185.306 207.867L181.511 204.401C180.504 203.571 178.608 203.136 177.34 203.444L172.413 204.907Z" fill="#8CCFFF"/>
<path d="M180.062 212.45C178.794 212.757 178.533 213.894 179.54 214.724L183.335 218.189C184.342 219.019 186.238 219.455 187.506 219.147L192.433 217.684C193.701 217.377 193.962 216.239 192.955 215.41L189.16 211.944C188.153 211.114 186.257 210.679 184.989 210.987L180.062 212.45Z" fill="white"/>
<path d="M180.193 211.883C178.925 212.19 178.664 213.327 179.671 214.157L183.466 217.622C184.473 218.452 186.369 218.887 187.637 218.58L192.563 217.117C193.831 216.81 194.092 215.672 193.085 214.843L189.29 211.377C188.283 210.547 186.431 209.923 185.119 210.42L180.193 211.883Z" fill="#8CCFFF"/>
<path d="M187.652 219.379C186.384 219.686 186.123 220.823 187.13 221.653L190.925 225.118C191.932 225.948 193.784 226.573 195.096 226.076L200.022 224.613C201.29 224.306 201.551 223.168 200.544 222.339L196.749 218.873C195.742 218.044 193.89 217.419 192.578 217.916L187.652 219.379Z" fill="white"/>
<path d="M187.739 219C186.471 219.307 186.21 220.444 187.217 221.274L191.012 224.74C192.019 225.569 193.871 226.194 195.183 225.697L200.109 224.234C201.377 223.927 201.638 222.79 200.631 221.96L196.836 218.494C195.829 217.665 193.977 217.04 192.665 217.537L187.739 219Z" fill="#8CCFFF"/>
<path d="M195.199 226.5C193.931 226.807 193.669 227.944 194.676 228.774L198.471 232.24C199.478 233.069 201.374 233.505 202.642 233.197L207.569 231.734C208.837 231.427 209.098 230.29 208.091 229.46L204.296 225.994C203.289 225.165 201.437 224.54 200.125 225.037L195.199 226.5Z" fill="white"/>
<path d="M195.329 225.929C194.061 226.237 193.8 227.374 194.807 228.204L198.602 231.669C199.609 232.499 201.505 232.934 202.773 232.627L207.699 231.164C208.968 230.856 209.229 229.719 208.222 228.889L204.427 225.424C203.42 224.594 201.567 223.969 200.256 224.466L195.329 225.929Z" fill="#8CCFFF"/>
<path d="M202.978 233.473C201.71 233.78 201.449 234.918 202.456 235.748L206.251 239.213C207.258 240.043 209.11 240.667 210.422 240.17L215.348 238.708C216.617 238.4 216.878 237.263 215.871 236.433L212.076 232.968C211.069 232.138 209.173 231.703 207.905 232.01L202.978 233.473Z" fill="white"/>
<path d="M203.065 233.093C201.797 233.401 201.536 234.538 202.543 235.368L206.338 238.833C207.345 239.663 209.197 240.288 210.509 239.791L215.436 238.328C216.704 238.021 216.965 236.883 215.958 236.053L212.163 232.588C211.156 231.758 209.303 231.134 207.992 231.631L203.065 233.093Z" fill="#8CCFFF"/>
<path d="M210.524 240.59C209.256 240.898 208.995 242.035 210.002 242.865L213.797 246.33C214.804 247.16 216.657 247.785 217.968 247.288L222.895 245.825C224.163 245.517 224.424 244.38 223.417 243.55L219.622 240.085C218.615 239.255 216.719 238.82 215.451 239.127L210.524 240.59Z" fill="white"/>
<path d="M210.655 240.023C209.387 240.331 209.126 241.468 210.133 242.298L213.928 245.763C214.935 246.593 216.787 247.218 218.099 246.721L223.025 245.258C224.293 244.95 224.554 243.813 223.547 242.983L219.752 239.518C218.745 238.688 216.893 238.063 215.581 238.56L210.655 240.023Z" fill="#8CCFFF"/>
<path d="M218.114 247.524C216.846 247.831 216.584 248.969 217.592 249.798L221.386 253.264C222.393 254.093 224.246 254.718 225.557 254.221L230.484 252.758C231.752 252.451 232.013 251.314 231.006 250.484L227.211 247.018C226.204 246.189 224.308 245.753 223.04 246.061L218.114 247.524Z" fill="white"/>
<path d="M218.201 247.145C216.933 247.452 216.671 248.59 217.678 249.419L221.473 252.885C222.48 253.715 224.376 254.15 225.644 253.842L230.571 252.379C231.839 252.072 232.1 250.935 231.093 250.105L227.298 246.64C226.291 245.81 224.395 245.374 223.127 245.682L218.201 247.145Z" fill="#8CCFFF"/>
<path d="M225.661 254.646C224.393 254.954 224.131 256.091 225.138 256.921L228.89 260.576C229.897 261.405 231.793 261.841 233.061 261.533L237.987 260.07C239.255 259.763 239.516 258.625 238.509 257.796L234.715 254.33C233.708 253.501 231.855 252.876 230.544 253.373L225.661 254.646Z" fill="white"/>
<path d="M225.748 254.265C224.48 254.573 224.218 255.71 225.226 256.54L229.02 260.005C230.027 260.835 231.88 261.46 233.191 260.963L238.118 259.5C239.386 259.192 239.647 258.055 238.64 257.225L234.845 253.76C233.838 252.93 231.986 252.305 230.674 252.802L225.748 254.265Z" fill="#8CCFFF"/>
<path d="M233.44 261.617C232.172 261.924 231.911 263.062 232.918 263.891L236.713 267.357C237.72 268.187 239.572 268.811 240.884 268.314L245.811 266.851C247.079 266.544 247.34 265.407 246.333 264.577L242.538 261.112C241.531 260.282 239.678 259.657 238.367 260.154L233.44 261.617Z" fill="white"/>
<path d="M233.527 261.239C232.259 261.546 231.998 262.683 233.005 263.513L236.8 266.978C237.807 267.808 239.703 268.244 240.971 267.936L245.897 266.473C247.166 266.166 247.427 265.028 246.42 264.199L242.625 260.733C241.618 259.904 239.722 259.468 238.454 259.776L233.527 261.239Z" fill="#8CCFFF"/>
<path d="M240.986 268.739C239.718 269.046 239.457 270.183 240.464 271.013L244.259 274.478C245.266 275.308 247.118 275.933 248.43 275.436L253.356 273.973C254.624 273.666 254.885 272.528 253.878 271.699L250.084 268.233C249.077 267.404 247.181 266.968 245.912 267.276L240.986 268.739Z" fill="white"/>
<path d="M241.074 268.36C239.805 268.667 239.544 269.804 240.551 270.634L244.346 274.1C245.353 274.929 247.206 275.554 248.328 275.014L253.254 273.551C254.522 273.243 254.783 272.106 253.776 271.276L249.981 267.811C248.974 266.981 247.122 266.356 245.81 266.853L241.074 268.36Z" fill="#8CCFFF"/>
<path d="M116.848 167.012C115.58 167.32 115.319 168.457 116.326 169.287L120.121 172.752C121.128 173.582 123.024 174.017 124.292 173.71L129.218 172.247C130.486 171.939 130.747 170.802 129.74 169.972L125.946 166.507C124.939 165.677 123.043 165.242 121.775 165.549L116.848 167.012Z" fill="white"/>
<path d="M116.979 166.442C115.711 166.749 115.449 167.886 116.456 168.716L120.251 172.182C121.258 173.011 123.111 173.636 124.422 173.139L129.349 171.676C130.617 171.369 130.878 170.232 129.871 169.402L126.076 165.936C125.069 165.107 123.173 164.671 121.905 164.979L116.979 166.442Z" fill="#8CCFFF"/>
<path d="M124.438 173.941C123.17 174.249 122.908 175.386 123.915 176.216L127.71 179.681C128.717 180.511 130.613 180.946 131.881 180.639L136.808 179.176C138.076 178.868 138.337 177.731 137.33 176.901L133.535 173.436C132.528 172.606 130.676 171.981 129.364 172.478L124.438 173.941Z" fill="white"/>
<path d="M124.568 173.371C123.3 173.679 123.039 174.816 124.046 175.646L127.841 179.111C128.848 179.941 130.7 180.566 132.012 180.069L136.938 178.606C138.206 178.299 138.467 177.161 137.46 176.331L133.666 172.866C132.659 172.036 130.763 171.601 129.494 171.908L124.568 173.371Z" fill="#8CCFFF"/>
<path d="M131.795 181.015C130.526 181.323 130.265 182.46 131.272 183.29L135.067 186.755C136.074 187.585 137.97 188.02 139.238 187.713L144.165 186.25C145.433 185.942 145.694 184.805 144.687 183.975L140.892 180.51C139.885 179.68 138.033 179.055 136.721 179.552L131.795 181.015Z" fill="white"/>
<path d="M131.925 180.446C130.657 180.753 130.396 181.89 131.403 182.72L135.198 186.185C136.205 187.015 138.057 187.64 139.369 187.143L144.295 185.68C145.563 185.373 145.824 184.235 144.817 183.406L141.022 179.94C140.015 179.111 138.12 178.675 137.041 179.026L131.925 180.446Z" fill="#8CCFFF"/>
<path d="M139.385 187.949C138.117 188.256 137.856 189.394 138.863 190.223L142.658 193.689C143.665 194.519 145.517 195.143 146.829 194.646L151.755 193.183C153.023 192.876 153.284 191.739 152.277 190.909L148.482 187.444C147.475 186.614 145.623 185.989 144.311 186.486L139.385 187.949Z" fill="white"/>
<path d="M139.472 187.568C138.204 187.875 137.943 189.013 138.95 189.843L142.745 193.308C143.752 194.138 145.648 194.573 146.916 194.265L151.799 192.992C153.067 192.685 153.328 191.547 152.321 190.718L148.526 187.252C147.519 186.422 145.666 185.798 144.355 186.295L139.472 187.568Z" fill="#8CCFFF"/>
<path d="M147.12 195.113C145.852 195.42 145.591 196.558 146.598 197.388L150.392 200.853C151.399 201.683 153.295 202.118 154.564 201.81L159.49 200.348C160.758 200.04 161.019 198.903 160.012 198.073L156.217 194.608C155.21 193.778 153.358 193.153 152.046 193.65L147.12 195.113Z" fill="white"/>
<path d="M147.25 194.543C145.982 194.85 145.721 195.987 146.728 196.817L150.523 200.283C151.53 201.112 153.426 201.548 154.694 201.24L159.621 199.777C160.889 199.47 161.15 198.332 160.143 197.503L156.348 194.037C155.341 193.208 153.488 192.583 152.177 193.08L147.25 194.543Z" fill="#8CCFFF"/>
<path d="M154.71 202.039C153.442 202.346 153.181 203.484 154.188 204.313L157.983 207.779C158.99 208.608 160.842 209.233 162.154 208.736L167.081 207.273C168.349 206.966 168.61 205.829 167.603 204.999L163.808 201.533C162.801 200.704 160.948 200.079 159.637 200.576L154.71 202.039Z" fill="white"/>
<path d="M154.797 201.66C153.529 201.967 153.268 203.105 154.275 203.934L158.07 207.4C159.077 208.23 160.973 208.665 162.241 208.357L167.167 206.894C168.436 206.587 168.697 205.45 167.69 204.62L163.895 201.155C162.888 200.325 161.035 199.7 159.724 200.197L154.797 201.66Z" fill="#8CCFFF"/>
<path d="M162.256 209.164C160.988 209.471 160.727 210.609 161.734 211.438L165.529 214.904C166.536 215.733 168.388 216.358 169.7 215.861L174.626 214.398C175.895 214.091 176.156 212.954 175.149 212.124L171.354 208.658C170.347 207.829 168.494 207.204 167.183 207.701L162.256 209.164Z" fill="white"/>
<path d="M162.387 208.593C161.119 208.901 160.858 210.038 161.865 210.868L165.66 214.333C166.667 215.163 168.519 215.788 169.831 215.291L174.757 213.828C176.025 213.521 176.286 212.383 175.279 211.553L171.484 208.088C170.477 207.258 168.625 206.634 167.313 207.131L162.387 208.593Z" fill="#8CCFFF"/>
<path d="M169.847 216.09C168.579 216.397 168.318 217.534 169.325 218.364L173.12 221.829C174.127 222.659 175.979 223.284 177.291 222.787L182.217 221.324C183.485 221.017 183.746 219.879 182.739 219.05L178.944 215.584C177.937 214.754 176.085 214.13 174.963 214.67L169.847 216.09Z" fill="white"/>
<path d="M169.934 215.711C168.666 216.019 168.405 217.156 169.412 217.986L173.207 221.451C174.214 222.281 176.066 222.906 177.378 222.409L182.304 220.946C183.572 220.638 183.833 219.501 182.826 218.671L179.031 215.206C178.024 214.376 176.128 213.941 174.86 214.248L169.934 215.711Z" fill="#8CCFFF"/>
<path d="M177.582 223.254C176.314 223.562 176.053 224.699 177.06 225.529L180.854 228.994C181.861 229.824 183.714 230.449 185.026 229.952L189.952 228.489C191.22 228.181 191.481 227.044 190.474 226.214L186.679 222.749C185.672 221.919 183.776 221.484 182.508 221.791L177.582 223.254Z" fill="white"/>
<path d="M177.712 222.687C176.444 222.995 176.183 224.132 177.19 224.962L180.985 228.427C181.992 229.257 183.888 229.692 185.156 229.385L190.082 227.922C191.351 227.614 191.612 226.477 190.605 225.647L186.81 222.182C185.803 221.352 183.95 220.727 182.639 221.224L177.712 222.687Z" fill="#8CCFFF"/>
<path d="M185.172 230.188C183.904 230.495 183.643 231.633 184.65 232.462L188.445 235.928C189.452 236.758 191.304 237.382 192.616 236.885L197.542 235.422C198.81 235.115 199.071 233.978 198.064 233.148L194.27 229.683C193.263 228.853 191.367 228.417 190.098 228.725L185.172 230.188Z" fill="white"/>
<path d="M185.259 229.808C183.991 230.116 183.73 231.253 184.737 232.083L188.532 235.548C189.539 236.378 191.391 237.003 192.703 236.506L197.629 235.043C198.897 234.735 199.159 233.598 198.152 232.768L194.357 229.303C193.35 228.473 191.497 227.848 190.186 228.345L185.259 229.808Z" fill="#8CCFFF"/>
<path d="M192.718 237.304C191.45 237.612 191.189 238.749 192.196 239.579L195.991 243.044C196.998 243.874 198.85 244.499 200.162 244.002L205.088 242.539C206.356 242.231 206.618 241.094 205.611 240.264L201.816 236.799C200.809 235.969 198.956 235.344 197.645 235.841L192.718 237.304Z" fill="white"/>
<path d="M192.849 236.736C191.581 237.044 191.319 238.181 192.327 239.011L196.121 242.476C197.128 243.306 198.981 243.931 200.292 243.434L205.219 241.971C206.487 241.663 206.748 240.526 205.785 239.507L201.99 236.041C200.983 235.211 199.13 234.587 197.819 235.084L192.849 236.736Z" fill="#8CCFFF"/>
<path d="M200.309 244.235C199.04 244.542 198.779 245.679 199.786 246.509L203.581 249.975C204.588 250.804 206.441 251.429 207.752 250.932L212.679 249.469C213.947 249.162 214.208 248.025 213.201 247.195L209.406 243.729C208.399 242.9 206.503 242.464 205.235 242.772L200.309 244.235Z" fill="white"/>
<path d="M200.585 243.899C199.317 244.206 199.055 245.344 200.062 246.173L203.857 249.639C204.864 250.468 206.717 251.093 208.028 250.596L212.955 249.133C214.223 248.826 214.484 247.689 213.477 246.859L209.682 243.393C208.675 242.564 206.779 242.128 205.511 242.436L200.585 243.899Z" fill="#8CCFFF"/>
<path d="M208.044 251.398C206.775 251.706 206.514 252.843 207.521 253.673L211.316 257.138C212.323 257.968 214.176 258.593 215.487 258.096L220.414 256.633C221.682 256.325 221.943 255.188 220.936 254.358L217.141 250.893C216.134 250.063 214.282 249.438 213.16 249.979L208.044 251.398Z" fill="white"/>
<path d="M208.131 251.019C206.863 251.327 206.602 252.464 207.609 253.294L211.403 256.759C212.41 257.589 214.263 258.214 215.575 257.717L220.501 256.254C221.769 255.946 222.03 254.809 221.023 253.979L217.228 250.514C216.221 249.684 214.369 249.059 213.057 249.556L208.131 251.019Z" fill="#8CCFFF"/>
<path d="M215.634 258.332C214.366 258.639 214.105 259.776 215.112 260.606L218.907 264.072C219.914 264.901 221.766 265.526 223.078 265.029L228.004 263.566C229.272 263.259 229.534 262.122 228.527 261.292L224.732 257.826C223.725 256.997 221.872 256.372 220.561 256.869L215.634 258.332Z" fill="white"/>
<path d="M215.721 257.953C214.453 258.26 214.192 259.398 215.199 260.227L218.994 263.693C220.001 264.523 221.897 264.958 223.165 264.65L228.092 263.187C229.36 262.88 229.621 261.743 228.614 260.913L224.819 257.448C223.812 256.618 221.959 255.993 220.648 256.49L215.721 257.953Z" fill="#8CCFFF"/>
<path d="M223.18 265.449C221.912 265.756 221.651 266.894 222.658 267.723L226.453 271.189C227.46 272.019 229.312 272.643 230.624 272.146L235.55 270.683C236.818 270.376 237.079 269.239 236.072 268.409L232.277 264.944C231.27 264.114 229.418 263.489 228.106 263.986L223.18 265.449Z" fill="white"/>
<path d="M223.267 265.07C221.999 265.377 221.738 266.515 222.745 267.345L226.54 270.81C227.547 271.64 229.443 272.075 230.711 271.768L235.637 270.305C236.905 269.997 237.166 268.86 236.159 268.03L232.364 264.565C231.357 263.735 229.505 263.11 228.193 263.607L223.267 265.07Z" fill="#8CCFFF"/>
<path d="M230.916 272.614C229.648 272.921 229.387 274.058 230.394 274.888L234.189 278.353C235.196 279.183 237.048 279.808 238.36 279.311L243.286 277.848C244.555 277.541 244.816 276.403 243.809 275.574L240.014 272.108C239.007 271.279 237.111 270.843 235.843 271.151L230.916 272.614Z" fill="white"/>
<path d="M231.047 272.043C229.779 272.351 229.518 273.488 230.525 274.318L234.32 277.783C235.327 278.613 237.179 279.238 238.491 278.741L243.417 277.278C244.685 276.97 244.946 275.833 243.939 275.003L240.144 271.538C239.137 270.708 237.241 270.273 235.973 270.58L231.047 272.043Z" fill="#8CCFFF"/>
<path d="M270.157 91.2631C269.194 90.2437 268.115 90.5947 267.811 91.9216C267.506 93.2484 268.106 94.9824 269.069 96.0018C270.033 97.0211 271.111 96.6702 271.416 95.3433C271.721 94.0165 271.354 92.1365 270.157 91.2631Z" fill="#8CCFFF"/>
<path d="M106.908 170.312C105.64 170.62 105.379 171.757 106.386 172.587L110.181 176.052C111.188 176.882 113.083 177.317 114.352 177.01L119.278 175.547C120.546 175.239 120.807 174.102 119.8 173.272L116.005 169.807C114.998 168.977 113.146 168.352 111.834 168.849L106.908 170.312Z" fill="white"/>
<path d="M106.995 169.934C105.727 170.241 105.466 171.379 106.473 172.208L110.268 175.674C111.275 176.504 113.171 176.939 114.249 176.588L119.176 175.125C120.444 174.817 120.705 173.68 119.698 172.85L115.903 169.385C114.896 168.555 113.044 167.93 111.732 168.427L106.995 169.934Z" fill="#8CCFFF"/>
<path d="M114.497 177.243C113.229 177.55 112.968 178.687 113.975 179.517L117.77 182.982C118.777 183.812 120.629 184.437 121.941 183.94L126.867 182.477C128.136 182.17 128.397 181.032 127.39 180.203L123.595 176.737C122.588 175.907 120.692 175.472 119.424 175.78L114.497 177.243Z" fill="white"/>
<path d="M114.584 176.864C113.316 177.171 113.055 178.308 114.062 179.138L117.857 182.603C118.864 183.433 120.716 184.058 122.028 183.561L126.954 182.098C128.222 181.791 128.484 180.653 127.477 179.824L123.682 176.358C122.675 175.529 120.779 175.093 119.511 175.401L114.584 176.864Z" fill="#8CCFFF"/>
<path d="M121.854 184.317C120.586 184.624 120.324 185.761 121.331 186.591L125.126 190.057C126.133 190.886 128.029 191.322 129.297 191.014L134.224 189.551C135.492 189.244 135.753 188.107 134.746 187.277L130.951 183.811C129.944 182.982 128.048 182.546 126.78 182.854L121.854 184.317Z" fill="white"/>
<path d="M121.941 183.938C120.673 184.245 120.412 185.383 121.419 186.212L125.214 189.678C126.221 190.508 128.073 191.132 129.385 190.635L134.311 189.172C135.579 188.865 135.84 187.728 134.833 186.898L131.038 183.433C130.031 182.603 128.135 182.167 126.867 182.475L121.941 183.938Z" fill="#8CCFFF"/>
<path d="M129.401 191.441C128.133 191.749 127.872 192.886 128.879 193.716L132.673 197.181C133.68 198.011 135.576 198.446 136.845 198.139L141.771 196.676C143.039 196.368 143.3 195.231 142.293 194.401L138.498 190.936C137.491 190.106 135.639 189.481 134.327 189.978L129.401 191.441Z" fill="white"/>
<path d="M129.531 190.871C128.263 191.178 128.002 192.316 129.009 193.145L132.804 196.611C133.811 197.44 135.707 197.876 136.975 197.568L141.902 196.105C143.17 195.798 143.431 194.661 142.424 193.831L138.629 190.366C137.622 189.536 135.769 188.911 134.458 189.408L129.531 190.871Z" fill="#8CCFFF"/>
<path d="M136.99 198.373C135.722 198.68 135.461 199.817 136.468 200.647L140.22 204.302C141.227 205.132 143.079 205.757 144.391 205.26L149.317 203.797C150.585 203.489 150.846 202.352 149.839 201.522L146.044 198.057C145.037 197.227 143.185 196.602 141.873 197.099L136.99 198.373Z" fill="white"/>
<path d="M137.077 197.993C135.809 198.3 135.548 199.437 136.555 200.267L140.35 203.732C141.357 204.562 143.253 204.997 144.521 204.69L149.448 203.227C150.716 202.92 150.977 201.782 149.97 200.953L146.175 197.487C145.168 196.657 143.272 196.222 142.004 196.53L137.077 197.993Z" fill="#8CCFFF"/>
<path d="M213.197 268.942C211.929 269.25 211.667 270.387 212.674 271.217L216.469 274.682C217.476 275.512 219.372 275.947 220.451 275.596L225.377 274.133C226.645 273.826 226.906 272.689 225.899 271.859L222.105 268.393C221.098 267.564 219.202 267.128 217.933 267.436L213.197 268.942Z" fill="white"/>
<path d="M213.327 268.375C212.059 268.682 211.798 269.819 212.805 270.649L216.6 274.115C217.607 274.944 219.459 275.569 220.771 275.072L225.697 273.609C226.965 273.302 227.226 272.165 226.219 271.335L222.424 267.869C221.417 267.04 219.565 266.415 218.253 266.912L213.327 268.375Z" fill="#8CCFFF"/>
<path d="M147.425 205.954C144.612 206.905 144.09 209.18 146.206 211.262L175.136 238.257C177.252 240.339 181.423 241.297 184.236 240.346C187.049 239.396 187.571 237.121 185.455 235.039L156.336 208C154.219 205.918 150.238 205.004 147.425 205.954Z" fill="white"/>
<path d="M147.014 204.264C144.201 205.215 143.489 207.446 145.796 209.571L175.353 237.309C177.47 239.391 181.641 240.349 184.643 239.442C187.456 238.492 187.978 236.217 185.862 234.135L156.304 206.397C153.998 204.271 149.827 203.314 147.014 204.264Z" fill="#8CCFFF"/>
<path d="M182.778 240.609C181.51 240.917 181.248 242.054 182.255 242.884L186.05 246.349C187.057 247.179 188.953 247.614 190.221 247.307L195.148 245.844C196.416 245.536 196.677 244.399 195.67 243.569L191.686 240.06C190.679 239.23 188.826 238.606 187.515 239.103L182.778 240.609Z" fill="white"/>
<path d="M182.865 240.23C181.597 240.538 181.336 241.675 182.343 242.505L186.138 245.97C187.145 246.8 188.997 247.425 190.309 246.928L195.235 245.465C196.503 245.157 196.764 244.02 195.757 243.19L191.962 239.725C190.955 238.895 189.103 238.27 187.791 238.767L182.865 240.23Z" fill="#8CCFFF"/>
<path d="M190.325 247.731C189.057 248.038 188.795 249.176 189.802 250.005L193.597 253.471C194.604 254.3 196.457 254.925 197.768 254.428L202.695 252.965C203.963 252.658 204.224 251.521 203.217 250.691L199.422 247.226C198.415 246.396 196.519 245.96 195.251 246.268L190.325 247.731Z" fill="white"/>
<path d="M190.412 247.352C189.143 247.659 188.882 248.797 189.889 249.626L193.684 253.092C194.691 253.922 196.544 254.546 197.855 254.049L202.782 252.586C204.05 252.279 204.311 251.142 203.304 250.312L199.509 246.847C198.502 246.017 196.606 245.581 195.338 245.889L190.412 247.352Z" fill="#8CCFFF"/>
<path d="M197.914 254.66C196.646 254.967 196.385 256.105 197.392 256.934L201.187 260.4C202.194 261.23 204.09 261.665 205.358 261.357L210.284 259.894C211.552 259.587 211.813 258.45 210.806 257.62L207.011 254.155C206.004 253.325 204.152 252.7 202.84 253.197L197.914 254.66Z" fill="white"/>
<path d="M198.001 254.281C196.733 254.588 196.472 255.726 197.479 256.556L201.274 260.021C202.281 260.851 204.133 261.476 205.445 260.979L210.371 259.516C211.639 259.208 211.901 258.071 210.894 257.241L207.099 253.776C206.092 252.946 204.239 252.321 202.928 252.818L198.001 254.281Z" fill="#8CCFFF"/>
<path d="M205.65 261.824C204.382 262.131 204.121 263.269 205.128 264.098L208.923 267.564C209.93 268.394 211.782 269.018 213.094 268.521L218.02 267.058C219.289 266.751 219.55 265.614 218.543 264.784L214.748 261.319C213.741 260.489 211.888 259.864 210.577 260.361L205.65 261.824Z" fill="white"/>
<path d="M205.737 261.446C204.469 261.753 204.208 262.89 205.215 263.72L209.01 267.185C210.017 268.015 211.869 268.64 213.181 268.143L218.107 266.68C219.376 266.373 219.637 265.235 218.63 264.406L214.835 260.94C213.828 260.111 211.932 259.675 210.853 260.026L205.737 261.446Z" fill="#8CCFFF"/>
<path d="M220.787 275.875C219.518 276.182 219.257 277.319 220.264 278.149L224.059 281.615C225.066 282.444 226.919 283.069 228.23 282.572L233.157 281.109C234.425 280.802 234.686 279.665 233.679 278.835L229.884 275.369C228.877 274.54 227.025 273.915 225.713 274.412L220.787 275.875Z" fill="white"/>
<path d="M220.874 275.494C219.605 275.801 219.344 276.938 220.351 277.768L224.103 281.423C225.11 282.253 227.006 282.688 228.274 282.381L233.2 280.918C234.468 280.61 234.729 279.473 233.722 278.643L229.927 275.178C228.92 274.348 227.068 273.723 225.756 274.22L220.874 275.494Z" fill="#8CCFFF"/>
<path d="M120.289 230.256C119.634 230.504 119.547 230.883 120.028 231.393C120.51 231.903 121.268 232.077 121.924 231.828L124.927 230.921C125.583 230.673 125.67 230.294 125.188 229.784C124.706 229.274 123.948 229.1 123.292 229.349L120.289 230.256Z" fill="white"/>
<path d="M123.267 232.931C122.611 233.18 122.524 233.559 123.006 234.069C123.487 234.578 124.246 234.753 124.902 234.504L127.904 233.597C128.56 233.349 128.647 232.969 128.165 232.46C127.683 231.95 126.925 231.776 126.269 232.025L123.267 232.931Z" fill="white"/>
<path d="M126.055 235.568C125.399 235.817 125.312 236.196 125.794 236.705C126.275 237.215 127.034 237.389 127.69 237.141L130.692 236.234C131.348 235.985 131.435 235.606 130.953 235.097C130.471 234.587 129.713 234.413 129.057 234.661L126.055 235.568Z" fill="white"/>
<path d="M128.843 238.205C128.187 238.453 128.1 238.833 128.582 239.342C129.064 239.852 129.822 240.026 130.478 239.777L133.48 238.871C134.136 238.622 134.223 238.243 133.742 237.733C133.26 237.224 132.501 237.049 131.846 237.298L128.843 238.205Z" fill="white"/>
</g>
<path d="M238.432 127.959C239.525 126.573 240.866 125.414 242.379 124.548C243.895 123.679 245.552 123.116 247.262 122.888C249.037 122.649 250.832 122.775 252.546 123.258C254.951 123.931 257.107 125.27 258.786 127.13C259.187 127.575 259.556 128.044 259.892 128.536C260.434 128.289 260.993 128.08 261.567 127.908C263.967 127.189 266.505 127.162 268.91 127.835C270.642 128.319 272.224 129.133 273.619 130.259C274.967 131.345 276.084 132.677 276.933 134.212C277.779 135.736 278.325 137.423 278.538 139.176C278.759 140.999 278.62 142.83 278.121 144.616C277.65 146.3 276.827 147.962 275.67 149.563C274.701 150.9 273.478 152.227 272.031 153.507C269.739 155.533 266.817 157.496 263.354 159.347C257.614 162.415 252.292 164.155 252.068 164.223L250.697 164.668C250.09 164.864 249.431 164.679 249.014 164.197L248.072 163.105C247.917 162.926 244.274 158.684 240.954 153.082C238.953 149.704 237.474 146.509 236.565 143.588C235.992 141.743 235.63 139.973 235.5 138.329C235.341 136.359 235.5 134.512 235.971 132.827C236.465 131.041 237.297 129.403 238.432 127.959Z" fill="#6A75E0"/>
<path d="M226.639 71.2291C227.324 70.3605 228.164 69.6348 229.112 69.0926C230.061 68.5483 231.099 68.1952 232.17 68.0525C233.282 67.9028 234.407 67.9817 235.48 68.2846C236.986 68.706 238.337 69.5447 239.388 70.7097C239.64 70.9884 239.871 71.2819 240.081 71.59C240.421 71.4357 240.771 71.3047 241.13 71.1969C242.634 70.7464 244.223 70.7299 245.73 71.1512C246.815 71.4547 247.806 71.9641 248.679 72.6695C249.524 73.3496 250.223 74.1839 250.755 75.1455C251.285 76.1003 251.627 77.1566 251.76 78.2546C251.899 79.3966 251.812 80.5438 251.499 81.662C251.204 82.7168 250.689 83.7579 249.964 84.7607C249.357 85.5986 248.591 86.4294 247.684 87.2313C246.249 88.5 244.419 89.73 242.249 90.8891C238.654 92.8107 235.321 93.9005 235.181 93.9432L234.322 94.2221C233.941 94.3446 233.529 94.2292 233.267 93.9272L232.678 93.2432C232.581 93.1306 230.299 90.4739 228.219 86.9652C226.966 84.8489 226.039 82.8479 225.47 81.0186C225.111 79.8629 224.884 78.7542 224.803 77.7241C224.703 76.4905 224.803 75.3332 225.098 74.2783C225.407 73.1593 225.928 72.1335 226.639 71.2291Z" fill="#8AFCBF"/>
<path d="M297.745 49.3379C298.1 48.2905 298.649 47.326 299.362 46.4983C300.075 45.6682 300.936 44.9886 301.898 44.4963C302.895 43.9842 303.982 43.6829 305.094 43.6099C306.655 43.5039 308.208 43.8435 309.588 44.5905C309.919 44.7691 310.234 44.9686 310.536 45.1888C310.804 44.9299 311.09 44.6896 311.393 44.4679C312.66 43.5412 314.152 42.9947 315.713 42.8887C316.837 42.8124 317.941 42.9615 319.001 43.3347C320.024 43.6938 320.961 44.2466 321.784 44.9754C322.602 45.6982 323.277 46.5798 323.77 47.5702C324.282 48.6003 324.583 49.7106 324.662 50.8691C324.736 51.9619 324.598 53.1152 324.249 54.3027C323.957 55.2951 323.513 56.3341 322.926 57.3927C321.997 59.0679 320.682 60.8386 319.025 62.6556C316.278 65.6676 313.5 67.8079 313.382 67.8951L312.665 68.4449C312.348 68.6873 311.92 68.7163 311.573 68.519L310.789 68.0712C310.66 67.9975 307.622 66.2555 304.489 63.6429C302.601 62.0667 301.06 60.49 299.912 58.9558C299.188 57.9863 298.604 57.0171 298.183 56.0731C297.677 54.9437 297.385 53.8196 297.31 52.7268C297.229 51.5686 297.377 50.4277 297.745 49.3379Z" fill="#8CCFFF"/>
<path d="M287.944 24.673C288.285 24.1555 288.72 23.7105 289.223 23.3628C289.728 23.0139 290.291 22.7675 290.882 22.6371C291.496 22.501 292.128 22.4918 292.742 22.6102C293.603 22.7742 294.397 23.1787 295.039 23.7796C295.193 23.9234 295.336 24.0763 295.468 24.2385C295.65 24.1362 295.839 24.0465 296.035 23.9693C296.853 23.6465 297.74 23.5621 298.602 23.7261C299.222 23.8442 299.8 24.0818 300.321 24.4345C300.825 24.7744 301.255 25.2072 301.597 25.7191C301.939 26.2272 302.179 26.801 302.306 27.4079C302.437 28.0391 302.443 28.6839 302.321 29.3232C302.207 29.9263 301.968 30.5321 301.61 31.1265C301.311 31.6232 300.923 32.1234 300.454 32.6142C299.713 33.3906 298.749 34.1642 297.592 34.9142C295.675 36.1575 293.865 36.9239 293.789 36.9544L293.322 37.1508C293.116 37.2372 292.88 37.1923 292.72 37.036L292.358 36.6819C292.298 36.6236 290.898 35.2479 289.571 33.3867C288.77 32.2641 288.158 31.1904 287.754 30.1957C287.499 29.5672 287.32 28.9588 287.226 28.3873C287.111 27.703 287.112 27.052 287.227 26.4489C287.347 25.8093 287.589 25.2117 287.944 24.673Z" fill="#6A75E0"/>
<defs>
<filter id="filter0_d" x="-20" y="-21" width="410.897" height="419.901" filterUnits="userSpaceOnUse" color-interpolation-filters="sRGB">
<feFlood flood-opacity="0" result="BackgroundImageFix"/>
<feColorMatrix in="SourceAlpha" type="matrix" values="0 0 0 0 0 0 0 0 0 0 0 0 0 0 0 0 0 0 127 0"/>
<feOffset dx="-15" dy="24"/>
<feGaussianBlur stdDeviation="22.5"/>
<feColorMatrix type="matrix" values="0 0 0 0 0.470588 0 0 0 0 0.803922 0 0 0 0 0.992157 0 0 0 0.42 0"/>
<feBlend mode="normal" in2="BackgroundImageFix" result="effect1_dropShadow"/>
<feBlend mode="normal" in="SourceGraphic" in2="effect1_dropShadow" result="shape"/>
</filter>
<clipPath id="clip0">
<rect width="265.529" height="277.521" fill="white" transform="matrix(-0.974642 -0.223771 -0.223771 0.974642 360.897 59.418)"/>
</clipPath>
</defs>
</svg>
