<svg width="22" height="22" viewBox="0 0 22 22" fill="none" xmlns="http://www.w3.org/2000/svg">
<path d="M11 12C10.7348 12 10.4804 11.8946 10.2929 11.7071C10.1054 11.5196 10 11.2652 10 11V1C10 0.734784 10.1054 0.48043 10.2929 0.292893C10.4804 0.105357 10.7348 0 11 0C11.2652 0 11.5196 0.105357 11.7071 0.292893C11.8946 0.48043 12 0.734784 12 1V11C12 11.2652 11.8946 11.5196 11.7071 11.7071C11.5196 11.8946 11.2652 12 11 12Z" fill="white"/>
<path d="M11 21.9993C8.84994 22.0052 6.75525 21.3179 5.02657 20.0395C3.2979 18.7611 2.0273 16.9595 1.4032 14.902C0.779111 12.8445 0.834767 10.6407 1.56192 8.61733C2.28906 6.59397 3.64898 4.85885 5.43998 3.6693C5.54898 3.59576 5.6714 3.54441 5.80024 3.51818C5.92908 3.49195 6.06183 3.49135 6.1909 3.51642C6.31998 3.54149 6.44285 3.59174 6.5525 3.6643C6.66215 3.73686 6.75644 3.8303 6.82998 3.9393C6.90352 4.0483 6.95488 4.17071 6.98111 4.29955C7.00734 4.4284 7.00793 4.56115 6.98286 4.69022C6.95779 4.81929 6.90754 4.94216 6.83498 5.05182C6.76243 5.16147 6.66898 5.25576 6.55998 5.3293C5.1319 6.2821 4.0482 7.66901 3.46902 9.28511C2.88983 10.9012 2.84588 12.6608 3.34367 14.3038C3.84145 15.9468 4.85456 17.386 6.23329 18.4089C7.61202 19.4319 9.28323 19.9841 11 19.9841C12.7167 19.9841 14.3879 19.4319 15.7667 18.4089C17.1454 17.386 18.1585 15.9468 18.6563 14.3038C19.1541 12.6608 19.1101 10.9012 18.5309 9.28511C17.9518 7.66901 16.8681 6.2821 15.44 5.3293C15.2199 5.18078 15.0677 4.95089 15.0171 4.69022C14.9665 4.42954 15.0215 4.15943 15.17 3.9393C15.3185 3.71917 15.5484 3.56706 15.8091 3.51642C16.0697 3.46579 16.3399 3.52078 16.56 3.6693C18.351 4.85885 19.7109 6.59397 20.4381 8.61733C21.1652 10.6407 21.2209 12.8445 20.5968 14.902C19.9727 16.9595 18.7021 18.7611 16.9734 20.0395C15.2447 21.3179 13.15 22.0052 11 21.9993V21.9993Z" fill="white"/>
</svg>
