<svg width="40" height="41" viewBox="0 0 40 41" fill="none" xmlns="http://www.w3.org/2000/svg">
<path d="M0 20.5C0 24.5545 1.17298 28.518 3.37061 31.8892C5.56823 35.2604 8.69181 37.8879 12.3463 39.4395C16.0009 40.9911 20.0222 41.3971 23.9018 40.6061C27.7814 39.8151 31.3451 37.8627 34.1421 34.9957C36.9392 32.1287 38.844 28.476 39.6157 24.4993C40.3874 20.5227 39.9913 16.4009 38.4776 12.655C36.9638 8.9091 34.4004 5.70744 31.1114 3.45487C27.8224 1.2023 23.9556 0 20 0C14.6957 0 9.60859 2.15981 5.85786 6.00431C2.10714 9.8488 0 15.0631 0 20.5ZM8.57143 19.0357H25.9286L17.9571 10.8255L20 8.78571L31.4286 20.5L20 32.2143L17.9571 30.1247L25.9286 21.9643H8.57143V19.0357Z" fill="#6A75E0"/>
</svg>
