<svg width="40" height="37" viewBox="0 0 40 37" fill="none" xmlns="http://www.w3.org/2000/svg">
<path d="M35.6871 4.32751L35.6863 4.32672C34.6565 3.28437 33.444 2.45769 32.1155 1.89013L32.1142 1.88957C30.7362 1.29855 29.2595 0.99649 27.7694 1.00003L27.7671 1.00004C25.6739 1.00003 23.6315 1.59161 21.8549 2.71068L21.8548 2.7107C21.4297 2.97848 21.0263 3.27227 20.6444 3.59215L20.0023 4.12988L19.3602 3.59215C18.9783 3.27227 18.5749 2.97848 18.1497 2.7107L18.1497 2.71068C16.3731 1.59161 14.3306 1.00003 12.2375 1.00003C10.7282 1.00003 9.26963 1.29802 7.8904 1.88958L7.8893 1.89005C6.55594 2.46004 5.35325 3.28004 4.31796 4.32702L4.31662 4.32838C3.28827 5.36438 2.46515 6.60037 1.89537 7.96712L35.6871 4.32751ZM35.6871 4.32751C36.7144 5.36499 37.5376 6.60097 38.1092 7.96712L35.6871 4.32751ZM10.0614 28.2671L10.0615 28.2672C12.1757 30.2831 14.2833 31.9907 15.8864 33.2093C16.6872 33.818 17.3602 34.3033 17.8426 34.6424C18.0838 34.812 18.2771 34.9448 18.4146 35.0381C18.4834 35.0848 18.5379 35.1214 18.5772 35.1475L18.6238 35.1784C18.6341 35.1851 18.639 35.1883 18.6401 35.189L18.6402 35.1891L18.6482 35.1941L18.6561 35.1993L19.7515 35.9247C19.7515 35.9247 19.7515 35.9247 19.7515 35.9248C19.9036 36.0249 20.0955 36.0251 20.2477 35.9253C20.2479 35.9251 20.2482 35.9249 20.2485 35.9247L21.3439 35.1993L21.3441 35.1992C21.5046 35.093 25.6992 32.3051 29.9385 28.2671H10.0614ZM10.0614 28.2671C7.50948 25.8345 5.47653 23.4555 4.01057 21.1989L10.0614 28.2671ZM38.1215 17.0476L38.1223 17.0453C38.7113 15.455 39 13.9136 39 12.4541V12.4513C39.0042 10.8977 38.702 9.38999 38.1097 7.96829L38.1215 17.0476ZM38.1215 17.0476C37.6333 18.3751 36.9156 19.7713 35.9897 21.1984C34.5238 23.4551 32.4908 25.8341 29.9388 28.2668L38.1215 17.0476ZM1 12.4541C1 10.8982 1.30269 9.38919 1.89534 7.96719L1.87749 17.0448C1.28858 15.4547 1 13.9135 1 12.4541ZM4.01049 21.1988C3.08572 19.7734 2.37146 18.3762 1.87767 17.0453L4.01049 21.1988Z" fill="white" stroke="#6A75E0" stroke-width="2"/>
</svg>
