<svg width="375" height="391" viewBox="0 0 375 391" fill="none" xmlns="http://www.w3.org/2000/svg">
<path d="M291.653 322.18C286.769 320.128 313.887 310.525 313.887 310.525L343.012 185.697L349.252 183.871L319.974 309.362C319.974 309.362 319.873 309.805 319.449 310.638L319.398 310.859C318.245 313.853 314.8 320.744 307.302 322.979C306.758 323.32 306.265 323.44 305.772 323.559L182.76 361.423L184.232 355.011L291.653 322.18Z" fill="#F1F9FF"/>
<path d="M338.726 171.907L344.966 170.081C344.966 170.081 203.591 38.4622 200.68 35.9316C197.547 33.3502 190.44 35.9084 190.44 35.9084L338.726 171.907Z" fill="#A3D8FF"/>
<path d="M343.418 183.926C343.52 183.484 343.451 182.77 343.331 182.277C343.331 182.277 343.331 182.277 343.382 182.056C343.313 181.342 343.194 180.849 343.125 180.135C343.056 179.42 342.936 178.927 342.646 178.163C342.527 177.67 342.237 176.905 342.117 176.412C342.117 176.412 342.117 176.412 342.168 176.191C342.048 175.698 341.707 175.154 341.367 174.61L341.196 174.338C341.026 174.066 340.685 173.522 340.514 173.251C340.344 172.979 340.344 172.979 340.174 172.707C339.833 172.163 339.441 171.84 339.05 171.518L345.29 169.691C345.681 170.014 346.022 170.558 346.414 170.881C346.635 170.931 346.584 171.152 346.754 171.424C346.925 171.696 347.095 171.968 347.316 172.019L347.487 172.291L347.657 172.563L347.828 172.835C347.998 173.107 348.168 173.378 348.339 173.65L348.509 173.922C348.509 173.922 348.509 173.922 348.458 174.143L348.629 174.415C348.799 174.687 348.749 174.908 348.919 175.18C348.545 175.793 348.716 176.065 348.886 176.336C348.835 176.558 349.057 176.608 349.006 176.829C348.955 177.051 349.126 177.322 349.075 177.544C349.024 177.765 349.194 178.037 349.144 178.258C349.093 178.479 349.263 178.751 349.213 178.972C349.162 179.193 349.332 179.465 349.281 179.686C349.231 179.907 349.231 179.907 349.18 180.128C349.18 180.128 349.18 180.128 349.129 180.349L349.078 180.57C349.028 180.792 349.198 181.063 349.096 181.506C349.046 181.727 349.046 181.727 348.995 181.948L348.944 182.169L348.893 182.39C348.792 182.832 348.69 183.275 348.589 183.717L342.349 185.543C342.45 185.101 342.603 184.437 342.483 183.944C343.418 183.926 343.418 183.926 343.418 183.926Z" fill="#8CCFFF"/>
<path d="M194.491 37.5436C191.018 34.4185 187.515 35.4765 186.5 39.8988L157.222 165.39C156.207 169.812 158.034 176.051 161.507 179.176L305.964 313.597C309.438 316.722 312.94 315.664 313.956 311.242L343.012 185.7C344.027 181.278 342.2 175.039 338.727 171.914L194.491 37.5436Z" fill="#D6EEFF"/>
<path d="M195.744 62.4965C192.663 59.694 189.653 60.6325 188.739 64.6126L168.11 153.45C167.196 157.43 168.734 162.904 171.815 165.706L303.996 288.696C307.078 291.499 310.087 290.56 311.001 286.58L331.681 197.522C332.595 193.542 330.836 188.017 327.976 185.265L195.744 62.4965Z" fill="white"/>
<path d="M188.196 64.9592C188.957 61.6425 191.303 60.5517 193.584 61.7736C193.533 61.9947 193.432 62.4369 193.381 62.6581L172.752 151.495C171.838 155.475 173.375 160.949 176.457 163.752L308.637 286.742C309.199 287.336 309.591 287.659 310.254 287.811C309.051 291.026 306.143 291.523 303.452 289.043L171.493 166.103C168.411 163.301 166.874 157.827 167.788 153.847L188.196 64.9592Z" fill="#8CCFFF"/>
<path d="M24.6315 214.549C24.7511 215.042 24.7004 215.263 24.82 215.756C24.82 215.756 24.7692 215.977 24.9904 216.028C25.1608 216.299 25.2804 216.792 25.672 217.115C25.8424 217.387 26.0128 217.659 26.234 217.71C26.4044 217.982 26.6255 218.032 26.7959 218.304L25.3237 224.717C25.3237 224.717 25.3237 224.717 25.1026 224.666C24.9322 224.394 24.711 224.343 24.7618 224.122C24.5914 223.85 24.421 223.578 24.1998 223.527C24.0294 223.256 23.859 222.984 23.6886 222.712L23.7393 222.491C23.7393 222.491 23.7393 222.491 23.7901 222.27L23.6197 221.998C23.4493 221.726 23.5001 221.505 23.5508 221.284C23.5508 221.284 23.5508 221.284 23.6016 221.062C23.6524 220.841 23.6524 220.841 23.7031 220.62C23.7539 220.399 23.8047 220.178 23.8554 219.957L25.2769 213.766C24.7838 213.885 24.733 214.106 24.6315 214.549Z" fill="#8CCFFF"/>
<path d="M26.796 218.306L25.3745 224.498L168.164 358.07L169.585 351.879L26.796 218.306Z" fill="#D6EEFF"/>
<path d="M169.585 351.879C170.147 352.474 170.759 352.847 171.372 353.221C171.593 353.271 171.764 353.543 172.206 353.645C172.648 353.746 172.819 354.018 173.261 354.12C173.703 354.221 174.095 354.544 174.537 354.646L174.758 354.696C175.422 354.849 175.864 354.95 176.528 355.103L176.749 355.153C177.412 355.306 177.855 355.407 178.518 355.56L178.74 355.61C179.403 355.763 179.896 355.643 180.56 355.795L180.781 355.846C181.274 355.727 181.716 355.828 182.209 355.709L182.431 355.759C182.924 355.64 183.638 355.571 184.131 355.452L182.659 361.864C182.166 361.983 181.673 362.103 180.958 362.172L180.737 362.121C180.465 362.291 180.023 362.19 179.802 362.139C179.581 362.088 179.359 362.037 179.309 362.259L179.087 362.208L178.866 362.157C178.424 362.055 178.152 362.226 177.71 362.124C177.488 362.073 177.488 362.073 177.267 362.023L177.046 361.972C176.825 361.921 176.825 361.921 176.604 361.87C176.161 361.769 175.94 361.718 175.498 361.616L175.277 361.566L175.056 361.515C174.834 361.464 174.834 361.464 174.613 361.413C174.171 361.312 173.95 361.261 173.507 361.159C173.507 361.159 173.507 361.159 173.286 361.109L173.065 361.058C172.844 361.007 172.402 360.906 172.231 360.634C172.01 360.583 172.01 360.583 171.789 360.532C171.346 360.431 171.176 360.159 170.734 360.057C170.513 360.006 170.291 359.955 170.342 359.734L170.121 359.684C169.508 359.31 168.896 358.937 168.334 358.342L169.585 351.879Z" fill="#8CCFFF"/>
<path d="M28.7243 209.903C24.1848 211.421 23.3218 215.18 26.7952 218.305L169.584 351.878C173.007 355.224 179.642 356.748 184.182 355.229L307.414 317.416C311.954 315.898 312.817 312.139 309.343 309.014L166.554 175.441C163.132 172.095 156.497 170.572 151.957 172.09L28.7243 209.903Z" fill="#A3D8FF"/>
<path d="M75.8264 200.47C71.5589 201.818 70.7466 205.356 73.9988 208.43L208.768 334.342C212.02 337.417 218.213 338.839 222.481 337.491L285.678 317.783C289.945 316.435 290.758 312.898 287.505 309.823L152.736 183.911C149.484 180.837 143.291 179.415 139.024 180.763L75.8264 200.47Z" fill="#F1F9FF"/>
<g opacity="0.2">
<path opacity="0.2" d="M99.8423 258.121C94.0954 259.828 93.0293 264.471 97.4562 268.514L114.892 284.854C119.098 288.845 127.281 290.724 132.807 288.967L137.839 287.329C143.586 285.622 144.652 280.979 140.225 276.936L122.79 260.597C118.584 256.605 110.401 254.726 104.875 256.483L99.8423 258.121Z" fill="#8DD0FF"/>
</g>
<path d="M101.067 258.872C96.0857 260.288 95.1211 264.49 98.9861 267.937L116.371 284.498C120.015 287.896 127.092 289.52 132.074 288.104L136.563 286.807C141.545 285.39 142.509 281.189 138.644 277.741L121.259 261.18C117.394 257.732 110.538 256.158 105.556 257.575L101.067 258.872Z" fill="#D6EEFF"/>
<path d="M136.461 184.827C134.982 185.186 134.677 186.513 135.852 187.481L140.279 191.523C141.453 192.491 143.665 192.999 145.144 192.64L150.891 190.934C152.371 190.575 152.675 189.248 151.5 188.28L147.074 184.238C145.899 183.27 143.687 182.762 142.208 183.121L136.461 184.827Z" fill="white"/>
<path d="M136.563 184.387C135.083 184.746 134.779 186.073 135.954 187.041L140.109 191.253C141.283 192.221 143.444 192.95 144.974 192.371L150.721 190.664C152.2 190.305 152.505 188.979 151.33 188.011L146.903 183.968C145.729 183 143.568 182.271 142.038 182.851L136.563 184.387Z" fill="#8CCFFF"/>
<path d="M145.093 192.862C143.614 193.221 143.31 194.548 144.484 195.516L148.911 199.558C150.086 200.526 152.247 201.255 153.777 200.675L159.524 198.969C161.003 198.61 161.308 197.283 160.133 196.315L155.706 192.273C154.531 191.305 152.37 190.576 151.061 191.207L145.093 192.862Z" fill="white"/>
<path d="M145.195 192.421C143.715 192.78 143.411 194.106 144.585 195.074L149.012 199.117C150.187 200.085 152.348 200.814 153.878 200.234L159.625 198.527C161.104 198.169 161.409 196.842 160.234 195.874L155.807 191.832C154.632 190.864 152.421 190.356 150.941 190.714L145.195 192.421Z" fill="#8CCFFF"/>
<path d="M153.675 201.114C152.196 201.473 151.891 202.799 153.066 203.767L157.442 208.031C158.617 208.999 160.778 209.728 162.308 209.148L168.055 207.441C169.534 207.083 169.839 205.756 168.664 204.788L164.237 200.746C163.062 199.778 160.901 199.049 159.371 199.628L153.675 201.114Z" fill="white"/>
<path d="M153.777 200.672C152.298 201.031 151.993 202.358 153.168 203.326L157.544 207.589C158.719 208.557 160.88 209.286 162.41 208.706L168.156 207C169.636 206.641 169.94 205.315 168.766 204.347L164.339 200.304C163.164 199.336 161.003 198.607 159.473 199.187L153.777 200.672Z" fill="#8CCFFF"/>
<path d="M162.479 209.425C161 209.784 160.695 211.11 161.87 212.078L166.297 216.121C167.472 217.089 169.633 217.818 171.163 217.238L176.91 215.531C178.389 215.173 178.694 213.846 177.519 212.878L173.092 208.835C171.917 207.867 169.706 207.36 168.226 207.718L162.479 209.425Z" fill="white"/>
<path d="M162.632 208.761C161.152 209.119 160.848 210.446 162.023 211.414L166.449 215.457C167.624 216.425 169.785 217.153 171.315 216.574L177.062 214.867C178.541 214.508 178.846 213.182 177.671 212.214L173.244 208.171C172.07 207.203 169.909 206.474 168.379 207.054L162.632 208.761Z" fill="#8CCFFF"/>
<path d="M171.553 217.554C170.074 217.912 169.769 219.239 170.944 220.207L175.371 224.249C176.546 225.217 178.706 225.946 180.237 225.367L185.983 223.66C187.463 223.301 187.767 221.975 186.593 221.007L182.166 216.964C180.991 215.996 178.83 215.267 177.3 215.847L171.553 217.554Z" fill="white"/>
<path d="M171.654 217.112C170.175 217.471 169.871 218.798 171.045 219.766L175.472 223.808C176.647 224.776 178.808 225.505 180.338 224.925L186.085 223.219C187.564 222.86 187.869 221.533 186.694 220.565L182.267 216.523C181.092 215.555 178.931 214.826 177.401 215.406L171.654 217.112Z" fill="#8CCFFF"/>
<path d="M180.357 225.87C178.878 226.229 178.573 227.555 179.748 228.523L184.175 232.566C185.349 233.534 187.561 234.042 189.04 233.683L194.787 231.976C196.267 231.618 196.571 230.291 195.396 229.323L190.969 225.281C189.795 224.313 187.634 223.584 186.104 224.164L180.357 225.87Z" fill="white"/>
<path d="M180.509 225.202C179.03 225.561 178.725 226.887 179.9 227.856L184.327 231.898C185.501 232.866 187.662 233.595 189.192 233.015L194.939 231.308C196.418 230.95 196.723 229.623 195.548 228.655L191.121 224.613C189.947 223.645 187.786 222.916 186.256 223.496L180.509 225.202Z" fill="#8CCFFF"/>
<path d="M189.211 233.952C187.731 234.311 187.427 235.638 188.601 236.606L193.028 240.648C194.203 241.616 196.364 242.345 197.894 241.765L203.641 240.058C205.12 239.7 205.425 238.373 204.25 237.405L199.823 233.363C198.649 232.395 196.488 231.666 194.957 232.246L189.211 233.952Z" fill="white"/>
<path d="M189.312 233.507C187.833 233.866 187.528 235.192 188.703 236.16L193.13 240.203C194.305 241.171 196.465 241.9 197.996 241.32L203.742 239.613C205.222 239.254 205.526 237.928 204.352 236.96L199.925 232.917C198.75 231.949 196.589 231.22 195.059 231.8L189.312 233.507Z" fill="#8CCFFF"/>
<path d="M198.235 242.308C196.756 242.666 196.451 243.993 197.626 244.961L202.053 249.003C203.227 249.971 205.439 250.479 206.918 250.12L212.665 248.414C214.144 248.055 214.449 246.729 213.274 245.761L208.847 241.718C207.673 240.75 205.512 240.021 203.982 240.601L198.235 242.308Z" fill="white"/>
<path d="M198.387 241.644C196.908 242.002 196.603 243.329 197.778 244.297L202.205 248.339C203.38 249.307 205.591 249.815 207.071 249.456L212.817 247.75C214.297 247.391 214.601 246.065 213.427 245.097L209 241.054C207.825 240.086 205.664 239.357 204.134 239.937L198.387 241.644Z" fill="#8CCFFF"/>
<path d="M207.088 250.386C205.609 250.744 205.304 252.071 206.479 253.039L210.906 257.082C212.081 258.05 214.242 258.778 215.772 258.199L221.519 256.492C222.998 256.133 223.302 254.807 222.128 253.839L217.701 249.796C216.526 248.828 214.365 248.099 212.835 248.679L207.088 250.386Z" fill="white"/>
<path d="M207.19 249.944C205.711 250.303 205.406 251.63 206.581 252.598L211.008 256.64C212.182 257.608 214.394 258.116 215.873 257.757L221.62 256.051C223.1 255.692 223.404 254.365 222.23 253.397L217.803 249.355C216.628 248.387 214.467 247.658 212.937 248.238L207.19 249.944Z" fill="#8CCFFF"/>
<path d="M215.892 258.698C214.412 259.057 214.108 260.384 215.283 261.352L219.71 265.394C220.884 266.362 223.045 267.091 224.575 266.511L230.322 264.805C231.801 264.446 232.106 263.119 230.931 262.151L226.504 258.109C225.33 257.141 223.169 256.412 221.639 256.992L215.892 258.698Z" fill="white"/>
<path d="M216.043 258.034C214.564 258.393 214.259 259.72 215.434 260.688L219.861 264.73C221.036 265.698 223.197 266.427 224.727 265.847L230.474 264.141C231.953 263.782 232.258 262.455 231.083 261.487L226.656 257.445C225.481 256.477 223.32 255.748 221.79 256.328L216.043 258.034Z" fill="#8CCFFF"/>
<path d="M224.746 266.782C223.266 267.14 222.962 268.467 224.136 269.435L228.513 273.699C229.687 274.667 231.848 275.396 233.378 274.816L239.125 273.109C240.604 272.751 240.909 271.424 239.734 270.456L235.307 266.414C234.133 265.445 231.972 264.717 230.442 265.296L224.746 266.782Z" fill="white"/>
<path d="M224.847 266.34C223.368 266.699 223.063 268.026 224.238 268.994L228.614 273.257C229.789 274.225 231.949 274.954 233.48 274.374L239.226 272.668C240.706 272.309 241.01 270.983 239.836 270.014L235.409 265.972C234.234 265.004 232.073 264.275 230.543 264.855L224.847 266.34Z" fill="#8CCFFF"/>
<path d="M233.77 275.14C232.29 275.498 231.986 276.825 233.161 277.793L237.587 281.835C238.762 282.803 240.974 283.311 242.453 282.953L248.2 281.246C249.679 280.887 249.984 279.561 248.809 278.593L244.382 274.55C243.208 273.582 241.047 272.853 239.517 273.433L233.77 275.14Z" fill="white"/>
<path d="M233.922 274.476C232.443 274.834 232.138 276.161 233.313 277.129L237.74 281.171C238.915 282.139 241.126 282.647 242.606 282.288L248.352 280.582C249.832 280.223 250.136 278.897 248.962 277.929L244.535 273.886C243.36 272.918 241.199 272.189 239.669 272.769L233.922 274.476Z" fill="#8CCFFF"/>
<path d="M242.623 283.226C241.144 283.584 240.839 284.911 242.014 285.879L246.441 289.921C247.616 290.889 249.777 291.618 251.307 291.039L257.053 289.332C258.533 288.973 258.837 287.647 257.663 286.679L253.236 282.636C252.061 281.668 249.849 281.16 248.37 281.519L242.623 283.226Z" fill="white"/>
<path d="M242.725 282.78C241.245 283.139 240.941 284.466 242.116 285.434L246.542 289.476C247.717 290.444 249.878 291.173 251.408 290.593L257.155 288.887C258.634 288.528 258.939 287.201 257.764 286.233L253.337 282.191C252.163 281.223 249.951 280.715 248.472 281.074L242.725 282.78Z" fill="#8CCFFF"/>
<path d="M251.427 291.534C249.948 291.893 249.643 293.22 250.818 294.188L255.245 298.23C256.42 299.198 258.581 299.927 260.111 299.347L265.857 297.641C267.337 297.282 267.641 295.955 266.467 294.987L262.04 290.945C260.865 289.977 258.653 289.469 257.174 289.828L251.427 291.534Z" fill="white"/>
<path d="M251.579 290.866C250.1 291.225 249.795 292.552 250.97 293.52L255.397 297.562C256.572 298.53 258.733 299.259 260.263 298.679L266.01 296.973C267.489 296.614 267.793 295.287 266.619 294.319L262.192 290.277C261.017 289.309 258.805 288.801 257.326 289.16L251.579 290.866Z" fill="#8CCFFF"/>
<path d="M260.28 299.618C258.801 299.977 258.496 301.303 259.671 302.271L264.098 306.314C265.273 307.282 267.484 307.789 268.964 307.431L274.66 305.945C276.139 305.587 276.444 304.26 275.269 303.292L270.842 299.25C269.667 298.282 267.456 297.774 265.976 298.132L260.28 299.618Z" fill="white"/>
<path d="M260.382 299.171C258.902 299.53 258.598 300.856 259.773 301.824L264.199 305.867C265.374 306.835 267.535 307.564 269.065 306.984L274.812 305.277C276.291 304.919 276.596 303.592 275.421 302.624L270.994 298.582C269.82 297.614 267.608 297.106 266.129 297.464L260.382 299.171Z" fill="#8CCFFF"/>
<path d="M269.305 307.972C267.826 308.33 267.521 309.657 268.696 310.625L273.123 314.668C274.297 315.636 276.509 316.143 277.988 315.785L283.735 314.078C285.215 313.719 285.519 312.393 284.344 311.425L279.918 307.382C278.743 306.414 276.531 305.907 275.052 306.265L269.305 307.972Z" fill="white"/>
<path d="M269.457 307.308C267.977 307.666 267.673 308.993 268.847 309.961L273.274 314.003C274.449 314.972 276.661 315.479 278.14 315.121L283.887 313.414C285.366 313.055 285.671 311.729 284.496 310.761L280.069 306.718C278.894 305.75 276.683 305.242 275.203 305.601L269.457 307.308Z" fill="#8CCFFF"/>
<path d="M124.593 188.851C123.114 189.209 122.809 190.536 123.984 191.504L128.411 195.546C129.586 196.514 131.747 197.243 133.277 196.664L139.024 194.957C140.503 194.598 140.807 193.272 139.633 192.304L135.206 188.261C134.031 187.293 131.819 186.785 130.34 187.144L124.593 188.851Z" fill="white"/>
<path d="M124.745 188.19C123.266 188.549 122.962 189.876 124.136 190.844L128.563 194.886C129.738 195.854 131.899 196.583 133.429 196.003L139.176 194.297C140.655 193.938 140.96 192.611 139.785 191.643L135.358 187.601C134.183 186.633 132.022 185.904 130.492 186.484L124.745 188.19Z" fill="#8CCFFF"/>
<path d="M133.448 196.933C131.969 197.291 131.664 198.618 132.839 199.586L137.266 203.628C138.44 204.596 140.652 205.104 142.131 204.746L147.878 203.039C149.358 202.68 149.662 201.354 148.487 200.386L144.06 196.343C142.886 195.375 140.674 194.867 139.195 195.226L133.448 196.933Z" fill="white"/>
<path d="M133.6 196.272C132.121 196.631 131.816 197.958 132.991 198.926L137.418 202.968C138.593 203.936 140.804 204.444 142.284 204.085L148.03 202.379C149.51 202.02 149.814 200.693 148.64 199.725L144.213 195.683C143.038 194.715 140.877 193.986 139.347 194.566L133.6 196.272Z" fill="#8CCFFF"/>
<path d="M142.03 205.191C140.551 205.549 140.246 206.876 141.421 207.844L145.848 211.886C147.023 212.854 149.184 213.583 150.714 213.003L156.239 211.246C157.719 210.887 158.023 209.561 156.849 208.593L152.422 204.55C151.247 203.582 149.035 203.074 147.556 203.433L142.03 205.191Z" fill="white"/>
<path d="M142.182 204.53C140.703 204.889 140.398 206.216 141.573 207.184L146 211.226C147.175 212.194 149.336 212.923 150.866 212.343L156.613 210.637C158.092 210.278 158.396 208.951 157.222 207.983L152.795 203.941C151.62 202.973 149.459 202.244 147.929 202.824L142.182 204.53Z" fill="#8CCFFF"/>
<path d="M150.883 213.278C149.404 213.637 149.099 214.963 150.274 215.931L154.65 220.195C155.825 221.163 157.985 221.892 159.515 221.312L165.262 219.605C166.742 219.247 167.046 217.92 165.872 216.952L161.445 212.91C160.27 211.942 158.058 211.434 156.579 211.793L150.883 213.278Z" fill="white"/>
<path d="M150.984 212.837C149.505 213.195 149.201 214.522 150.375 215.49L154.751 219.753C155.926 220.721 158.087 221.45 159.617 220.871L165.364 219.164C166.843 218.805 167.148 217.479 165.973 216.511L161.546 212.468C160.372 211.5 158.211 210.771 156.681 211.351L150.984 212.837Z" fill="#8CCFFF"/>
<path d="M159.686 221.577C158.207 221.936 157.902 223.263 159.077 224.231L163.504 228.273C164.678 229.241 166.839 229.97 168.369 229.39L174.116 227.683C175.596 227.325 175.9 225.998 174.725 225.03L170.299 220.988C169.124 220.02 166.963 219.291 165.433 219.871L159.686 221.577Z" fill="white"/>
<path d="M159.838 220.913C158.359 221.272 158.054 222.599 159.229 223.567L163.656 227.609C164.831 228.577 166.992 229.306 168.522 228.726L174.269 227.02C175.748 226.661 176.052 225.334 174.878 224.366L170.451 220.324C169.276 219.356 167.064 218.848 165.585 219.207L159.838 220.913Z" fill="#8CCFFF"/>
<path d="M168.761 229.711C167.282 230.07 166.977 231.397 168.152 232.365L172.579 236.407C173.754 237.375 175.965 237.883 177.445 237.524L182.92 235.988C184.399 235.629 184.704 234.303 183.529 233.335L179.102 229.292C177.927 228.324 175.766 227.595 174.236 228.175L168.761 229.711Z" fill="white"/>
<path d="M168.862 229.272C167.383 229.631 167.078 230.958 168.253 231.926L172.68 235.968C173.855 236.936 176.016 237.665 177.546 237.085L183.293 235.379C184.772 235.02 185.077 233.693 183.902 232.725L179.475 228.683C178.3 227.715 176.139 226.986 174.609 227.566L168.862 229.272Z" fill="#8CCFFF"/>
<path d="M177.565 238.016C176.085 238.375 175.781 239.702 176.955 240.67L181.332 244.933C182.506 245.901 184.718 246.409 186.197 246.05L191.944 244.344C193.423 243.985 193.728 242.658 192.553 241.69L188.126 237.648C186.952 236.68 184.791 235.951 183.261 236.531L177.565 238.016Z" fill="white"/>
<path d="M177.717 237.355C176.238 237.713 175.933 239.04 177.108 240.008L181.535 244.05C182.71 245.018 184.87 245.747 186.401 245.167L192.147 243.461C193.627 243.102 193.931 241.776 192.757 240.808L188.33 236.765C187.155 235.797 184.943 235.289 183.464 235.648L177.717 237.355Z" fill="#8CCFFF"/>
<path d="M186.418 246.104C184.939 246.463 184.634 247.79 185.809 248.758L190.236 252.8C191.411 253.768 193.572 254.497 195.102 253.917L200.848 252.211C202.328 251.852 202.632 250.525 201.458 249.557L197.031 245.515C195.856 244.547 193.695 243.818 192.165 244.398L186.418 246.104Z" fill="white"/>
<path d="M186.52 245.663C185.04 246.022 184.736 247.348 185.91 248.316L190.337 252.359C191.512 253.327 193.673 254.056 195.203 253.476L200.95 251.769C202.429 251.411 202.734 250.084 201.559 249.116L197.132 245.074C195.957 244.106 193.797 243.377 192.266 243.957L186.52 245.663Z" fill="#8CCFFF"/>
<path d="M195.442 254.462C193.963 254.82 193.658 256.147 194.833 257.115L199.26 261.157C200.434 262.125 202.595 262.854 204.125 262.274L209.6 260.738C211.08 260.38 211.384 259.053 210.209 258.085L205.783 254.042C204.608 253.074 202.396 252.567 200.917 252.925L195.442 254.462Z" fill="white"/>
<path d="M195.594 253.797C194.115 254.156 193.81 255.483 194.985 256.451L199.14 260.664C200.315 261.632 202.526 262.139 204.006 261.781L209.753 260.074C211.232 259.715 211.536 258.389 210.362 257.421L205.935 253.378C204.76 252.41 202.599 251.681 201.069 252.261L195.594 253.797Z" fill="#8CCFFF"/>
<path d="M204.296 262.546C202.817 262.905 202.512 264.231 203.687 265.199L208.114 269.242C209.289 270.21 211.449 270.939 212.98 270.359L218.726 268.652C220.206 268.294 220.51 266.967 219.336 265.999L214.909 261.956C213.734 260.988 211.573 260.26 210.043 260.839L204.296 262.546Z" fill="white"/>
<path d="M204.398 262.104C202.918 262.463 202.614 263.79 203.788 264.758L208.215 268.8C209.39 269.768 211.551 270.497 213.081 269.917L218.828 268.211C220.307 267.852 220.612 266.525 219.437 265.557L215.01 261.515C213.835 260.547 211.674 259.818 210.144 260.398L204.398 262.104Z" fill="#8CCFFF"/>
<path d="M213.1 270.859C211.621 271.217 211.316 272.544 212.491 273.512L216.918 277.554C218.092 278.522 220.253 279.251 221.783 278.671L227.53 276.965C229.009 276.606 229.314 275.279 228.139 274.311L223.712 270.269C222.538 269.301 220.326 268.793 219.068 269.203L213.1 270.859Z" fill="white"/>
<path d="M213.252 270.198C211.773 270.557 211.468 271.884 212.643 272.852L217.07 276.894C218.244 277.862 220.456 278.37 221.935 278.011L227.682 276.305C229.162 275.946 229.466 274.619 228.292 273.651L223.865 269.609C222.69 268.641 220.529 267.912 218.999 268.492L213.252 270.198Z" fill="#8CCFFF"/>
<path d="M221.953 278.937C220.474 279.295 220.169 280.622 221.344 281.59L225.771 285.632C226.946 286.6 229.107 287.329 230.637 286.75L236.384 285.043C237.863 284.684 238.167 283.358 236.993 282.39L232.566 278.347C231.391 277.379 229.179 276.871 227.7 277.23L221.953 278.937Z" fill="white"/>
<path d="M222.055 278.497C220.575 278.855 220.271 280.182 221.445 281.15L225.822 285.414C226.996 286.382 229.157 287.11 230.687 286.531L236.434 284.824C237.913 284.465 238.218 283.139 237.043 282.171L232.616 278.128C231.442 277.16 229.281 276.431 227.751 277.011L222.055 278.497Z" fill="#8CCFFF"/>
<path d="M230.978 287.3C229.499 287.658 229.194 288.985 230.369 289.953L234.796 293.996C235.97 294.964 238.131 295.692 239.661 295.113L245.408 293.406C246.888 293.047 247.192 291.721 246.017 290.753L241.591 286.71C240.416 285.742 238.255 285.013 236.725 285.593L230.978 287.3Z" fill="white"/>
<path d="M231.13 286.64C229.651 286.998 229.346 288.325 230.521 289.293L234.948 293.336C236.123 294.304 238.284 295.032 239.814 294.453L245.561 292.746C247.04 292.387 247.344 291.061 246.17 290.093L241.743 286.05C240.568 285.082 238.356 284.575 236.877 284.933L231.13 286.64Z" fill="#8CCFFF"/>
<path d="M239.831 295.382C238.352 295.741 238.047 297.067 239.222 298.035L243.649 302.078C244.824 303.046 247.035 303.554 248.515 303.195L254.261 301.488C255.741 301.13 256.045 299.803 254.871 298.835L250.444 294.792C249.269 293.824 247.057 293.317 245.578 293.675L239.831 295.382Z" fill="white"/>
<path d="M239.932 294.94C238.453 295.299 238.148 296.626 239.323 297.594L243.75 301.636C244.925 302.604 247.136 303.112 248.616 302.753L254.362 301.047C255.842 300.688 256.146 299.361 254.972 298.393L250.545 294.351C249.37 293.383 247.209 292.654 245.679 293.234L239.932 294.94Z" fill="#8CCFFF"/>
<path d="M248.635 303.69C247.156 304.049 246.851 305.376 248.026 306.344L252.453 310.386C253.628 311.354 255.788 312.083 257.319 311.503L263.065 309.797C264.545 309.438 264.849 308.111 263.675 307.143L259.248 303.101C258.073 302.133 255.912 301.404 254.382 301.984L248.635 303.69Z" fill="white"/>
<path d="M248.787 303.026C247.308 303.385 247.004 304.712 248.178 305.68L252.605 309.722C253.78 310.69 255.992 311.198 257.471 310.839L263.218 309.133C264.697 308.774 265.002 307.447 263.827 306.479L259.4 302.437C258.225 301.469 256.064 300.74 254.534 301.32L248.787 303.026Z" fill="#8CCFFF"/>
<path d="M257.489 311.769C256.009 312.127 255.705 313.454 256.879 314.422L261.306 318.464C262.481 319.432 264.693 319.94 266.172 319.581L271.919 317.875C273.398 317.516 273.703 316.19 272.528 315.222L268.101 311.179C266.926 310.211 264.766 309.482 263.235 310.062L257.489 311.769Z" fill="white"/>
<path d="M257.59 311.327C256.11 311.686 255.806 313.013 256.98 313.981L261.407 318.023C262.582 318.991 264.794 319.499 266.273 319.14L272.02 317.434C273.499 317.075 273.804 315.748 272.629 314.78L268.202 310.738C267.027 309.77 264.816 309.262 263.336 309.621L257.59 311.327Z" fill="#8CCFFF"/>
<path d="M113.048 192.491C111.569 192.85 111.264 194.177 112.439 195.145L116.866 199.187C118.04 200.155 120.252 200.663 121.731 200.304L127.478 198.598C128.958 198.239 129.262 196.912 128.087 195.944L123.661 191.902C122.486 190.934 120.274 190.426 118.795 190.785L113.048 192.491Z" fill="white"/>
<path d="M113.2 191.831C111.721 192.19 111.416 193.516 112.591 194.484L117.018 198.527C118.193 199.495 120.354 200.224 121.884 199.644L127.63 197.937C129.11 197.579 129.414 196.252 128.24 195.284L123.813 191.242C122.638 190.274 120.477 189.545 118.947 190.124L113.2 191.831Z" fill="#8CCFFF"/>
<path d="M121.68 200.526C120.201 200.885 119.897 202.212 121.071 203.18L125.498 207.222C126.673 208.19 128.834 208.919 130.364 208.339L136.111 206.633C137.59 206.274 137.895 204.947 136.72 203.979L132.293 199.937C131.118 198.969 128.907 198.461 127.427 198.82L121.68 200.526Z" fill="white"/>
<path d="M121.833 199.866C120.354 200.225 120.049 201.552 121.224 202.52L125.651 206.562C126.825 207.53 128.986 208.259 130.516 207.679L136.263 205.973C137.742 205.614 138.047 204.287 136.872 203.319L132.445 199.277C131.271 198.309 129.11 197.58 127.58 198.16L121.833 199.866Z" fill="#8CCFFF"/>
<path d="M130.536 208.61C129.056 208.969 128.752 210.295 129.926 211.263L134.081 215.476C135.256 216.444 137.468 216.952 138.947 216.593L144.694 214.887C146.173 214.528 146.478 213.201 145.303 212.233L140.876 208.191C139.702 207.223 137.541 206.494 136.011 207.074L130.536 208.61Z" fill="white"/>
<path d="M130.637 208.171C129.158 208.53 128.853 209.856 130.028 210.824L134.455 214.867C135.629 215.835 137.79 216.564 139.32 215.984L145.067 214.277C146.547 213.919 146.851 212.592 145.676 211.624L141.249 207.581C140.075 206.613 137.914 205.885 136.384 206.464L130.637 208.171Z" fill="#8CCFFF"/>
<path d="M139.338 216.917C137.858 217.276 137.554 218.602 138.729 219.57L143.155 223.613C144.33 224.581 146.491 225.31 148.021 224.73L153.768 223.023C155.247 222.665 155.552 221.338 154.377 220.37L149.95 216.328C148.776 215.36 146.615 214.631 145.085 215.21L139.338 216.917Z" fill="white"/>
<path d="M139.439 216.476C137.96 216.834 137.655 218.161 138.83 219.129L143.257 223.171C144.431 224.139 146.592 224.868 148.122 224.289L153.869 222.582C155.349 222.223 155.653 220.897 154.478 219.929L150.052 215.886C148.877 214.918 146.665 214.41 145.186 214.769L139.439 216.476Z" fill="#8CCFFF"/>
<path d="M148.141 225.222C146.662 225.58 146.357 226.907 147.532 227.875L151.959 231.917C153.134 232.885 155.295 233.614 156.825 233.035L162.35 231.277C163.83 230.919 164.134 229.592 162.96 228.624L158.533 224.581C157.358 223.613 155.197 222.885 153.667 223.464L148.141 225.222Z" fill="white"/>
<path d="M148.293 224.559C146.814 224.918 146.509 226.245 147.684 227.213L152.06 231.476C153.235 232.444 155.396 233.173 156.926 232.593L162.673 230.887C164.152 230.528 164.457 229.201 163.282 228.233L158.855 224.191C157.68 223.223 155.468 222.715 153.989 223.074L148.293 224.559Z" fill="#8CCFFF"/>
<path d="M156.995 233.309C155.516 233.668 155.211 234.995 156.386 235.963L160.762 240.226C161.937 241.194 164.098 241.923 165.628 241.343L171.375 239.637C172.854 239.278 173.158 237.951 171.984 236.983L167.557 232.941C166.382 231.973 164.17 231.465 162.691 231.824L156.995 233.309Z" fill="white"/>
<path d="M157.097 232.866C155.617 233.225 155.313 234.552 156.487 235.52L160.914 239.562C162.089 240.53 164.25 241.259 165.78 240.679L171.527 238.973C173.006 238.614 173.311 237.287 172.136 236.319L167.709 232.277C166.534 231.309 164.373 230.58 162.843 231.16L157.097 232.866Z" fill="#8CCFFF"/>
<path d="M166.019 241.671C164.54 242.03 164.236 243.356 165.41 244.324L169.837 248.367C171.012 249.335 173.173 250.064 174.703 249.484L180.45 247.777C181.929 247.419 182.234 246.092 181.059 245.124L176.632 241.081C175.457 240.113 173.296 239.385 171.766 239.964L166.019 241.671Z" fill="white"/>
<path d="M166.172 241.007C164.692 241.366 164.388 242.692 165.563 243.66L169.989 247.703C171.164 248.671 173.325 249.4 174.855 248.82L180.602 247.113C182.081 246.755 182.386 245.428 181.211 244.46L176.784 240.417C175.61 239.449 173.449 238.72 171.919 239.3L166.172 241.007Z" fill="#8CCFFF"/>
<path d="M174.873 249.743C173.394 250.101 173.09 251.428 174.264 252.396L178.691 256.439C179.866 257.407 182.078 257.914 183.557 257.556L189.032 256.019C190.511 255.661 190.816 254.334 189.641 253.366L185.214 249.324C184.039 248.356 181.878 247.627 180.348 248.207L174.873 249.743Z" fill="white"/>
<path d="M174.975 249.304C173.495 249.662 173.191 250.989 174.365 251.957L178.792 255.999C179.967 256.967 182.128 257.696 183.658 257.117L189.405 255.41C190.884 255.051 191.189 253.725 190.014 252.757L185.587 248.714C184.412 247.746 182.251 247.017 180.721 247.597L174.975 249.304Z" fill="#8CCFFF"/>
<path d="M183.676 258.062C182.196 258.42 181.892 259.747 183.066 260.715L187.493 264.757C188.668 265.725 190.829 266.454 192.359 265.874L198.106 264.168C199.585 263.809 199.89 262.483 198.715 261.514L194.288 257.472C193.113 256.504 190.952 255.775 189.422 256.355L183.676 258.062Z" fill="white"/>
<path d="M183.828 257.397C182.349 257.756 182.044 259.083 183.219 260.051L187.646 264.093C188.82 265.061 190.981 265.79 192.511 265.21L198.258 263.504C199.738 263.145 200.042 261.818 198.867 260.85L194.441 256.808C193.266 255.84 191.105 255.111 189.575 255.691L183.828 257.397Z" fill="#8CCFFF"/>
<path d="M192.751 266.19C191.272 266.549 190.967 267.876 192.142 268.844L196.569 272.886C197.743 273.854 199.904 274.583 201.434 274.003L207.181 272.297C208.661 271.938 208.965 270.611 207.79 269.643L203.364 265.601C202.189 264.633 200.028 263.904 198.498 264.484L192.751 266.19Z" fill="white"/>
<path d="M192.852 265.749C191.373 266.108 191.068 267.434 192.243 268.402L196.67 272.445C197.845 273.413 200.006 274.142 201.536 273.562L207.282 271.855C208.762 271.497 209.066 270.17 207.892 269.202L203.465 265.16C202.29 264.192 200.078 263.684 198.599 264.043L192.852 265.749Z" fill="#8CCFFF"/>
<path d="M201.555 274.499C200.076 274.858 199.771 276.184 200.946 277.152L205.373 281.195C206.547 282.163 208.708 282.892 210.238 282.312L215.985 280.605C217.464 280.247 217.769 278.92 216.594 277.952L212.167 273.91C210.993 272.942 208.781 272.434 207.302 272.793L201.555 274.499Z" fill="white"/>
<path d="M201.707 273.839C200.228 274.198 199.923 275.524 201.098 276.492L205.525 280.535C206.7 281.503 208.911 282.01 210.391 281.652L216.138 279.945C217.617 279.587 217.921 278.26 216.747 277.292L212.32 273.249C211.145 272.281 208.984 271.553 207.454 272.132L201.707 273.839Z" fill="#8CCFFF"/>
<path d="M210.408 282.577C208.928 282.936 208.624 284.263 209.798 285.231L214.225 289.273C215.4 290.241 217.612 290.749 219.091 290.39L224.838 288.684C226.317 288.325 226.622 286.998 225.447 286.03L221.02 281.988C219.845 281.02 217.634 280.512 216.154 280.871L210.408 282.577Z" fill="white"/>
<path d="M210.509 282.136C209.03 282.494 208.725 283.821 209.9 284.789L214.327 288.831C215.502 289.8 217.663 290.528 219.193 289.949L224.94 288.242C226.419 287.883 226.723 286.557 225.549 285.589L221.122 281.546C219.947 280.578 217.786 279.849 216.477 280.48L210.509 282.136Z" fill="#8CCFFF"/>
<path d="M219.211 290.886C217.732 291.244 217.427 292.571 218.602 293.539L223.029 297.582C224.203 298.55 226.364 299.278 227.894 298.699L233.641 296.992C235.121 296.633 235.425 295.307 234.25 294.339L229.823 290.296C228.649 289.328 226.488 288.599 224.958 289.179L219.211 290.886Z" fill="white"/>
<path d="M219.363 290.226C217.884 290.584 217.579 291.911 218.754 292.879L223.181 296.921C224.356 297.889 226.517 298.618 228.047 298.039L233.793 296.332C235.273 295.973 235.577 294.647 234.403 293.679L229.976 289.636C228.801 288.668 226.589 288.16 225.11 288.519L219.363 290.226Z" fill="#8CCFFF"/>
<path d="M228.286 299.019C226.807 299.377 226.502 300.704 227.677 301.672L232.104 305.714C233.278 306.682 235.439 307.411 236.969 306.831L242.716 305.125C244.196 304.766 244.5 303.44 243.325 302.472L238.899 298.429C237.724 297.461 235.563 296.732 234.033 297.312L228.286 299.019Z" fill="white"/>
<path d="M228.387 298.577C226.908 298.936 226.604 300.263 227.778 301.231L232.205 305.273C233.38 306.241 235.541 306.97 237.071 306.39L242.818 304.684C244.297 304.325 244.602 302.998 243.427 302.03L239 297.988C237.825 297.02 235.614 296.512 234.134 296.871L228.387 298.577Z" fill="#8CCFFF"/>
<path d="M237.09 307.327C235.611 307.686 235.306 309.013 236.481 309.981L240.908 314.023C242.083 314.991 244.244 315.72 245.552 315.089L251.299 313.383C252.779 313.024 253.083 311.697 251.908 310.729L247.482 306.687C246.307 305.719 244.146 304.99 242.616 305.57L237.09 307.327Z" fill="white"/>
<path d="M237.242 306.667C235.763 307.026 235.458 308.352 236.633 309.32L241.06 313.363C242.235 314.331 244.396 315.06 245.926 314.48L251.672 312.773C253.152 312.415 253.456 311.088 252.282 310.12L247.855 306.078C246.68 305.11 244.519 304.381 242.989 304.96L237.242 306.667Z" fill="#8CCFFF"/>
<path d="M245.943 315.413C244.464 315.772 244.159 317.098 245.334 318.066L249.761 322.109C250.936 323.077 253.147 323.585 254.627 323.226L260.373 321.519C261.853 321.161 262.157 319.834 260.983 318.866L256.556 314.824C255.381 313.856 253.22 313.127 251.69 313.707L245.943 315.413Z" fill="white"/>
<path d="M246.045 314.972C244.565 315.33 244.261 316.657 245.436 317.625L249.862 321.668C251.037 322.636 253.198 323.364 254.728 322.785L260.475 321.078C261.954 320.719 262.259 319.393 261.084 318.425L256.657 314.382C255.483 313.414 253.271 312.907 251.792 313.265L246.045 314.972Z" fill="#8CCFFF"/>
<path d="M101.504 196.124C100.025 196.483 99.7202 197.809 100.895 198.777L105.322 202.82C106.497 203.788 108.657 204.517 110.188 203.937L115.934 202.23C117.414 201.872 117.718 200.545 116.544 199.577L112.117 195.535C110.942 194.567 108.781 193.838 107.251 194.417L101.504 196.124Z" fill="white"/>
<path d="M101.606 195.68C100.127 196.039 99.8224 197.366 100.997 198.334L105.424 202.376C106.599 203.344 108.81 203.852 110.29 203.493L115.765 201.957C117.244 201.598 117.549 200.272 116.374 199.304L111.947 195.261C110.772 194.293 108.561 193.785 107.081 194.144L101.606 195.68Z" fill="#8CCFFF"/>
<path d="M110.138 204.153C108.658 204.512 108.354 205.838 109.528 206.806L113.955 210.849C115.13 211.817 117.291 212.546 118.821 211.966L124.296 210.43C125.775 210.071 126.08 208.744 124.905 207.776L120.478 203.734C119.304 202.766 117.143 202.037 115.613 202.617L110.138 204.153Z" fill="white"/>
<path d="M110.238 203.712C108.759 204.07 108.455 205.397 109.629 206.365L114.056 210.407C115.231 211.375 117.392 212.104 118.922 211.524L124.397 209.988C125.876 209.629 126.181 208.303 125.006 207.335L120.579 203.292C119.404 202.324 117.243 201.595 115.713 202.175L110.238 203.712Z" fill="#8CCFFF"/>
<path d="M118.719 212.405C117.239 212.764 116.935 214.091 118.11 215.059L122.536 219.101C123.711 220.069 125.872 220.798 127.402 220.218L133.149 218.512C134.628 218.153 134.933 216.826 133.758 215.858L129.331 211.816C128.157 210.848 125.996 210.119 124.466 210.699L118.719 212.405Z" fill="white"/>
<path d="M118.821 211.968C117.341 212.326 117.037 213.653 118.211 214.621L122.638 218.664C123.813 219.632 125.974 220.36 127.504 219.781L133.251 218.074C134.73 217.715 135.035 216.389 133.86 215.421L129.433 211.378C128.258 210.41 126.097 209.681 124.567 210.261L118.821 211.968Z" fill="#8CCFFF"/>
<path d="M127.744 220.765C126.264 221.123 125.96 222.45 127.134 223.418L131.561 227.46C132.736 228.428 134.897 229.157 136.427 228.578L142.174 226.871C143.653 226.512 143.958 225.186 142.783 224.218L138.356 220.175C137.181 219.207 135.021 218.478 133.49 219.058L127.744 220.765Z" fill="white"/>
<path d="M127.895 220.101C126.416 220.459 126.111 221.786 127.286 222.754L131.713 226.796C132.888 227.764 135.099 228.272 136.579 227.914L142.325 226.207C143.805 225.848 144.109 224.522 142.935 223.554L138.508 219.511C137.333 218.543 135.121 218.035 133.642 218.394L127.895 220.101Z" fill="#8CCFFF"/>
<path d="M136.597 228.851C135.117 229.209 134.813 230.536 135.988 231.504L140.414 235.546C141.589 236.514 143.75 237.243 145.28 236.663L151.027 234.957C152.506 234.598 152.811 233.272 151.636 232.304L147.209 228.261C146.035 227.293 143.874 226.564 142.344 227.144L136.597 228.851Z" fill="white"/>
<path d="M136.698 228.409C135.219 228.768 134.914 230.095 136.089 231.063L140.516 235.105C141.691 236.073 143.852 236.802 145.382 236.222L151.129 234.516C152.608 234.157 152.912 232.83 151.738 231.862L147.311 227.82C146.136 226.852 143.975 226.123 142.445 226.703L136.698 228.409Z" fill="#8CCFFF"/>
<path d="M145.4 237.157C143.921 237.515 143.617 238.842 144.791 239.81L149.167 244.074C150.342 245.042 152.554 245.55 154.033 245.191L159.78 243.484C161.259 243.126 161.564 241.799 160.389 240.831L155.962 236.788C154.788 235.82 152.627 235.092 151.097 235.671L145.4 237.157Z" fill="white"/>
<path d="M145.552 236.493C144.073 236.852 143.769 238.178 144.943 239.146L149.319 243.41C150.494 244.378 152.706 244.886 154.185 244.527L159.932 242.82C161.411 242.462 161.716 241.135 160.541 240.167L156.114 236.125C154.94 235.157 152.728 234.649 151.249 235.007L145.552 236.493Z" fill="#8CCFFF"/>
<path d="M154.254 245.241C152.774 245.6 152.47 246.927 153.645 247.895L158.072 251.937C159.246 252.905 161.407 253.634 162.937 253.054L168.684 251.348C170.163 250.989 170.468 249.662 169.293 248.694L164.866 244.652C163.692 243.684 161.48 243.176 160.001 243.535L154.254 245.241Z" fill="white"/>
<path d="M154.356 244.804C152.876 245.162 152.572 246.489 153.746 247.457L158.173 251.5C159.348 252.468 161.509 253.196 163.039 252.617L168.786 250.91C170.265 250.551 170.57 249.225 169.395 248.257L164.968 244.214C163.793 243.246 161.582 242.739 160.102 243.097L154.356 244.804Z" fill="#8CCFFF"/>
<path d="M163.278 253.597C161.799 253.955 161.495 255.282 162.669 256.25L167.096 260.293C168.271 261.261 170.483 261.768 171.962 261.41L177.709 259.703C179.188 259.344 179.493 258.018 178.318 257.05L173.891 253.007C172.716 252.039 170.505 251.532 169.025 251.89L163.278 253.597Z" fill="white"/>
<path d="M163.431 252.937C161.952 253.295 161.647 254.622 162.822 255.59L167.249 259.632C168.423 260.6 170.635 261.108 172.114 260.749L177.861 259.043C179.34 258.684 179.645 257.357 178.47 256.389L174.043 252.347C172.869 251.379 170.708 250.65 169.178 251.23L163.431 252.937Z" fill="#8CCFFF"/>
<path d="M172.132 261.683C170.653 262.041 170.348 263.368 171.523 264.336L175.95 268.378C177.125 269.346 179.286 270.075 180.816 269.496L186.562 267.789C188.042 267.43 188.346 266.104 187.172 265.136L182.745 261.093C181.57 260.125 179.409 259.396 177.879 259.976L172.132 261.683Z" fill="white"/>
<path d="M172.233 261.237C170.754 261.596 170.45 262.923 171.624 263.891L176.051 267.933C177.226 268.901 179.387 269.63 180.917 269.05L186.664 267.344C188.143 266.985 188.448 265.658 187.273 264.69L182.846 260.648C181.671 259.68 179.51 258.951 177.98 259.531L172.233 261.237Z" fill="#8CCFFF"/>
<path d="M180.936 269.987C179.456 270.346 179.152 271.673 180.326 272.641L184.753 276.683C185.928 277.651 188.14 278.159 189.619 277.8L195.366 276.094C196.845 275.735 197.15 274.408 195.975 273.44L191.548 269.398C190.373 268.43 188.212 267.701 186.682 268.281L180.936 269.987Z" fill="white"/>
<path d="M181.088 269.319C179.609 269.678 179.304 271.005 180.479 271.973L184.906 276.015C186.08 276.983 188.292 277.491 189.771 277.132L195.518 275.426C196.997 275.067 197.302 273.74 196.127 272.772L191.7 268.73C190.526 267.762 188.365 267.033 186.835 267.613L181.088 269.319Z" fill="#8CCFFF"/>
<path d="M190.011 278.124C188.532 278.483 188.227 279.809 189.402 280.777L193.829 284.82C195.003 285.788 197.164 286.517 198.694 285.937L204.441 284.23C205.921 283.872 206.225 282.545 205.05 281.577L200.623 277.535C199.449 276.567 197.237 276.059 195.758 276.418L190.011 278.124Z" fill="white"/>
<path d="M190.112 277.679C188.633 278.037 188.328 279.364 189.503 280.332L193.93 284.374C195.104 285.342 197.265 286.071 198.795 285.492L204.542 283.785C206.022 283.426 206.326 282.1 205.152 281.132L200.725 277.089C199.55 276.121 197.389 275.392 195.859 275.972L190.112 277.679Z" fill="#8CCFFF"/>
<path d="M198.814 286.425C197.334 286.784 197.03 288.11 198.205 289.078L202.631 293.121C203.806 294.089 205.967 294.818 207.497 294.238L213.244 292.531C214.723 292.173 215.028 290.846 213.853 289.878L209.426 285.835C208.252 284.867 206.04 284.36 204.561 284.718L198.814 286.425Z" fill="white"/>
<path d="M198.966 285.761C197.487 286.119 197.182 287.446 198.357 288.414L202.784 292.457C203.959 293.425 206.12 294.153 207.65 293.574L213.396 291.867C214.876 291.508 215.18 290.182 214.006 289.214L209.579 285.171C208.404 284.203 206.243 283.474 204.713 284.054L198.966 285.761Z" fill="#8CCFFF"/>
<path d="M207.667 294.515C206.188 294.873 205.883 296.2 207.058 297.168L211.485 301.211C212.659 302.179 214.82 302.907 216.35 302.328L222.097 300.621C223.577 300.262 223.881 298.936 222.707 297.968L218.28 293.925C217.105 292.957 214.893 292.45 213.414 292.808L207.667 294.515Z" fill="white"/>
<path d="M207.768 294.073C206.289 294.432 205.985 295.759 207.159 296.727L211.586 300.769C212.761 301.737 214.973 302.245 216.452 301.886L222.199 300.18C223.678 299.821 223.983 298.494 222.808 297.526L218.381 293.484C217.206 292.516 214.995 292.008 213.515 292.367L207.768 294.073Z" fill="#8CCFFF"/>
<path d="M216.471 302.821C214.991 303.18 214.687 304.506 215.861 305.474L220.238 309.738C221.412 310.706 223.624 311.214 225.103 310.855L230.85 309.148C232.329 308.79 232.634 307.463 231.459 306.495L227.032 302.453C225.858 301.485 223.697 300.756 222.167 301.335L216.471 302.821Z" fill="white"/>
<path d="M216.572 302.374C215.093 302.733 214.788 304.059 215.963 305.027L220.39 309.07C221.565 310.038 223.726 310.767 225.256 310.187L231.003 308.48C232.482 308.122 232.786 306.795 231.612 305.827L227.185 301.785C226.01 300.817 223.849 300.088 222.319 300.667L216.572 302.374Z" fill="#8CCFFF"/>
<path d="M225.546 310.952C224.067 311.311 223.762 312.637 224.937 313.605L229.364 317.648C230.539 318.616 232.699 319.345 234.23 318.765L239.976 317.058C241.456 316.7 241.76 315.373 240.586 314.405L236.159 310.363C234.984 309.395 232.823 308.666 231.293 309.246L225.546 310.952Z" fill="white"/>
<path d="M225.647 310.511C224.168 310.87 223.864 312.196 225.038 313.164L229.465 317.207C230.64 318.175 232.852 318.682 234.331 318.324L240.078 316.617C241.557 316.258 241.862 314.932 240.687 313.964L236.26 309.921C235.085 308.953 232.874 308.446 231.394 308.804L225.647 310.511Z" fill="#8CCFFF"/>
<path d="M234.349 319.261C232.869 319.619 232.565 320.946 233.739 321.914L238.166 325.957C239.341 326.925 241.502 327.653 243.032 327.074L248.779 325.367C250.258 325.008 250.563 323.682 249.388 322.714L244.961 318.671C243.786 317.703 241.575 317.196 240.095 317.554L234.349 319.261Z" fill="white"/>
<path d="M234.451 318.819C232.971 319.178 232.667 320.505 233.841 321.473L238.268 325.515C239.443 326.483 241.604 327.212 242.913 326.581L248.66 324.875C250.139 324.516 250.444 323.19 249.269 322.222L244.842 318.179C243.667 317.211 241.506 316.482 239.976 317.062L234.451 318.819Z" fill="#8CCFFF"/>
<path d="M89.5365 200.593C88.0572 200.952 87.7526 202.278 88.9273 203.246L93.3542 207.289C94.529 208.257 96.7406 208.764 98.22 208.406L103.967 206.699C105.446 206.341 105.751 205.014 104.576 204.046L100.149 200.003C98.9744 199.035 96.7627 198.528 95.2834 198.886L89.5365 200.593Z" fill="white"/>
<path d="M89.6888 199.925C88.2095 200.284 87.9049 201.61 89.0796 202.578L93.5066 206.621C94.6813 207.589 96.8422 208.318 98.3723 207.738L104.119 206.031C105.598 205.673 105.903 204.346 104.728 203.378L100.301 199.335C99.1267 198.367 96.915 197.86 95.4357 198.218L89.6888 199.925Z" fill="#8CCFFF"/>
<path d="M98.3899 208.679C96.9105 209.037 96.6059 210.364 97.7807 211.332L102.208 215.374C103.382 216.342 105.594 216.85 107.073 216.492L112.82 214.785C114.299 214.426 114.604 213.1 113.429 212.132L109.002 208.089C107.828 207.121 105.667 206.392 104.137 206.972L98.3899 208.679Z" fill="white"/>
<path d="M98.5414 208.015C97.0621 208.373 96.7575 209.7 97.9322 210.668L102.359 214.711C103.534 215.679 105.695 216.407 107.225 215.828L112.972 214.121C114.451 213.762 114.756 212.436 113.581 211.468L109.154 207.425C107.979 206.457 105.768 205.95 104.288 206.308L98.5414 208.015Z" fill="#8CCFFF"/>
<path d="M106.972 216.933C105.493 217.291 105.188 218.618 106.363 219.586L110.79 223.628C111.964 224.596 114.176 225.104 115.655 224.746L121.402 223.039C122.882 222.68 123.186 221.354 122.011 220.386L117.584 216.343C116.41 215.375 114.249 214.646 112.719 215.226L106.972 216.933Z" fill="white"/>
<path d="M107.124 216.265C105.645 216.623 105.34 217.95 106.515 218.918L110.942 222.961C112.117 223.929 114.278 224.657 115.808 224.078L121.554 222.371C123.034 222.012 123.338 220.686 122.164 219.718L117.737 215.675C116.562 214.707 114.35 214.2 113.092 214.609L107.124 216.265Z" fill="#8CCFFF"/>
<path d="M115.827 225.022C114.347 225.381 114.043 226.708 115.217 227.676L119.644 231.718C120.819 232.686 122.98 233.415 124.51 232.835L130.257 231.129C131.736 230.77 132.041 229.443 130.866 228.475L126.439 224.433C125.264 223.465 123.104 222.736 121.573 223.316L115.827 225.022Z" fill="white"/>
<path d="M115.928 224.575C114.449 224.933 114.144 226.26 115.319 227.228L119.746 231.271C120.92 232.239 123.132 232.746 124.611 232.388L130.307 230.902C131.787 230.544 132.091 229.217 130.917 228.249L126.49 224.206C125.315 223.238 123.154 222.51 121.624 223.089L115.928 224.575Z" fill="#8CCFFF"/>
<path d="M124.849 233.378C123.37 233.737 123.066 235.063 124.24 236.031L128.667 240.074C129.842 241.042 132.054 241.549 133.533 241.191L139.28 239.484C140.759 239.126 141.064 237.799 139.889 236.831L135.462 232.788C134.287 231.82 132.126 231.092 130.596 231.671L124.849 233.378Z" fill="white"/>
<path d="M125.002 232.714C123.522 233.073 123.218 234.399 124.393 235.367L128.82 239.41C129.994 240.378 132.206 240.885 133.685 240.527L139.432 238.82C140.911 238.462 141.216 237.135 140.041 236.167L135.614 232.124C134.44 231.156 132.279 230.428 130.749 231.007L125.002 232.714Z" fill="#8CCFFF"/>
<path d="M133.704 241.456C132.225 241.815 131.92 243.141 133.095 244.109L137.522 248.152C138.697 249.12 140.858 249.849 142.388 249.269L148.134 247.562C149.614 247.204 149.918 245.877 148.744 244.909L144.317 240.867C143.142 239.899 140.981 239.17 139.451 239.749L133.704 241.456Z" fill="white"/>
<path d="M133.806 241.015C132.326 241.373 132.022 242.7 133.196 243.668L137.623 247.71C138.798 248.678 141.01 249.186 142.489 248.828L148.236 247.121C149.715 246.762 150.02 245.436 148.845 244.468L144.418 240.425C143.243 239.457 141.082 238.728 139.552 239.308L133.806 241.015Z" fill="#8CCFFF"/>
<path d="M142.507 249.765C141.028 250.123 140.723 251.45 141.898 252.418L146.325 256.46C147.499 257.428 149.66 258.157 151.19 257.578L156.937 255.871C158.417 255.512 158.721 254.186 157.546 253.218L153.119 249.175C151.945 248.207 149.784 247.478 148.254 248.058L142.507 249.765Z" fill="white"/>
<path d="M142.659 249.097C141.18 249.455 140.875 250.782 142.05 251.75L146.477 255.792C147.652 256.76 149.813 257.489 151.343 256.91L157.09 255.203C158.569 254.844 158.873 253.518 157.699 252.55L153.272 248.507C152.097 247.539 149.936 246.81 148.406 247.39L142.659 249.097Z" fill="#8CCFFF"/>
<path d="M151.362 257.847C149.882 258.205 149.578 259.532 150.752 260.5L155.179 264.542C156.354 265.51 158.515 266.239 160.045 265.66L165.792 263.953C167.271 263.594 167.576 262.268 166.401 261.3L161.974 257.257C160.799 256.289 158.638 255.56 157.33 256.191L151.362 257.847Z" fill="white"/>
<path d="M151.463 257.405C149.984 257.764 149.679 259.091 150.854 260.059L155.281 264.101C156.455 265.069 158.616 265.798 160.146 265.218L165.893 263.512C167.373 263.153 167.677 261.826 166.503 260.858L162.076 256.816C160.901 255.848 158.689 255.34 157.21 255.699L151.463 257.405Z" fill="#8CCFFF"/>
<path d="M160.385 266.206C158.905 266.565 158.601 267.892 159.775 268.86L164.202 272.902C165.377 273.87 167.538 274.599 169.068 274.019L174.815 272.312C176.294 271.954 176.599 270.627 175.424 269.659L170.997 265.617C169.822 264.649 167.611 264.141 166.131 264.5L160.385 266.206Z" fill="white"/>
<path d="M160.537 265.546C159.057 265.905 158.753 267.231 159.928 268.199L164.354 272.242C165.529 273.21 167.741 273.717 169.22 273.359L174.967 271.652C176.446 271.294 176.751 269.967 175.576 268.999L171.149 264.956C169.975 263.988 167.814 263.26 166.284 263.839L160.537 265.546Z" fill="#8CCFFF"/>
<path d="M169.239 274.296C167.76 274.655 167.455 275.981 168.63 276.949L173.057 280.992C174.231 281.96 176.392 282.689 177.922 282.109L183.669 280.402C185.149 280.044 185.453 278.717 184.278 277.749L179.851 273.707C178.677 272.739 176.465 272.231 174.986 272.589L169.239 274.296Z" fill="white"/>
<path d="M169.341 273.851C167.861 274.209 167.557 275.536 168.731 276.504L173.158 280.546C174.333 281.514 176.494 282.243 178.024 281.663L183.771 279.957C185.25 279.598 185.555 278.272 184.38 277.304L179.953 273.261C178.779 272.293 176.618 271.564 175.088 272.144L169.341 273.851Z" fill="#8CCFFF"/>
<path d="M178.042 282.597C176.562 282.955 176.258 284.282 177.433 285.25L181.859 289.292C183.034 290.26 185.195 290.989 186.725 290.41L192.472 288.703C193.951 288.344 194.256 287.018 193.081 286.05L188.654 282.007C187.48 281.039 185.319 280.31 183.789 280.89L178.042 282.597Z" fill="white"/>
<path d="M178.194 281.935C176.715 282.294 176.41 283.62 177.585 284.588L182.012 288.631C183.186 289.599 185.347 290.328 186.877 289.748L192.624 288.041C194.104 287.683 194.408 286.356 193.284 285.167L188.857 281.124C187.683 280.156 185.522 279.428 183.992 280.007L178.194 281.935Z" fill="#8CCFFF"/>
<path d="M186.897 290.679C185.417 291.037 185.113 292.364 186.287 293.332L190.714 297.375C191.889 298.343 194.05 299.071 195.58 298.492L201.327 296.785C202.806 296.426 203.111 295.1 201.936 294.132L197.509 290.089C196.334 289.121 194.123 288.614 192.643 288.972L186.897 290.679Z" fill="white"/>
<path d="M187.219 290.288C185.739 290.647 185.435 291.974 186.609 292.942L191.036 296.984C192.211 297.952 194.372 298.681 195.902 298.101L201.649 296.395C203.128 296.036 203.433 294.709 202.258 293.741L197.831 289.699C196.656 288.731 194.445 288.223 192.965 288.582L187.219 290.288Z" fill="#8CCFFF"/>
<path d="M195.92 299.038C194.44 299.397 194.136 300.723 195.31 301.691L199.737 305.734C200.912 306.702 203.073 307.431 204.603 306.851L210.35 305.144C211.829 304.786 212.134 303.459 210.959 302.491L206.532 298.449C205.357 297.481 203.197 296.752 201.888 297.382L195.92 299.038Z" fill="white"/>
<path d="M196.021 298.597C194.542 298.955 194.237 300.282 195.412 301.25L199.839 305.292C201.014 306.26 203.174 306.989 204.705 306.41L210.451 304.703C211.931 304.344 212.235 303.018 211.061 302.05L206.634 298.007C205.459 297.039 203.298 296.31 201.768 296.89L196.021 298.597Z" fill="#8CCFFF"/>
<path d="M204.774 307.124C203.295 307.483 202.991 308.809 204.165 309.777L208.592 313.82C209.767 314.788 211.928 315.517 213.458 314.937L219.205 313.23C220.684 312.872 220.989 311.545 219.814 310.577L215.387 306.535C214.212 305.567 212.051 304.838 210.521 305.417L204.774 307.124Z" fill="white"/>
<path d="M204.876 306.683C203.397 307.041 203.092 308.368 204.267 309.336L208.694 313.378C209.868 314.346 212.08 314.854 213.559 314.496L219.306 312.789C220.786 312.43 221.09 311.104 219.915 310.136L215.489 306.093C214.314 305.125 212.153 304.396 210.623 304.976L204.876 306.683Z" fill="#8CCFFF"/>
<path d="M213.577 315.425C212.097 315.783 211.793 317.11 212.968 318.078L217.394 322.121C218.569 323.089 220.73 323.817 222.26 323.238L228.007 321.531C229.486 321.172 229.791 319.846 228.616 318.878L224.189 314.835C223.015 313.867 220.854 313.138 219.324 313.718L213.577 315.425Z" fill="white"/>
<path d="M213.678 314.987C212.199 315.346 211.894 316.673 213.069 317.641L217.496 321.683C218.671 322.651 220.882 323.159 222.362 322.8L228.109 321.094C229.588 320.735 229.893 319.408 228.718 318.44L224.291 314.398C223.116 313.43 220.955 312.701 219.425 313.281L213.678 314.987Z" fill="#8CCFFF"/>
<path d="M222.602 323.784C221.122 324.143 220.818 325.47 221.992 326.438L226.419 330.48C227.594 331.448 229.755 332.177 231.285 331.597L237.032 329.891C238.511 329.532 238.816 328.205 237.641 327.237L233.214 323.195C232.039 322.227 229.828 321.719 228.348 322.078L222.602 323.784Z" fill="white"/>
<path d="M222.753 323.12C221.274 323.479 220.969 324.806 222.144 325.774L226.571 329.816C227.746 330.784 229.907 331.513 231.437 330.933L237.183 329.227C238.663 328.868 238.967 327.541 237.793 326.573L233.366 322.531C232.191 321.563 229.979 321.055 228.5 321.414L222.753 323.12Z" fill="#8CCFFF"/>
<path d="M268.378 112.232C267.254 111.043 265.996 111.452 265.64 113C265.285 114.548 265.985 116.571 267.109 117.76C268.233 118.949 269.491 118.54 269.846 116.992C270.201 115.444 269.774 113.251 268.378 112.232Z" fill="#8CCFFF"/>
<path d="M77.9408 204.448C76.4615 204.807 76.1569 206.134 77.3317 207.102L81.7586 211.144C82.9333 212.112 85.145 212.62 86.6243 212.261L92.3712 210.555C93.8505 210.196 94.1551 208.869 92.9804 207.901L88.5534 203.859C87.3787 202.891 85.2178 202.162 83.6877 202.742L77.9408 204.448Z" fill="white"/>
<path d="M78.0427 204.007C76.5633 204.365 76.2587 205.692 77.4335 206.66L81.8604 210.703C83.0351 211.671 85.2468 212.178 86.505 211.769L92.2518 210.062C93.7311 209.704 94.0357 208.377 92.861 207.409L88.4341 203.367C87.2594 202.399 85.0984 201.67 83.5683 202.249L78.0427 204.007Z" fill="#8CCFFF"/>
<path d="M86.7941 212.53C85.3148 212.889 85.0102 214.216 86.1849 215.184L90.6118 219.226C91.7865 220.194 93.9474 220.923 95.4775 220.343L101.224 218.637C102.704 218.278 103.008 216.951 101.834 215.983L97.4066 211.941C96.2319 210.973 94.0202 210.465 92.5409 210.824L86.7941 212.53Z" fill="white"/>
<path d="M86.8951 212.089C85.4158 212.448 85.1112 213.774 86.286 214.742L90.7129 218.785C91.8876 219.753 94.0485 220.482 95.5786 219.902L101.325 218.195C102.805 217.837 103.109 216.51 101.935 215.542L97.5077 211.5C96.333 210.532 94.1213 210.024 92.642 210.382L86.8951 212.089Z" fill="#8CCFFF"/>
<path d="M95.3756 220.78C93.8963 221.139 93.5917 222.466 94.7664 223.434L99.1934 227.476C100.368 228.444 102.58 228.952 104.059 228.593L109.806 226.887C111.285 226.528 111.59 225.201 110.415 224.233L105.988 220.191C104.813 219.223 102.602 218.715 101.122 219.074L95.3756 220.78Z" fill="white"/>
<path d="M95.4774 220.343C93.9981 220.702 93.6935 222.028 94.8682 222.996L99.2952 227.039C100.47 228.007 102.631 228.736 104.161 228.156L109.908 226.449C111.387 226.091 111.692 224.764 110.517 223.796L106.09 219.753C104.915 218.785 102.704 218.278 101.224 218.636L95.4774 220.343Z" fill="#8CCFFF"/>
<path d="M104.18 229.093C102.7 229.451 102.396 230.778 103.57 231.746L107.997 235.789C109.172 236.757 111.384 237.264 112.863 236.906L118.61 235.199C120.089 234.84 120.394 233.514 119.219 232.546L114.792 228.503C113.617 227.535 111.457 226.806 109.926 227.386L104.18 229.093Z" fill="white"/>
<path d="M104.332 228.429C102.853 228.787 102.548 230.114 103.723 231.082L108.15 235.124C109.324 236.093 111.536 236.6 113.015 236.242L118.762 234.535C120.242 234.176 120.546 232.85 119.371 231.882L114.945 227.839C113.77 226.871 111.609 226.142 110.079 226.722L104.332 228.429Z" fill="#8CCFFF"/>
<path d="M113.033 237.176C111.554 237.535 111.249 238.862 112.424 239.83L116.8 244.093C117.975 245.061 120.136 245.79 121.666 245.21L127.413 243.504C128.892 243.145 129.197 241.818 128.022 240.85L123.595 236.808C122.42 235.84 120.259 235.111 118.729 235.691L113.033 237.176Z" fill="white"/>
<path d="M113.134 236.733C111.655 237.092 111.351 238.419 112.525 239.387L116.952 243.429C118.127 244.397 120.339 244.905 121.818 244.546L127.565 242.84C129.044 242.481 129.349 241.154 128.174 240.186L123.747 236.144C122.572 235.176 120.361 234.668 118.881 235.027L113.134 236.733Z" fill="#8CCFFF"/>
<path d="M201.931 319.503C200.452 319.862 200.147 321.188 201.322 322.156L205.749 326.199C206.923 327.167 209.135 327.675 210.393 327.265L216.14 325.559C217.619 325.2 217.924 323.873 216.749 322.905L212.322 318.863C211.148 317.895 208.936 317.387 207.457 317.746L201.931 319.503Z" fill="white"/>
<path d="M202.083 318.843C200.603 319.201 200.299 320.528 201.474 321.496L205.9 325.539C207.075 326.507 209.236 327.235 210.766 326.656L216.513 324.949C217.992 324.59 218.297 323.264 217.122 322.296L212.695 318.253C211.521 317.285 209.36 316.556 207.83 317.136L202.083 318.843Z" fill="#8CCFFF"/>
<path d="M125.205 246.024C121.924 247.132 121.315 249.786 123.784 252.215L157.531 283.705C160 286.134 164.866 287.252 168.148 286.143C171.429 285.034 172.038 282.381 169.569 279.952L135.6 248.41C133.131 245.981 128.487 244.915 125.205 246.024Z" fill="white"/>
<path d="M124.726 244.055C121.445 245.164 120.615 247.766 123.305 250.246L157.785 282.603C160.254 285.032 165.12 286.149 168.622 285.091C171.903 283.983 172.513 281.329 170.044 278.9L135.564 246.543C132.873 244.063 128.008 242.946 124.726 244.055Z" fill="#8CCFFF"/>
<path d="M166.446 286.448C164.967 286.807 164.662 288.134 165.837 289.102L170.264 293.144C171.438 294.112 173.65 294.62 175.129 294.261L180.876 292.555C182.356 292.196 182.66 290.869 181.485 289.901L176.837 285.808C175.663 284.84 173.502 284.111 171.972 284.691L166.446 286.448Z" fill="white"/>
<path d="M166.548 286.011C165.068 286.369 164.764 287.696 165.939 288.664L170.366 292.706C171.54 293.674 173.701 294.403 175.231 293.824L180.978 292.117C182.457 291.758 182.762 290.432 181.587 289.464L177.16 285.421C175.986 284.453 173.825 283.724 172.295 284.304L166.548 286.011Z" fill="#8CCFFF"/>
<path d="M175.25 294.761C173.77 295.12 173.466 296.446 174.64 297.414L179.067 301.457C180.242 302.425 182.403 303.154 183.933 302.574L189.68 300.867C191.159 300.508 191.464 299.182 190.289 298.214L185.862 294.171C184.688 293.203 182.476 292.696 180.996 293.054L175.25 294.761Z" fill="white"/>
<path d="M175.35 294.316C173.871 294.674 173.566 296.001 174.741 296.969L179.168 301.011C180.343 301.979 182.504 302.708 184.034 302.128L189.781 300.422C191.26 300.063 191.565 298.737 190.39 297.768L185.963 293.726C184.788 292.758 182.577 292.25 181.097 292.609L175.35 294.316Z" fill="#8CCFFF"/>
<path d="M184.103 302.839C182.624 303.198 182.319 304.524 183.494 305.492L187.921 309.535C189.095 310.503 191.307 311.01 192.786 310.652L198.533 308.945C200.012 308.587 200.317 307.26 199.142 306.292L194.715 302.249C193.541 301.281 191.38 300.553 189.85 301.132L184.103 302.839Z" fill="white"/>
<path d="M184.204 302.401C182.725 302.76 182.421 304.087 183.595 305.055L188.022 309.097C189.197 310.065 191.358 310.794 192.888 310.214L198.635 308.508C200.114 308.149 200.419 306.822 199.244 305.854L194.817 301.812C193.642 300.844 191.481 300.115 189.951 300.695L184.204 302.401Z" fill="#8CCFFF"/>
<path d="M193.128 311.198C191.648 311.557 191.344 312.884 192.519 313.852L196.946 317.894C198.12 318.862 200.281 319.591 201.811 319.011L207.558 317.305C209.037 316.946 209.342 315.619 208.167 314.651L203.74 310.609C202.566 309.641 200.405 308.912 198.875 309.492L193.128 311.198Z" fill="white"/>
<path d="M193.229 310.757C191.75 311.116 191.445 312.442 192.62 313.41L197.047 317.453C198.222 318.421 200.383 319.15 201.913 318.57L207.659 316.863C209.139 316.505 209.443 315.178 208.269 314.21L203.842 310.167C202.667 309.199 200.455 308.692 199.197 309.101L193.229 310.757Z" fill="#8CCFFF"/>
<path d="M210.785 327.589C209.306 327.948 209.001 329.274 210.176 330.242L214.603 334.285C215.777 335.253 217.938 335.982 219.468 335.402L225.215 333.695C226.694 333.337 226.999 332.01 225.824 331.042L221.397 326.999C220.223 326.031 218.062 325.303 216.532 325.882L210.785 327.589Z" fill="white"/>
<path d="M210.885 327.145C209.406 327.504 209.102 328.83 210.276 329.798L214.652 334.062C215.827 335.03 218.039 335.538 219.518 335.179L225.265 333.473C226.744 333.114 227.049 331.787 225.874 330.819L221.447 326.777C220.273 325.809 218.112 325.08 216.582 325.66L210.885 327.145Z" fill="#8CCFFF"/>
<path d="M93.5509 274.373C92.7859 274.663 92.6843 275.105 93.2463 275.7C93.8083 276.294 94.693 276.497 95.458 276.208L98.9605 275.15C99.7255 274.86 99.8271 274.417 99.2651 273.823C98.7031 273.228 97.8184 273.025 97.0534 273.315L93.5509 274.373Z" fill="white"/>
<path d="M97.0241 277.494C96.259 277.784 96.1575 278.226 96.7195 278.821C97.2814 279.415 98.1661 279.619 98.9311 279.329L102.434 278.271C103.199 277.981 103.3 277.539 102.738 276.944C102.176 276.349 101.292 276.146 100.527 276.436L97.0241 277.494Z" fill="white"/>
<path d="M100.276 280.572C99.5114 280.862 99.4099 281.304 99.9719 281.899C100.534 282.494 101.419 282.697 102.184 282.407L105.686 281.349C106.451 281.059 106.553 280.617 105.991 280.022C105.429 279.428 104.544 279.224 103.779 279.514L100.276 280.572Z" fill="white"/>
<path d="M103.529 283.647C102.764 283.936 102.663 284.379 103.225 284.973C103.787 285.568 104.671 285.771 105.436 285.481L108.939 284.423C109.704 284.133 109.805 283.691 109.243 283.096C108.681 282.502 107.797 282.299 107.032 282.589L103.529 283.647Z" fill="white"/>
<path d="M246.432 127.959C247.525 126.573 248.866 125.414 250.379 124.548C251.895 123.679 253.552 123.116 255.262 122.888C257.037 122.649 258.832 122.775 260.546 123.258C262.951 123.931 265.107 125.27 266.786 127.13C267.187 127.575 267.556 128.044 267.892 128.536C268.434 128.289 268.993 128.08 269.567 127.908C271.967 127.189 274.505 127.162 276.91 127.835C278.642 128.319 280.224 129.133 281.619 130.259C282.967 131.345 284.084 132.677 284.933 134.212C285.779 135.736 286.325 137.423 286.538 139.176C286.759 140.999 286.62 142.83 286.121 144.616C285.65 146.3 284.827 147.962 283.67 149.563C282.701 150.9 281.478 152.227 280.031 153.507C277.739 155.533 274.817 157.496 271.354 159.347C265.614 162.415 260.292 164.155 260.068 164.223L258.697 164.668C258.09 164.864 257.431 164.679 257.014 164.197L256.072 163.105C255.917 162.926 252.274 158.684 248.954 153.082C246.953 149.704 245.474 146.509 244.565 143.588C243.992 141.743 243.63 139.973 243.5 138.329C243.341 136.359 243.5 134.512 243.971 132.827C244.465 131.041 245.297 129.403 246.432 127.959Z" fill="#6A75E0"/>
<path d="M234.639 71.2291C235.324 70.3605 236.164 69.6348 237.112 69.0926C238.061 68.5483 239.099 68.1952 240.17 68.0525C241.282 67.9028 242.407 67.9817 243.48 68.2846C244.986 68.706 246.337 69.5447 247.388 70.7097C247.64 70.9884 247.871 71.2819 248.081 71.59C248.421 71.4357 248.771 71.3047 249.13 71.1969C250.634 70.7464 252.223 70.7299 253.73 71.1512C254.815 71.4547 255.806 71.9641 256.679 72.6695C257.524 73.3496 258.223 74.1839 258.755 75.1455C259.285 76.1003 259.627 77.1566 259.76 78.2546C259.899 79.3966 259.812 80.5438 259.499 81.662C259.204 82.7168 258.689 83.7579 257.964 84.7607C257.357 85.5986 256.591 86.4294 255.684 87.2313C254.249 88.5 252.419 89.73 250.249 90.8891C246.654 92.8107 243.321 93.9005 243.181 93.9432L242.322 94.2221C241.941 94.3446 241.529 94.2292 241.267 93.9272L240.678 93.2432C240.581 93.1306 238.299 90.4739 236.219 86.9652C234.966 84.8489 234.039 82.8479 233.47 81.0186C233.111 79.8629 232.884 78.7542 232.803 77.7241C232.703 76.4905 232.803 75.3332 233.098 74.2783C233.407 73.1593 233.928 72.1335 234.639 71.2291Z" fill="#8AFCBF"/>
<path d="M305.745 49.3379C306.1 48.2905 306.649 47.326 307.362 46.4983C308.075 45.6682 308.936 44.9886 309.898 44.4963C310.895 43.9842 311.982 43.6829 313.094 43.6099C314.655 43.5039 316.208 43.8435 317.588 44.5905C317.919 44.7691 318.234 44.9686 318.536 45.1888C318.804 44.9299 319.09 44.6896 319.393 44.4679C320.66 43.5412 322.152 42.9947 323.713 42.8887C324.837 42.8124 325.941 42.9615 327.001 43.3347C328.024 43.6938 328.961 44.2466 329.784 44.9754C330.602 45.6982 331.277 46.5798 331.77 47.5702C332.282 48.6003 332.583 49.7106 332.662 50.8691C332.736 51.9619 332.598 53.1152 332.249 54.3027C331.957 55.2951 331.513 56.3341 330.926 57.3927C329.997 59.0679 328.682 60.8386 327.025 62.6556C324.278 65.6676 321.5 67.8079 321.382 67.8951L320.665 68.4449C320.348 68.6873 319.92 68.7163 319.573 68.519L318.789 68.0712C318.66 67.9975 315.622 66.2555 312.489 63.6429C310.601 62.0667 309.06 60.49 307.912 58.9558C307.188 57.9863 306.604 57.0171 306.183 56.0731C305.677 54.9437 305.385 53.8196 305.31 52.7268C305.229 51.5686 305.377 50.4277 305.745 49.3379Z" fill="#8CCFFF"/>
<path d="M295.944 24.673C296.285 24.1555 296.72 23.7105 297.223 23.3628C297.728 23.0139 298.291 22.7675 298.882 22.6371C299.496 22.501 300.128 22.4918 300.742 22.6102C301.603 22.7742 302.397 23.1787 303.039 23.7796C303.193 23.9234 303.336 24.0763 303.468 24.2385C303.65 24.1362 303.839 24.0465 304.035 23.9693C304.853 23.6465 305.74 23.5621 306.602 23.7261C307.222 23.8442 307.8 24.0818 308.321 24.4345C308.825 24.7744 309.255 25.2072 309.597 25.7191C309.939 26.2272 310.179 26.801 310.306 27.4079C310.437 28.0391 310.443 28.6839 310.321 29.3232C310.207 29.9263 309.968 30.5321 309.61 31.1265C309.311 31.6232 308.923 32.1234 308.454 32.6142C307.713 33.3906 306.749 34.1642 305.592 34.9142C303.675 36.1575 301.865 36.9239 301.789 36.9544L301.322 37.1508C301.116 37.2372 300.88 37.1923 300.72 37.036L300.358 36.6819C300.298 36.6236 298.898 35.2479 297.571 33.3867C296.77 32.2641 296.158 31.1904 295.754 30.1957C295.499 29.5672 295.32 28.9588 295.226 28.3873C295.111 27.703 295.112 27.052 295.227 26.4489C295.347 25.8093 295.589 25.2117 295.944 24.673Z" fill="#6A75E0"/>
</svg>
