<svg width="32" height="29" viewBox="0 0 32 29" fill="none" xmlns="http://www.w3.org/2000/svg">
<g clip-path="url(#clip0)">
<path d="M25.6429 24.94V24.44H25.1429C24.7596 24.44 24.2519 24.443 23.6202 24.4491C22.9889 24.4551 22.505 24.4612 22.1695 24.4673C21.8484 24.4731 21.4235 24.4673 20.8919 24.4493C20.363 24.4315 19.9598 24.402 19.6748 24.363C19.3762 24.3222 19.0039 24.2604 18.5562 24.1766C18.13 24.097 17.7985 23.9954 17.5508 23.8798C17.2619 23.7448 16.9236 23.5762 16.5352 23.3732C16.1769 23.1858 15.8606 22.9675 15.584 22.7192C15.2872 22.4527 14.9702 22.1399 14.6328 21.7797C14.3716 21.501 14.1157 21.1889 13.8653 20.8426C14.429 19.897 15.0499 18.6489 15.7283 17.1051C15.7952 17.2355 15.858 17.3553 15.9167 17.4645C16.1073 17.8191 16.3597 18.2198 16.6703 18.6649C16.9917 19.1254 17.3254 19.505 17.675 19.7902C18.0265 20.0771 18.4491 20.3126 18.9334 20.5026C19.4432 20.7027 19.9909 20.8 20.5714 20.8H25.1429H25.6429V20.3V16.82C25.6429 16.7886 25.6477 16.7736 25.6496 16.7688C25.6511 16.7649 25.6531 16.7608 25.6598 16.754C25.6664 16.7472 25.6696 16.7461 25.6712 16.7455C25.6737 16.7445 25.6859 16.74 25.7143 16.74C25.7145 16.74 25.7155 16.74 25.718 16.7405C25.7205 16.7411 25.7257 16.7424 25.7338 16.7458C25.7483 16.7519 25.7722 16.7648 25.805 16.7907L31.4831 22.554C31.4856 22.5566 31.4875 22.5587 31.4889 22.5607C31.4912 22.5638 31.4924 22.5663 31.4933 22.5688C31.4952 22.5736 31.5 22.5886 31.5 22.62C31.5 22.6514 31.4952 22.6664 31.4933 22.6712C31.4918 22.6751 31.4898 22.6792 31.4831 22.686L25.7688 28.486C25.7623 28.4926 25.7592 28.4938 25.7575 28.4945H25.7574C25.7549 28.4955 25.7427 28.5 25.7143 28.5C25.7003 28.5 25.6956 28.4978 25.6947 28.4974C25.6934 28.4968 25.6845 28.493 25.6687 28.4769C25.6529 28.4609 25.6483 28.4511 25.6469 28.4477C25.6456 28.4446 25.6429 28.4371 25.6429 28.42V24.94ZM25.6429 8.7V8.2H25.1429H20.5714C19.9468 8.2 19.3661 8.29917 18.836 8.50611C18.3048 8.7135 17.835 9.02504 17.4295 9.43659C17.052 9.81979 16.7271 10.2167 16.4571 10.6277C16.1945 11.0274 15.9178 11.512 15.6267 12.0783L15.6257 12.0802C15.2367 12.8452 14.7673 13.8905 14.2183 15.2109C13.8742 16.0058 13.581 16.6731 13.3385 17.2134C13.1016 17.7411 12.7869 18.3629 12.3923 19.0803C12.001 19.7916 11.6326 20.3744 11.2877 20.8334C10.9412 21.2948 10.5167 21.7787 10.0119 22.2852C9.52191 22.7768 9.02278 23.1606 8.51575 23.4428C8.00179 23.7289 7.40537 23.9688 6.72272 24.1593C6.056 24.3454 5.33964 24.44 4.57143 24.44H0.571429C0.543041 24.44 0.530817 24.4355 0.528312 24.4345H0.528193C0.526543 24.4338 0.52342 24.4326 0.516889 24.426C0.510206 24.4192 0.508202 24.4151 0.50671 24.4112C0.504843 24.4064 0.5 24.3914 0.5 24.36V20.88C0.5 20.8486 0.504843 20.8336 0.506709 20.8288C0.508201 20.8249 0.510205 20.8208 0.516889 20.814C0.52342 20.8074 0.526542 20.8062 0.528192 20.8055H0.528313C0.530817 20.8045 0.543041 20.8 0.571429 20.8H4.57143C5.19606 20.8 5.77675 20.7008 6.30683 20.4939C6.83807 20.2865 7.30786 19.975 7.71332 19.5634C8.09085 19.1802 8.41579 18.7833 8.68577 18.3723C8.94833 17.9726 9.22505 17.488 9.51612 16.9217L9.51712 16.9198C9.90611 16.1548 10.3755 15.1095 10.9246 13.7891C11.2687 12.9942 11.5619 12.3269 11.8044 11.7866C12.0412 11.2589 12.356 10.6371 12.7506 9.91974C13.1419 9.20843 13.5103 8.62562 13.8551 8.16656C14.2017 7.70525 14.6262 7.2213 15.1309 6.71484C15.621 6.22318 16.1201 5.83941 16.6271 5.55719C17.1411 5.27112 17.7375 5.0312 18.4201 4.84065C19.0869 4.65456 19.8032 4.56 20.5714 4.56H25.1429H25.6429V4.06V0.58C25.6429 0.548634 25.6477 0.533607 25.6496 0.528763C25.6511 0.524892 25.6531 0.52082 25.6597 0.514035C25.6663 0.507406 25.6694 0.506171 25.6711 0.505518L25.6712 0.505471C25.6737 0.504476 25.6859 0.5 25.7143 0.5C25.7145 0.5 25.7155 0.499991 25.718 0.500511C25.7205 0.501051 25.7257 0.502405 25.7338 0.505823C25.7483 0.511935 25.7722 0.524769 25.805 0.550746L31.4831 6.31404L31.8393 5.96312L31.4831 6.31404C31.4898 6.32082 31.4918 6.32489 31.4933 6.32876C31.4952 6.3336 31.5 6.34863 31.5 6.38C31.5 6.41137 31.4952 6.4264 31.4933 6.43124C31.4918 6.43511 31.4898 6.43918 31.4831 6.44596L25.7688 12.246C25.7621 12.2528 25.759 12.2539 25.7574 12.2545C25.7549 12.2555 25.7427 12.26 25.7143 12.26C25.7003 12.26 25.6956 12.2578 25.6947 12.2574C25.6934 12.2568 25.6845 12.253 25.6687 12.2369L25.3125 12.5878L25.6687 12.2369C25.6529 12.2209 25.6483 12.2111 25.6469 12.2077C25.6456 12.2046 25.6429 12.1971 25.6429 12.18V8.7ZM11.2909 8.15769C10.7181 9.09744 10.0924 10.3451 9.41364 11.8931C9.34707 11.7634 9.28456 11.6442 9.22615 11.5355C9.03557 11.1809 8.78311 10.7802 8.47253 10.3351C8.15116 9.87461 7.81741 9.49499 7.46789 9.20979C7.11633 8.92292 6.69374 8.68744 6.20945 8.49737C5.69968 8.29731 5.15197 8.2 4.57143 8.2H0.571429C0.543041 8.2 0.530817 8.19552 0.528313 8.19453L0.528194 8.19448C0.526545 8.19383 0.523423 8.19259 0.51689 8.18596C0.510205 8.17918 0.508202 8.17511 0.50671 8.17124C0.504843 8.16639 0.5 8.15137 0.5 8.12V4.64C0.5 4.60863 0.504843 4.59361 0.50671 4.58876C0.508202 4.58489 0.510205 4.58082 0.51689 4.57404C0.523424 4.5674 0.526547 4.56617 0.528196 4.56552L0.528313 4.56547C0.530817 4.56448 0.543042 4.56 0.571429 4.56H4.57143C7.26646 4.56 9.49895 5.73546 11.2909 8.15769Z" fill="white" stroke="#6A75E0"/>
</g>
<defs>
<clipPath id="clip0">
<rect width="32" height="29" fill="white"/>
</clipPath>
</defs>
</svg>
